<?xml version="1.0" encoding="UTF-8"?>
<svg xmlns="http://www.w3.org/2000/svg" version="1.1" width="100" height="100" viewBox="0 0 100 100"><rect x="0" y="0" width="100" height="100" fill="#ffffff"/><g transform="scale(2.703)"><g transform="translate(0,0)"><path fill-rule="evenodd" d="M10 0L10 2L11 2L11 0ZM12 0L12 1L13 1L13 2L12 2L12 4L14 4L14 5L15 5L15 6L14 6L14 8L13 8L13 9L12 9L12 7L13 7L13 5L11 5L11 6L10 6L10 4L11 4L11 3L8 3L8 4L9 4L9 5L8 5L8 7L9 7L9 8L6 8L6 9L7 9L7 10L5 10L5 8L0 8L0 9L2 9L2 10L1 10L1 12L0 12L0 13L1 13L1 14L0 14L0 15L1 15L1 14L3 14L3 15L4 15L4 17L5 17L5 18L6 18L6 19L4 19L4 21L3 21L3 19L2 19L2 18L0 18L0 21L1 21L1 19L2 19L2 21L3 21L3 22L4 22L4 21L7 21L7 22L6 22L6 23L5 23L5 24L4 24L4 23L2 23L2 22L0 22L0 29L1 29L1 26L2 26L2 28L3 28L3 29L4 29L4 28L5 28L5 29L8 29L8 31L9 31L9 32L8 32L8 37L10 37L10 36L11 36L11 35L10 35L10 34L11 34L11 33L12 33L12 34L13 34L13 35L12 35L12 37L13 37L13 36L14 36L14 37L15 37L15 36L17 36L17 37L19 37L19 34L20 34L20 36L22 36L22 37L23 37L23 36L24 36L24 37L27 37L27 36L25 36L25 35L27 35L27 34L28 34L28 33L30 33L30 34L31 34L31 35L32 35L32 34L33 34L33 33L35 33L35 35L36 35L36 36L34 36L34 37L37 37L37 33L35 33L35 32L33 32L33 30L34 30L34 31L37 31L37 30L35 30L35 29L36 29L36 28L32 28L32 25L33 25L33 27L37 27L37 26L34 26L34 25L36 25L36 23L37 23L37 22L36 22L36 21L37 21L37 20L36 20L36 19L37 19L37 18L35 18L35 17L36 17L36 16L37 16L37 14L35 14L35 12L36 12L36 13L37 13L37 10L35 10L35 9L36 9L36 8L35 8L35 9L34 9L34 8L33 8L33 9L34 9L34 10L33 10L33 12L32 12L32 11L31 11L31 10L32 10L32 8L31 8L31 10L30 10L30 8L28 8L28 7L29 7L29 6L28 6L28 5L29 5L29 3L28 3L28 1L26 1L26 0L25 0L25 2L24 2L24 3L22 3L22 2L23 2L23 1L24 1L24 0L23 0L23 1L22 1L22 0L21 0L21 1L20 1L20 0L19 0L19 1L20 1L20 3L19 3L19 2L18 2L18 3L16 3L16 1L15 1L15 0L14 0L14 1L13 1L13 0ZM8 1L8 2L9 2L9 1ZM14 1L14 2L13 2L13 3L14 3L14 4L15 4L15 5L18 5L18 6L17 6L17 7L16 7L16 6L15 6L15 7L16 7L16 8L14 8L14 9L13 9L13 10L12 10L12 9L11 9L11 8L10 8L10 9L11 9L11 14L14 14L14 13L15 13L15 14L17 14L17 15L16 15L16 16L19 16L19 17L24 17L24 18L17 18L17 17L15 17L15 16L14 16L14 15L12 15L12 17L10 17L10 18L11 18L11 20L9 20L9 19L8 19L8 18L9 18L9 16L11 16L11 15L8 15L8 14L7 14L7 13L9 13L9 14L10 14L10 12L9 12L9 11L10 11L10 10L9 10L9 9L8 9L8 10L7 10L7 11L6 11L6 12L7 12L7 13L5 13L5 10L4 10L4 9L3 9L3 10L2 10L2 12L1 12L1 13L2 13L2 12L3 12L3 14L4 14L4 15L5 15L5 16L7 16L7 17L6 17L6 18L7 18L7 19L6 19L6 20L7 20L7 21L8 21L8 22L7 22L7 23L6 23L6 24L5 24L5 25L6 25L6 26L8 26L8 25L10 25L10 27L8 27L8 28L9 28L9 29L10 29L10 30L9 30L9 31L10 31L10 32L9 32L9 34L10 34L10 33L11 33L11 31L10 31L10 30L13 30L13 31L12 31L12 33L15 33L15 34L16 34L16 33L17 33L17 34L18 34L18 33L20 33L20 34L21 34L21 35L25 35L25 33L24 33L24 34L21 34L21 33L23 33L23 31L24 31L24 32L26 32L26 34L27 34L27 32L28 32L28 29L24 29L24 30L23 30L23 29L22 29L22 28L26 28L26 27L27 27L27 28L29 28L29 27L27 27L27 26L28 26L28 25L29 25L29 26L30 26L30 28L31 28L31 25L30 25L30 24L33 24L33 25L34 25L34 24L35 24L35 23L36 23L36 22L35 22L35 21L36 21L36 20L35 20L35 18L34 18L34 17L32 17L32 15L33 15L33 16L35 16L35 14L34 14L34 13L32 13L32 14L31 14L31 13L30 13L30 14L29 14L29 16L27 16L27 18L28 18L28 19L26 19L26 17L25 17L25 16L26 16L26 15L27 15L27 14L28 14L28 13L29 13L29 12L30 12L30 11L28 11L28 13L26 13L26 14L25 14L25 13L24 13L24 14L23 14L23 11L24 11L24 12L26 12L26 11L27 11L27 10L28 10L28 9L25 9L25 8L26 8L26 6L27 6L27 7L28 7L28 6L27 6L27 5L28 5L28 4L24 4L24 5L23 5L23 4L22 4L22 3L20 3L20 5L18 5L18 4L19 4L19 3L18 3L18 4L15 4L15 1ZM25 2L25 3L27 3L27 2ZM21 4L21 6L20 6L20 7L19 7L19 6L18 6L18 8L16 8L16 9L19 9L19 10L20 10L20 12L22 12L22 11L21 11L21 10L24 10L24 9L23 9L23 8L24 8L24 7L25 7L25 5L24 5L24 7L23 7L23 5L22 5L22 4ZM9 6L9 7L10 7L10 6ZM11 6L11 7L12 7L12 6ZM21 6L21 7L20 7L20 8L19 8L19 9L22 9L22 8L21 8L21 7L22 7L22 6ZM14 9L14 10L15 10L15 11L14 11L14 12L13 12L13 11L12 11L12 13L14 13L14 12L16 12L16 13L18 13L18 14L20 14L20 16L25 16L25 14L24 14L24 15L23 15L23 14L22 14L22 15L21 15L21 13L18 13L18 12L16 12L16 11L17 11L17 10L15 10L15 9ZM3 10L3 12L4 12L4 10ZM34 11L34 12L35 12L35 11ZM4 13L4 14L5 14L5 15L7 15L7 14L5 14L5 13ZM30 14L30 16L29 16L29 18L30 18L30 19L28 19L28 20L30 20L30 21L28 21L28 22L26 22L26 20L25 20L25 18L24 18L24 20L25 20L25 22L26 22L26 24L24 24L24 23L23 23L23 22L24 22L24 21L23 21L23 19L21 19L21 20L20 20L20 19L19 19L19 20L17 20L17 19L16 19L16 18L14 18L14 17L12 17L12 18L13 18L13 19L12 19L12 21L13 21L13 20L14 20L14 21L16 21L16 22L15 22L15 23L14 23L14 24L15 24L15 25L12 25L12 23L13 23L13 22L10 22L10 21L9 21L9 23L8 23L8 24L10 24L10 25L12 25L12 26L13 26L13 27L12 27L12 29L13 29L13 28L14 28L14 29L16 29L16 30L15 30L15 31L14 31L14 32L15 32L15 33L16 33L16 32L15 32L15 31L19 31L19 30L20 30L20 33L21 33L21 32L22 32L22 31L23 31L23 30L22 30L22 29L21 29L21 28L22 28L22 27L23 27L23 26L25 26L25 27L26 27L26 26L27 26L27 23L29 23L29 22L30 22L30 21L31 21L31 20L30 20L30 19L31 19L31 18L32 18L32 20L33 20L33 22L32 22L32 23L33 23L33 22L34 22L34 21L35 21L35 20L33 20L33 18L32 18L32 17L31 17L31 14ZM0 16L0 17L1 17L1 16ZM2 16L2 17L3 17L3 16ZM30 17L30 18L31 18L31 17ZM14 19L14 20L15 20L15 19ZM16 20L16 21L17 21L17 20ZM19 20L19 21L18 21L18 22L17 22L17 24L18 24L18 25L15 25L15 26L16 26L16 27L14 27L14 28L16 28L16 29L17 29L17 30L19 30L19 29L17 29L17 28L21 28L21 25L23 25L23 23L22 23L22 24L20 24L20 22L21 22L21 21L22 21L22 22L23 22L23 21L22 21L22 20L21 20L21 21L20 21L20 20ZM19 21L19 22L18 22L18 23L19 23L19 22L20 22L20 21ZM10 23L10 24L11 24L11 23ZM15 23L15 24L16 24L16 23ZM1 24L1 25L2 25L2 26L4 26L4 24L3 24L3 25L2 25L2 24ZM6 24L6 25L7 25L7 24ZM19 24L19 25L18 25L18 26L20 26L20 24ZM25 25L25 26L26 26L26 25ZM3 27L3 28L4 28L4 27ZM6 27L6 28L7 28L7 27ZM16 27L16 28L17 28L17 27ZM10 28L10 29L11 29L11 28ZM20 29L20 30L21 30L21 31L22 31L22 30L21 30L21 29ZM29 29L29 32L32 32L32 29ZM30 30L30 31L31 31L31 30ZM26 31L26 32L27 32L27 31ZM17 32L17 33L18 33L18 32ZM31 33L31 34L32 34L32 33ZM9 35L9 36L10 36L10 35ZM14 35L14 36L15 36L15 35ZM17 35L17 36L18 36L18 35ZM28 35L28 36L29 36L29 37L30 37L30 35ZM31 36L31 37L32 37L32 36ZM0 0L0 7L7 7L7 0ZM1 1L1 6L6 6L6 1ZM2 2L2 5L5 5L5 2ZM30 0L30 7L37 7L37 0ZM31 1L31 6L36 6L36 1ZM32 2L32 5L35 5L35 2ZM0 30L0 37L7 37L7 30ZM1 31L1 36L6 36L6 31ZM2 32L2 35L5 35L5 32Z" fill="#000000"/></g></g></svg>
