<?xml version="1.0" encoding="UTF-8"?>
<svg xmlns="http://www.w3.org/2000/svg" version="1.1" width="100" height="100" viewBox="0 0 100 100"><rect x="0" y="0" width="100" height="100" fill="#ffffff"/><g transform="scale(3.03)"><g transform="translate(0,0)"><path fill-rule="evenodd" d="M9 0L9 1L8 1L8 2L9 2L9 3L8 3L8 4L10 4L10 7L11 7L11 4L12 4L12 5L13 5L13 6L12 6L12 9L13 9L13 8L14 8L14 9L17 9L17 10L15 10L15 11L14 11L14 12L16 12L16 13L19 13L19 14L15 14L15 13L12 13L12 11L13 11L13 10L11 10L11 11L10 11L10 9L11 9L11 8L6 8L6 9L5 9L5 8L0 8L0 10L3 10L3 11L4 11L4 12L2 12L2 14L4 14L4 15L1 15L1 18L0 18L0 20L1 20L1 21L0 21L0 25L1 25L1 21L3 21L3 22L2 22L2 23L3 23L3 22L4 22L4 23L5 23L5 24L6 24L6 25L8 25L8 27L9 27L9 28L8 28L8 33L10 33L10 32L9 32L9 31L11 31L11 30L9 30L9 28L10 28L10 29L12 29L12 30L13 30L13 31L12 31L12 33L13 33L13 32L14 32L14 33L15 33L15 32L16 32L16 33L20 33L20 32L22 32L22 33L23 33L23 31L24 31L24 30L26 30L26 31L25 31L25 32L24 32L24 33L25 33L25 32L26 32L26 33L27 33L27 32L28 32L28 31L27 31L27 30L26 30L26 29L28 29L28 30L29 30L29 28L31 28L31 27L32 27L32 29L31 29L31 30L30 30L30 31L29 31L29 33L30 33L30 32L31 32L31 33L32 33L32 32L31 32L31 30L33 30L33 27L32 27L32 26L33 26L33 23L32 23L32 22L33 22L33 19L32 19L32 18L33 18L33 17L32 17L32 18L31 18L31 17L30 17L30 18L29 18L29 19L30 19L30 20L31 20L31 21L30 21L30 25L32 25L32 26L31 26L31 27L29 27L29 24L27 24L27 23L28 23L28 22L27 22L27 21L26 21L26 20L28 20L28 21L29 21L29 20L28 20L28 17L29 17L29 16L32 16L32 14L33 14L33 12L32 12L32 10L33 10L33 9L32 9L32 8L31 8L31 9L30 9L30 8L29 8L29 9L30 9L30 10L28 10L28 8L27 8L27 9L26 9L26 8L25 8L25 6L24 6L24 9L23 9L23 10L21 10L21 9L20 9L20 8L19 8L19 5L20 5L20 7L21 7L21 8L22 8L22 7L23 7L23 5L24 5L24 4L25 4L25 2L24 2L24 4L23 4L23 2L22 2L22 1L21 1L21 0L18 0L18 1L21 1L21 2L20 2L20 3L22 3L22 4L19 4L19 5L16 5L16 4L12 4L12 2L13 2L13 1L11 1L11 2L10 2L10 0ZM15 0L15 1L17 1L17 0ZM23 0L23 1L24 1L24 0ZM14 2L14 3L15 3L15 2ZM16 2L16 3L17 3L17 4L18 4L18 3L17 3L17 2ZM10 3L10 4L11 4L11 3ZM8 5L8 7L9 7L9 5ZM13 6L13 7L14 7L14 8L18 8L18 6L17 6L17 7L16 7L16 6L15 6L15 7L14 7L14 6ZM21 6L21 7L22 7L22 6ZM3 9L3 10L4 10L4 11L5 11L5 9ZM6 9L6 10L7 10L7 9ZM8 9L8 10L9 10L9 9ZM24 9L24 10L23 10L23 11L24 11L24 12L25 12L25 11L24 11L24 10L26 10L26 9ZM31 9L31 10L32 10L32 9ZM18 10L18 11L16 11L16 12L19 12L19 13L20 13L20 12L19 12L19 11L21 11L21 10ZM27 10L27 12L26 12L26 13L27 13L27 12L28 12L28 10ZM6 11L6 12L7 12L7 11ZM4 12L4 14L5 14L5 12ZM10 12L10 13L8 13L8 14L7 14L7 13L6 13L6 14L7 14L7 15L6 15L6 16L5 16L5 15L4 15L4 19L3 19L3 18L1 18L1 19L2 19L2 20L3 20L3 21L4 21L4 22L5 22L5 23L6 23L6 24L8 24L8 23L9 23L9 21L8 21L8 20L10 20L10 21L11 21L11 22L10 22L10 23L11 23L11 24L10 24L10 26L9 26L9 27L10 27L10 26L13 26L13 27L12 27L12 29L15 29L15 30L19 30L19 31L16 31L16 32L20 32L20 30L21 30L21 31L22 31L22 30L23 30L23 29L24 29L24 28L23 28L23 29L22 29L22 28L20 28L20 30L19 30L19 29L15 29L15 28L19 28L19 27L20 27L20 26L19 26L19 25L20 25L20 24L21 24L21 25L22 25L22 26L21 26L21 27L23 27L23 26L24 26L24 23L26 23L26 21L25 21L25 20L24 20L24 18L25 18L25 19L27 19L27 18L25 18L25 16L26 16L26 17L28 17L28 16L27 16L27 14L26 14L26 15L25 15L25 16L24 16L24 14L21 14L21 15L23 15L23 17L22 17L22 16L20 16L20 17L22 17L22 19L23 19L23 20L21 20L21 18L19 18L19 17L18 17L18 18L17 18L17 17L14 17L14 16L19 16L19 15L20 15L20 14L19 14L19 15L14 15L14 16L13 16L13 17L12 17L12 15L13 15L13 14L12 14L12 13L11 13L11 12ZM21 12L21 13L22 13L22 12ZM29 12L29 13L28 13L28 14L29 14L29 15L31 15L31 14L32 14L32 13L31 13L31 12ZM0 13L0 14L1 14L1 13ZM10 13L10 15L9 15L9 14L8 14L8 15L7 15L7 16L6 16L6 17L7 17L7 18L6 18L6 19L9 19L9 18L10 18L10 20L11 20L11 21L12 21L12 22L13 22L13 23L12 23L12 25L13 25L13 24L14 24L14 25L15 25L15 24L16 24L16 25L17 25L17 26L15 26L15 27L14 27L14 28L15 28L15 27L17 27L17 26L18 26L18 27L19 27L19 26L18 26L18 25L19 25L19 24L16 24L16 23L19 23L19 22L21 22L21 20L20 20L20 19L19 19L19 18L18 18L18 19L19 19L19 20L16 20L16 19L17 19L17 18L15 18L15 19L14 19L14 20L16 20L16 21L19 21L19 22L15 22L15 21L12 21L12 19L13 19L13 18L10 18L10 17L11 17L11 16L10 16L10 15L11 15L11 13ZM29 13L29 14L30 14L30 13ZM2 16L2 17L3 17L3 16ZM7 16L7 17L8 17L8 18L9 18L9 17L8 17L8 16ZM23 17L23 18L24 18L24 17ZM4 19L4 20L5 20L5 22L6 22L6 23L8 23L8 22L6 22L6 21L7 21L7 20L5 20L5 19ZM19 20L19 21L20 21L20 20ZM23 21L23 22L22 22L22 23L21 23L21 24L22 24L22 25L23 25L23 24L22 24L22 23L23 23L23 22L24 22L24 21ZM31 21L31 22L32 22L32 21ZM14 23L14 24L15 24L15 23ZM31 23L31 24L32 24L32 23ZM3 24L3 25L4 25L4 24ZM25 25L25 28L28 28L28 25ZM26 26L26 27L27 27L27 26ZM14 31L14 32L15 32L15 31ZM0 0L0 7L7 7L7 0ZM1 1L1 6L6 6L6 1ZM2 2L2 5L5 5L5 2ZM26 0L26 7L33 7L33 0ZM27 1L27 6L32 6L32 1ZM28 2L28 5L31 5L31 2ZM0 26L0 33L7 33L7 26ZM1 27L1 32L6 32L6 27ZM2 28L2 31L5 31L5 28Z" fill="#000000"/></g></g></svg>
