<?xml version="1.0" encoding="UTF-8"?>
<svg xmlns="http://www.w3.org/2000/svg" version="1.1" width="100" height="100" viewBox="0 0 100 100"><rect x="0" y="0" width="100" height="100" fill="#ffffff"/><g transform="scale(2.703)"><g transform="translate(0,0)"><path fill-rule="evenodd" d="M10 0L10 2L11 2L11 0ZM12 0L12 1L15 1L15 3L13 3L13 2L12 2L12 4L16 4L16 5L14 5L14 8L13 8L13 9L12 9L12 7L13 7L13 5L11 5L11 6L10 6L10 4L11 4L11 3L8 3L8 4L9 4L9 5L8 5L8 7L9 7L9 8L6 8L6 9L5 9L5 8L0 8L0 10L1 10L1 9L3 9L3 10L2 10L2 11L1 11L1 12L0 12L0 13L1 13L1 14L0 14L0 24L1 24L1 25L0 25L0 29L1 29L1 25L2 25L2 26L3 26L3 27L2 27L2 29L3 29L3 28L4 28L4 29L8 29L8 31L9 31L9 32L8 32L8 37L9 37L9 35L11 35L11 34L9 34L9 33L12 33L12 34L13 34L13 35L12 35L12 37L13 37L13 36L14 36L14 37L15 37L15 36L16 36L16 37L19 37L19 36L20 36L20 37L21 37L21 36L24 36L24 37L28 37L28 36L30 36L30 35L29 35L29 34L31 34L31 35L32 35L32 34L33 34L33 35L36 35L36 36L32 36L32 37L37 37L37 33L36 33L36 32L37 32L37 30L36 30L36 29L37 29L37 26L36 26L36 25L37 25L37 22L36 22L36 21L37 21L37 18L36 18L36 17L37 17L37 16L36 16L36 15L37 15L37 14L36 14L36 13L37 13L37 12L36 12L36 11L37 11L37 10L36 10L36 8L35 8L35 10L34 10L34 8L33 8L33 10L32 10L32 12L30 12L30 10L29 10L29 9L30 9L30 8L29 8L29 9L28 9L28 7L29 7L29 4L28 4L28 5L26 5L26 3L24 3L24 4L23 4L23 3L22 3L22 2L23 2L23 1L24 1L24 0L21 0L21 2L19 2L19 1L20 1L20 0L19 0L19 1L15 1L15 0ZM26 0L26 2L27 2L27 3L28 3L28 2L29 2L29 0L28 0L28 1L27 1L27 0ZM8 1L8 2L9 2L9 1ZM17 2L17 3L16 3L16 4L17 4L17 3L18 3L18 2ZM19 3L19 4L22 4L22 6L21 6L21 7L20 7L20 5L16 5L16 6L15 6L15 7L16 7L16 6L17 6L17 8L16 8L16 9L15 9L15 8L14 8L14 9L15 9L15 10L12 10L12 9L11 9L11 8L10 8L10 9L8 9L8 10L7 10L7 9L6 9L6 10L7 10L7 11L5 11L5 10L3 10L3 11L2 11L2 14L4 14L4 16L3 16L3 17L2 17L2 16L1 16L1 18L2 18L2 19L1 19L1 20L2 20L2 21L1 21L1 24L2 24L2 25L4 25L4 27L5 27L5 26L7 26L7 27L6 27L6 28L9 28L9 29L10 29L10 30L13 30L13 31L12 31L12 33L15 33L15 34L16 34L16 36L18 36L18 35L17 35L17 34L18 34L18 33L20 33L20 34L19 34L19 35L21 35L21 34L22 34L22 35L24 35L24 34L25 34L25 32L26 32L26 34L27 34L27 35L28 35L28 34L29 34L29 33L27 33L27 32L28 32L28 30L27 30L27 29L26 29L26 30L25 30L25 29L24 29L24 30L21 30L21 29L23 29L23 28L21 28L21 29L20 29L20 27L21 27L21 25L22 25L22 27L24 27L24 28L26 28L26 27L25 27L25 25L24 25L24 26L23 26L23 25L22 25L22 24L21 24L21 23L22 23L22 22L23 22L23 23L25 23L25 24L26 24L26 23L27 23L27 22L28 22L28 24L29 24L29 23L30 23L30 24L31 24L31 23L32 23L32 24L33 24L33 25L32 25L32 26L31 26L31 25L29 25L29 27L28 27L28 28L29 28L29 27L30 27L30 28L31 28L31 27L32 27L32 28L33 28L33 29L34 29L34 33L35 33L35 32L36 32L36 30L35 30L35 29L36 29L36 26L35 26L35 25L36 25L36 24L35 24L35 23L36 23L36 22L35 22L35 21L36 21L36 18L35 18L35 17L36 17L36 16L35 16L35 15L36 15L36 14L35 14L35 13L36 13L36 12L35 12L35 11L36 11L36 10L35 10L35 11L34 11L34 10L33 10L33 11L34 11L34 12L33 12L33 13L30 13L30 12L29 12L29 11L28 11L28 13L25 13L25 16L23 16L23 15L24 15L24 14L23 14L23 13L22 13L22 12L19 12L19 13L15 13L15 12L18 12L18 11L21 11L21 10L22 10L22 11L23 11L23 12L26 12L26 11L27 11L27 10L28 10L28 9L27 9L27 10L26 10L26 9L24 9L24 8L26 8L26 5L25 5L25 4L24 4L24 5L23 5L23 4L22 4L22 3ZM24 5L24 7L25 7L25 5ZM9 6L9 7L10 7L10 6ZM11 6L11 7L12 7L12 6ZM18 6L18 7L19 7L19 6ZM22 6L22 7L21 7L21 8L20 8L20 9L19 9L19 8L17 8L17 9L16 9L16 10L15 10L15 11L14 11L14 12L13 12L13 11L12 11L12 13L14 13L14 14L11 14L11 13L10 13L10 14L9 14L9 12L8 12L8 13L7 13L7 12L6 12L6 13L7 13L7 14L6 14L6 15L5 15L5 16L4 16L4 18L3 18L3 19L4 19L4 20L3 20L3 21L2 21L2 22L3 22L3 24L4 24L4 25L7 25L7 24L6 24L6 23L7 23L7 22L8 22L8 25L9 25L9 28L11 28L11 27L10 27L10 26L11 26L11 25L12 25L12 26L13 26L13 27L12 27L12 29L13 29L13 28L14 28L14 29L15 29L15 28L17 28L17 29L18 29L18 30L17 30L17 31L18 31L18 32L16 32L16 30L15 30L15 31L14 31L14 32L15 32L15 33L18 33L18 32L19 32L19 30L20 30L20 29L18 29L18 28L17 28L17 26L20 26L20 25L21 25L21 24L20 24L20 25L19 25L19 22L20 22L20 23L21 23L21 22L20 22L20 21L21 21L21 20L23 20L23 19L21 19L21 18L24 18L24 17L23 17L23 16L22 16L22 15L23 15L23 14L21 14L21 13L19 13L19 14L20 14L20 16L17 16L17 17L16 17L16 15L17 15L17 14L15 14L15 13L14 13L14 12L15 12L15 11L17 11L17 9L19 9L19 10L20 10L20 9L21 9L21 8L22 8L22 9L23 9L23 10L24 10L24 9L23 9L23 6ZM27 6L27 7L28 7L28 6ZM31 8L31 9L32 9L32 8ZM10 9L10 10L11 10L11 9ZM8 10L8 11L9 11L9 10ZM25 10L25 11L26 11L26 10ZM3 11L3 12L4 12L4 11ZM34 12L34 13L33 13L33 14L31 14L31 15L33 15L33 16L30 16L30 14L29 14L29 13L28 13L28 14L27 14L27 15L26 15L26 16L25 16L25 19L27 19L27 20L24 20L24 21L23 21L23 22L24 22L24 21L28 21L28 22L30 22L30 23L31 23L31 22L32 22L32 21L33 21L33 22L34 22L34 21L35 21L35 20L34 20L34 19L35 19L35 18L34 18L34 17L35 17L35 16L34 16L34 15L35 15L35 14L34 14L34 13L35 13L35 12ZM7 14L7 15L6 15L6 16L5 16L5 18L4 18L4 19L6 19L6 20L7 20L7 19L9 19L9 20L10 20L10 22L14 22L14 21L15 21L15 22L16 22L16 24L18 24L18 23L17 23L17 22L19 22L19 21L20 21L20 20L21 20L21 19L20 19L20 18L21 18L21 17L22 17L22 16L20 16L20 18L19 18L19 17L18 17L18 18L16 18L16 17L13 17L13 16L14 16L14 15L15 15L15 14L14 14L14 15L12 15L12 17L10 17L10 16L11 16L11 15L9 15L9 14ZM28 14L28 15L27 15L27 16L26 16L26 18L28 18L28 20L30 20L30 19L29 19L29 16L28 16L28 15L29 15L29 14ZM6 16L6 17L7 17L7 16ZM8 16L8 17L9 17L9 18L10 18L10 17L9 17L9 16ZM33 16L33 17L32 17L32 18L31 18L31 17L30 17L30 18L31 18L31 20L33 20L33 21L34 21L34 20L33 20L33 17L34 17L34 16ZM12 17L12 18L13 18L13 17ZM6 18L6 19L7 19L7 18ZM15 18L15 19L14 19L14 20L13 20L13 19L12 19L12 21L14 21L14 20L16 20L16 21L19 21L19 20L16 20L16 18ZM18 18L18 19L19 19L19 18ZM10 19L10 20L11 20L11 19ZM3 21L3 22L4 22L4 24L5 24L5 22L4 22L4 21ZM6 21L6 22L7 22L7 21ZM30 21L30 22L31 22L31 21ZM25 22L25 23L26 23L26 22ZM12 23L12 25L14 25L14 26L17 26L17 25L15 25L15 24L14 24L14 23ZM33 23L33 24L34 24L34 25L33 25L33 26L34 26L34 25L35 25L35 24L34 24L34 23ZM9 24L9 25L11 25L11 24ZM26 25L26 26L28 26L28 25ZM14 27L14 28L15 28L15 27ZM33 27L33 28L34 28L34 29L35 29L35 28L34 28L34 27ZM29 29L29 32L32 32L32 29ZM24 30L24 31L23 31L23 32L25 32L25 30ZM26 30L26 32L27 32L27 30ZM30 30L30 31L31 31L31 30ZM10 31L10 32L11 32L11 31ZM20 31L20 33L21 33L21 32L22 32L22 31ZM22 33L22 34L24 34L24 33ZM14 35L14 36L15 36L15 35ZM25 35L25 36L26 36L26 35ZM10 36L10 37L11 37L11 36ZM0 0L0 7L7 7L7 0ZM1 1L1 6L6 6L6 1ZM2 2L2 5L5 5L5 2ZM30 0L30 7L37 7L37 0ZM31 1L31 6L36 6L36 1ZM32 2L32 5L35 5L35 2ZM0 30L0 37L7 37L7 30ZM1 31L1 36L6 36L6 31ZM2 32L2 35L5 35L5 32Z" fill="#000000"/></g></g></svg>
