<?xml version="1.0" encoding="UTF-8"?>
<svg xmlns="http://www.w3.org/2000/svg" version="1.1" width="100" height="100" viewBox="0 0 100 100"><rect x="0" y="0" width="100" height="100" fill="#ffffff"/><g transform="scale(2.703)"><g transform="translate(0,0)"><path fill-rule="evenodd" d="M9 0L9 1L8 1L8 2L9 2L9 3L8 3L8 4L10 4L10 7L11 7L11 4L12 4L12 5L13 5L13 6L12 6L12 9L13 9L13 8L14 8L14 9L15 9L15 10L17 10L17 11L16 11L16 13L12 13L12 11L13 11L13 10L9 10L9 9L11 9L11 8L6 8L6 9L8 9L8 10L5 10L5 8L0 8L0 10L1 10L1 11L0 11L0 15L2 15L2 16L1 16L1 17L0 17L0 18L1 18L1 17L2 17L2 18L4 18L4 19L1 19L1 23L2 23L2 24L0 24L0 29L1 29L1 25L2 25L2 27L3 27L3 26L5 26L5 28L4 28L4 29L8 29L8 31L9 31L9 29L10 29L10 32L11 32L11 29L12 29L12 30L13 30L13 31L12 31L12 33L13 33L13 32L14 32L14 33L16 33L16 34L15 34L15 35L14 35L14 36L15 36L15 37L16 37L16 36L17 36L17 37L18 37L18 36L17 36L17 35L16 35L16 34L18 34L18 35L19 35L19 34L20 34L20 33L21 33L21 32L22 32L22 31L23 31L23 30L24 30L24 29L21 29L21 28L22 28L22 27L23 27L23 28L25 28L25 29L26 29L26 30L25 30L25 31L27 31L27 30L28 30L28 32L24 32L24 33L23 33L23 34L21 34L21 35L20 35L20 37L21 37L21 36L23 36L23 34L24 34L24 35L25 35L25 34L26 34L26 33L30 33L30 34L31 34L31 33L32 33L32 34L34 34L34 35L32 35L32 37L33 37L33 36L34 36L34 37L37 37L37 30L35 30L35 32L34 32L34 33L33 33L33 31L34 31L34 29L36 29L36 28L34 28L34 29L33 29L33 27L34 27L34 26L30 26L30 25L31 25L31 24L32 24L32 25L33 25L33 23L34 23L34 22L32 22L32 21L33 21L33 20L32 20L32 19L31 19L31 18L32 18L32 17L33 17L33 19L34 19L34 18L35 18L35 20L34 20L34 21L35 21L35 20L36 20L36 21L37 21L37 18L35 18L35 17L36 17L36 16L37 16L37 14L35 14L35 13L34 13L34 11L35 11L35 12L36 12L36 13L37 13L37 10L35 10L35 9L36 9L36 8L35 8L35 9L34 9L34 8L33 8L33 9L34 9L34 10L32 10L32 8L31 8L31 11L32 11L32 13L31 13L31 12L30 12L30 13L31 13L31 15L30 15L30 14L29 14L29 12L27 12L27 11L30 11L30 10L29 10L29 9L30 9L30 8L29 8L29 9L28 9L28 7L29 7L29 5L26 5L26 4L27 4L27 2L28 2L28 3L29 3L29 2L28 2L28 1L29 1L29 0L28 0L28 1L27 1L27 2L26 2L26 1L25 1L25 0L21 0L21 1L20 1L20 0L15 0L15 1L20 1L20 2L21 2L21 3L22 3L22 4L19 4L19 3L17 3L17 2L16 2L16 4L12 4L12 2L13 2L13 1L11 1L11 2L10 2L10 0ZM21 1L21 2L23 2L23 4L22 4L22 5L19 5L19 4L16 4L16 5L19 5L19 7L18 7L18 6L17 6L17 7L16 7L16 6L15 6L15 7L14 7L14 6L13 6L13 7L14 7L14 8L15 8L15 7L16 7L16 9L17 9L17 10L18 10L18 11L17 11L17 12L18 12L18 13L16 13L16 14L17 14L17 15L16 15L16 17L17 17L17 18L15 18L15 17L14 17L14 16L15 16L15 15L14 15L14 16L13 16L13 17L12 17L12 15L13 15L13 14L12 14L12 13L11 13L11 15L10 15L10 13L9 13L9 10L8 10L8 13L6 13L6 14L5 14L5 15L6 15L6 16L7 16L7 17L6 17L6 18L5 18L5 16L4 16L4 18L5 18L5 19L4 19L4 20L3 20L3 21L2 21L2 23L3 23L3 21L4 21L4 22L5 22L5 21L6 21L6 22L7 22L7 23L4 23L4 24L3 24L3 25L5 25L5 26L7 26L7 27L6 27L6 28L8 28L8 29L9 29L9 28L10 28L10 26L13 26L13 27L12 27L12 29L15 29L15 30L16 30L16 31L17 31L17 32L16 32L16 33L17 33L17 32L18 32L18 31L19 31L19 32L21 32L21 31L22 31L22 30L21 30L21 29L20 29L20 30L18 30L18 29L19 29L19 28L21 28L21 27L20 27L20 26L21 26L21 25L22 25L22 26L23 26L23 27L24 27L24 26L23 26L23 25L22 25L22 24L23 24L23 23L24 23L24 24L27 24L27 25L26 25L26 26L28 26L28 25L29 25L29 24L30 24L30 22L31 22L31 21L30 21L30 22L29 22L29 23L28 23L28 24L27 24L27 22L28 22L28 21L27 21L27 22L26 22L26 21L24 21L24 20L23 20L23 21L22 21L22 20L20 20L20 18L19 18L19 19L17 19L17 18L18 18L18 17L25 17L25 20L27 20L27 18L28 18L28 19L30 19L30 18L31 18L31 17L29 17L29 16L27 16L27 18L26 18L26 17L25 17L25 16L26 16L26 15L25 15L25 14L23 14L23 13L25 13L25 12L26 12L26 14L28 14L28 13L27 13L27 12L26 12L26 10L28 10L28 9L26 9L26 10L25 10L25 12L23 12L23 11L24 11L24 10L23 10L23 9L25 9L25 8L26 8L26 6L25 6L25 5L23 5L23 4L25 4L25 3L26 3L26 2L24 2L24 1ZM14 2L14 3L15 3L15 2ZM10 3L10 4L11 4L11 3ZM8 5L8 7L9 7L9 5ZM22 5L22 7L21 7L21 6L20 6L20 7L19 7L19 8L17 8L17 9L19 9L19 10L20 10L20 9L21 9L21 10L22 10L22 11L20 11L20 12L22 12L22 11L23 11L23 10L22 10L22 9L23 9L23 8L22 8L22 7L23 7L23 5ZM24 6L24 8L25 8L25 6ZM27 6L27 7L28 7L28 6ZM20 7L20 8L19 8L19 9L20 9L20 8L21 8L21 9L22 9L22 8L21 8L21 7ZM1 9L1 10L3 10L3 9ZM3 11L3 12L2 12L2 13L1 13L1 14L2 14L2 15L4 15L4 14L2 14L2 13L4 13L4 12L7 12L7 11ZM10 11L10 12L11 12L11 11ZM14 11L14 12L15 12L15 11ZM18 11L18 12L19 12L19 11ZM8 13L8 14L6 14L6 15L9 15L9 13ZM18 13L18 14L21 14L21 16L24 16L24 15L23 15L23 14L21 14L21 13ZM32 13L32 14L33 14L33 13ZM19 15L19 16L20 16L20 15ZM31 15L31 16L35 16L35 15ZM2 16L2 17L3 17L3 16ZM8 16L8 18L6 18L6 19L5 19L5 20L6 20L6 21L7 21L7 22L10 22L10 23L11 23L11 21L12 21L12 22L13 22L13 23L12 23L12 25L13 25L13 24L14 24L14 25L17 25L17 26L15 26L15 27L14 27L14 28L16 28L16 29L18 29L18 28L16 28L16 27L17 27L17 26L18 26L18 27L19 27L19 26L20 26L20 25L21 25L21 24L22 24L22 23L23 23L23 22L24 22L24 21L23 21L23 22L22 22L22 21L21 21L21 22L22 22L22 23L21 23L21 24L20 24L20 25L19 25L19 24L17 24L17 23L16 23L16 21L12 21L12 19L13 19L13 18L11 18L11 16ZM17 16L17 17L18 17L18 16ZM9 18L9 21L11 21L11 20L10 20L10 19L11 19L11 18ZM21 18L21 19L24 19L24 18ZM6 19L6 20L7 20L7 19ZM14 19L14 20L15 20L15 19ZM16 19L16 20L17 20L17 21L19 21L19 22L18 22L18 23L19 23L19 22L20 22L20 20L17 20L17 19ZM25 22L25 23L26 23L26 22ZM35 22L35 24L34 24L34 25L36 25L36 23L37 23L37 22ZM7 23L7 24L5 24L5 25L7 25L7 26L8 26L8 28L9 28L9 26L10 26L10 25L11 25L11 24L9 24L9 23ZM14 23L14 24L16 24L16 23ZM8 25L8 26L9 26L9 25ZM18 25L18 26L19 26L19 25ZM29 26L29 27L28 27L28 28L30 28L30 26ZM35 26L35 27L37 27L37 26ZM25 27L25 28L26 28L26 27ZM29 29L29 32L32 32L32 29ZM17 30L17 31L18 31L18 30ZM30 30L30 31L31 31L31 30ZM14 31L14 32L15 32L15 31ZM8 32L8 37L9 37L9 35L10 35L10 36L11 36L11 37L12 37L12 35L13 35L13 34L11 34L11 35L10 35L10 34L9 34L9 32ZM35 32L35 33L34 33L34 34L35 34L35 33L36 33L36 32ZM18 33L18 34L19 34L19 33ZM24 33L24 34L25 34L25 33ZM27 34L27 35L26 35L26 36L24 36L24 37L27 37L27 36L30 36L30 35L28 35L28 34ZM34 35L34 36L36 36L36 35ZM0 0L0 7L7 7L7 0ZM1 1L1 6L6 6L6 1ZM2 2L2 5L5 5L5 2ZM30 0L30 7L37 7L37 0ZM31 1L31 6L36 6L36 1ZM32 2L32 5L35 5L35 2ZM0 30L0 37L7 37L7 30ZM1 31L1 36L6 36L6 31ZM2 32L2 35L5 35L5 32Z" fill="#000000"/></g></g></svg>
