<?xml version="1.0" encoding="UTF-8"?>
<svg xmlns="http://www.w3.org/2000/svg" version="1.1" width="100" height="100" viewBox="0 0 100 100"><rect x="0" y="0" width="100" height="100" fill="#ffffff"/><g transform="scale(2.703)"><g transform="translate(0,0)"><path fill-rule="evenodd" d="M9 0L9 1L11 1L11 2L9 2L9 3L8 3L8 5L9 5L9 6L8 6L8 7L9 7L9 9L10 9L10 10L4 10L4 9L2 9L2 8L0 8L0 9L2 9L2 10L4 10L4 11L1 11L1 12L0 12L0 17L1 17L1 18L3 18L3 20L2 20L2 21L0 21L0 23L1 23L1 24L2 24L2 23L1 23L1 22L4 22L4 21L5 21L5 20L6 20L6 21L7 21L7 22L5 22L5 24L4 24L4 23L3 23L3 25L2 25L2 29L3 29L3 27L4 27L4 28L6 28L6 29L8 29L8 32L9 32L9 35L8 35L8 37L9 37L9 35L11 35L11 36L12 36L12 35L13 35L13 34L10 34L10 31L12 31L12 33L13 33L13 32L14 32L14 34L15 34L15 35L14 35L14 36L13 36L13 37L17 37L17 35L19 35L19 37L20 37L20 35L19 35L19 34L20 34L20 33L19 33L19 32L21 32L21 31L22 31L22 34L21 34L21 35L22 35L22 37L24 37L24 36L25 36L25 34L24 34L24 33L27 33L27 35L28 35L28 37L29 37L29 36L30 36L30 37L32 37L32 36L30 36L30 35L28 35L28 34L29 34L29 33L30 33L30 34L31 34L31 35L32 35L32 33L34 33L34 32L33 32L33 31L34 31L34 30L33 30L33 28L34 28L34 29L35 29L35 30L36 30L36 31L35 31L35 34L33 34L33 37L34 37L34 35L36 35L36 37L37 37L37 30L36 30L36 29L37 29L37 28L36 28L36 27L37 27L37 26L35 26L35 27L31 27L31 28L29 28L29 27L30 27L30 26L29 26L29 25L28 25L28 24L27 24L27 23L28 23L28 22L29 22L29 21L31 21L31 22L33 22L33 26L34 26L34 23L35 23L35 25L37 25L37 22L34 22L34 21L35 21L35 20L34 20L34 19L33 19L33 18L34 18L34 17L37 17L37 14L36 14L36 13L37 13L37 12L35 12L35 13L34 13L34 10L35 10L35 9L34 9L34 8L32 8L32 10L31 10L31 12L30 12L30 10L28 10L28 9L27 9L27 6L26 6L26 5L27 5L27 4L26 4L26 3L29 3L29 2L27 2L27 0L26 0L26 3L25 3L25 0L24 0L24 2L23 2L23 3L22 3L22 0L21 0L21 1L20 1L20 3L19 3L19 0L17 0L17 2L16 2L16 0L13 0L13 1L12 1L12 0ZM28 0L28 1L29 1L29 0ZM13 1L13 2L12 2L12 4L11 4L11 7L10 7L10 6L9 6L9 7L10 7L10 8L11 8L11 10L10 10L10 11L8 11L8 14L7 14L7 13L6 13L6 14L7 14L7 15L6 15L6 16L5 16L5 17L3 17L3 18L4 18L4 19L6 19L6 20L7 20L7 21L8 21L8 20L7 20L7 19L6 19L6 18L8 18L8 19L10 19L10 18L11 18L11 19L12 19L12 21L11 21L11 22L10 22L10 21L9 21L9 23L10 23L10 24L8 24L8 25L9 25L9 27L8 27L8 28L9 28L9 29L10 29L10 30L9 30L9 31L10 31L10 30L12 30L12 31L14 31L14 32L15 32L15 30L12 30L12 29L15 29L15 24L16 24L16 27L17 27L17 28L16 28L16 29L17 29L17 30L16 30L16 32L19 32L19 31L18 31L18 29L20 29L20 30L21 30L21 29L22 29L22 31L23 31L23 29L24 29L24 32L26 32L26 31L28 31L28 30L27 30L27 28L28 28L28 27L29 27L29 26L28 26L28 27L26 27L26 26L27 26L27 24L26 24L26 23L25 23L25 21L24 21L24 20L26 20L26 18L27 18L27 17L24 17L24 16L26 16L26 15L25 15L25 13L26 13L26 14L27 14L27 13L26 13L26 11L27 11L27 12L29 12L29 13L30 13L30 14L31 14L31 16L33 16L33 17L30 17L30 18L33 18L33 17L34 17L34 16L33 16L33 15L34 15L34 14L33 14L33 12L32 12L32 13L30 13L30 12L29 12L29 11L27 11L27 10L26 10L26 9L25 9L25 12L24 12L24 14L23 14L23 16L22 16L22 15L21 15L21 14L22 14L22 12L23 12L23 11L24 11L24 10L23 10L23 8L22 8L22 6L23 6L23 7L24 7L24 8L26 8L26 6L25 6L25 5L26 5L26 4L24 4L24 3L23 3L23 4L24 4L24 5L21 5L21 4L20 4L20 5L19 5L19 7L18 7L18 6L17 6L17 5L18 5L18 4L19 4L19 3L18 3L18 2L17 2L17 3L18 3L18 4L16 4L16 5L15 5L15 7L14 7L14 6L13 6L13 5L12 5L12 4L14 4L14 2L15 2L15 3L16 3L16 2L15 2L15 1ZM9 3L9 5L10 5L10 3ZM28 4L28 7L29 7L29 4ZM12 6L12 9L13 9L13 8L14 8L14 10L15 10L15 11L14 11L14 12L13 12L13 13L12 13L12 14L13 14L13 15L12 15L12 17L13 17L13 16L14 16L14 17L15 17L15 18L12 18L12 19L14 19L14 20L15 20L15 22L14 22L14 21L12 21L12 22L13 22L13 23L12 23L12 24L10 24L10 25L14 25L14 23L16 23L16 24L17 24L17 23L16 23L16 18L17 18L17 19L18 19L18 18L19 18L19 19L20 19L20 21L19 21L19 20L17 20L17 21L19 21L19 22L18 22L18 23L19 23L19 22L20 22L20 25L18 25L18 26L17 26L17 27L19 27L19 26L20 26L20 25L21 25L21 23L23 23L23 22L24 22L24 21L23 21L23 19L25 19L25 18L24 18L24 17L22 17L22 18L20 18L20 17L21 17L21 15L20 15L20 17L19 17L19 15L18 15L18 14L21 14L21 12L19 12L19 11L18 11L18 12L19 12L19 13L18 13L18 14L16 14L16 13L15 13L15 11L17 11L17 10L16 10L16 7L17 7L17 6L16 6L16 7L15 7L15 8L14 8L14 7L13 7L13 6ZM20 6L20 7L19 7L19 8L21 8L21 6ZM24 6L24 7L25 7L25 6ZM5 8L5 9L8 9L8 8ZM17 8L17 9L18 9L18 10L20 10L20 11L21 11L21 10L20 10L20 9L18 9L18 8ZM33 9L33 10L34 10L34 9ZM11 10L11 11L10 11L10 12L9 12L9 14L8 14L8 15L10 15L10 17L9 17L9 16L8 16L8 18L10 18L10 17L11 17L11 15L10 15L10 14L11 14L11 12L12 12L12 11L13 11L13 10ZM22 10L22 11L23 11L23 10ZM36 10L36 11L37 11L37 10ZM4 11L4 12L3 12L3 13L2 13L2 12L1 12L1 14L2 14L2 15L3 15L3 16L4 16L4 15L3 15L3 13L4 13L4 14L5 14L5 12L7 12L7 11ZM32 14L32 15L33 15L33 14ZM17 15L17 16L16 16L16 17L17 17L17 16L18 16L18 15ZM27 15L27 16L28 16L28 17L29 17L29 16L30 16L30 15L29 15L29 16L28 16L28 15ZM6 16L6 17L7 17L7 16ZM36 18L36 19L37 19L37 18ZM21 19L21 22L22 22L22 19ZM30 19L30 20L33 20L33 19ZM3 20L3 21L4 21L4 20ZM27 20L27 21L29 21L29 20ZM36 20L36 21L37 21L37 20ZM7 22L7 23L6 23L6 24L5 24L5 25L6 25L6 26L7 26L7 25L6 25L6 24L7 24L7 23L8 23L8 22ZM24 23L24 25L23 25L23 24L22 24L22 27L23 27L23 28L24 28L24 27L25 27L25 26L26 26L26 25L25 25L25 23ZM29 23L29 24L30 24L30 25L31 25L31 26L32 26L32 25L31 25L31 24L32 24L32 23L31 23L31 24L30 24L30 23ZM0 25L0 29L1 29L1 25ZM3 25L3 26L4 26L4 27L5 27L5 26L4 26L4 25ZM24 25L24 26L23 26L23 27L24 27L24 26L25 26L25 25ZM11 26L11 29L12 29L12 27L13 27L13 26ZM6 27L6 28L7 28L7 27ZM20 27L20 29L21 29L21 27ZM17 28L17 29L18 29L18 28ZM25 28L25 30L26 30L26 28ZM35 28L35 29L36 29L36 28ZM29 29L29 32L32 32L32 29ZM30 30L30 31L31 31L31 30ZM17 33L17 34L16 34L16 35L15 35L15 36L16 36L16 35L17 35L17 34L19 34L19 33ZM23 34L23 35L24 35L24 34ZM0 0L0 7L7 7L7 0ZM1 1L1 6L6 6L6 1ZM2 2L2 5L5 5L5 2ZM30 0L30 7L37 7L37 0ZM31 1L31 6L36 6L36 1ZM32 2L32 5L35 5L35 2ZM0 30L0 37L7 37L7 30ZM1 31L1 36L6 36L6 31ZM2 32L2 35L5 35L5 32Z" fill="#000000"/></g></g></svg>
