<?xml version="1.0" encoding="UTF-8"?>
<svg xmlns="http://www.w3.org/2000/svg" version="1.1" width="100" height="100" viewBox="0 0 100 100"><rect x="0" y="0" width="100" height="100" fill="#ffffff"/><g transform="scale(2.703)"><g transform="translate(0,0)"><path fill-rule="evenodd" d="M10 0L10 2L11 2L11 0ZM12 0L12 1L13 1L13 2L12 2L12 4L13 4L13 3L14 3L14 4L16 4L16 5L15 5L15 6L14 6L14 8L16 8L16 9L19 9L19 10L18 10L18 12L14 12L14 11L16 11L16 10L15 10L15 9L12 9L12 7L13 7L13 5L11 5L11 6L10 6L10 4L11 4L11 3L8 3L8 4L9 4L9 5L8 5L8 7L9 7L9 8L6 8L6 9L5 9L5 8L0 8L0 9L1 9L1 10L0 10L0 12L1 12L1 14L0 14L0 15L1 15L1 17L2 17L2 19L1 19L1 18L0 18L0 20L2 20L2 21L3 21L3 22L2 22L2 23L0 23L0 24L1 24L1 25L0 25L0 29L1 29L1 25L4 25L4 24L3 24L3 23L7 23L7 24L6 24L6 25L7 25L7 24L8 24L8 26L9 26L9 24L10 24L10 23L11 23L11 25L12 25L12 26L13 26L13 27L12 27L12 29L13 29L13 28L14 28L14 29L19 29L19 30L18 30L18 32L17 32L17 33L16 33L16 32L15 32L15 31L16 31L16 30L15 30L15 31L14 31L14 32L15 32L15 33L12 33L12 31L13 31L13 30L10 30L10 31L9 31L9 29L8 29L8 31L9 31L9 32L8 32L8 37L10 37L10 36L11 36L11 34L10 34L10 36L9 36L9 33L12 33L12 34L13 34L13 35L12 35L12 37L13 37L13 36L14 36L14 37L19 37L19 36L17 36L17 35L19 35L19 34L20 34L20 35L21 35L21 36L20 36L20 37L21 37L21 36L23 36L23 34L24 34L24 36L25 36L25 37L28 37L28 36L30 36L30 35L29 35L29 34L31 34L31 35L32 35L32 37L34 37L34 35L36 35L36 36L35 36L35 37L37 37L37 32L34 32L34 31L37 31L37 30L36 30L36 29L37 29L37 28L36 28L36 27L37 27L37 26L35 26L35 28L34 28L34 29L33 29L33 27L32 27L32 28L30 28L30 27L29 27L29 25L31 25L31 26L32 26L32 25L35 25L35 24L36 24L36 25L37 25L37 22L35 22L35 20L32 20L32 19L31 19L31 18L32 18L32 17L33 17L33 16L30 16L30 14L29 14L29 13L28 13L28 11L29 11L29 12L30 12L30 13L34 13L34 15L35 15L35 16L34 16L34 17L37 17L37 14L36 14L36 13L37 13L37 12L36 12L36 13L35 13L35 12L33 12L33 11L34 11L34 8L33 8L33 10L32 10L32 12L30 12L30 10L29 10L29 9L30 9L30 8L29 8L29 9L28 9L28 7L29 7L29 4L28 4L28 5L26 5L26 3L24 3L24 2L23 2L23 1L25 1L25 0L21 0L21 1L20 1L20 0L17 0L17 1L16 1L16 0L15 0L15 1L14 1L14 0ZM26 0L26 2L27 2L27 3L28 3L28 2L29 2L29 0L28 0L28 1L27 1L27 0ZM8 1L8 2L9 2L9 1ZM17 1L17 2L14 2L14 3L16 3L16 4L17 4L17 3L19 3L19 4L18 4L18 5L16 5L16 6L15 6L15 7L16 7L16 8L19 8L19 9L24 9L24 10L23 10L23 11L22 11L22 10L19 10L19 12L21 12L21 13L20 13L20 14L19 14L19 13L14 13L14 12L13 12L13 13L12 13L12 11L13 11L13 10L12 10L12 9L11 9L11 8L10 8L10 9L11 9L11 11L10 11L10 10L9 10L9 9L8 9L8 10L7 10L7 9L6 9L6 10L7 10L7 11L5 11L5 9L2 9L2 10L1 10L1 12L5 12L5 13L2 13L2 14L1 14L1 15L5 15L5 13L6 13L6 14L7 14L7 15L6 15L6 16L5 16L5 17L4 17L4 16L2 16L2 17L4 17L4 18L3 18L3 19L2 19L2 20L3 20L3 21L4 21L4 20L3 20L3 19L6 19L6 20L5 20L5 21L6 21L6 22L7 22L7 23L9 23L9 22L10 22L10 21L11 21L11 22L13 22L13 23L12 23L12 25L15 25L15 26L19 26L19 27L20 27L20 28L19 28L19 29L20 29L20 30L19 30L19 32L18 32L18 33L17 33L17 34L18 34L18 33L20 33L20 34L23 34L23 33L24 33L24 34L25 34L25 32L26 32L26 34L27 34L27 35L28 35L28 34L29 34L29 33L27 33L27 32L28 32L28 30L27 30L27 29L26 29L26 30L25 30L25 29L24 29L24 30L22 30L22 31L24 31L24 30L25 30L25 32L21 32L21 33L20 33L20 30L21 30L21 29L23 29L23 27L24 27L24 28L26 28L26 27L25 27L25 24L26 24L26 23L27 23L27 22L28 22L28 24L29 24L29 23L30 23L30 24L31 24L31 23L32 23L32 24L35 24L35 23L33 23L33 22L34 22L34 21L32 21L32 22L31 22L31 21L30 21L30 22L28 22L28 21L24 21L24 22L23 22L23 23L24 23L24 24L20 24L20 23L22 23L22 22L21 22L21 21L23 21L23 20L24 20L24 19L25 19L25 20L27 20L27 19L25 19L25 17L24 17L24 16L26 16L26 18L28 18L28 20L30 20L30 19L29 19L29 16L28 16L28 15L29 15L29 14L28 14L28 13L24 13L24 12L26 12L26 11L27 11L27 10L28 10L28 9L27 9L27 10L26 10L26 9L25 9L25 8L26 8L26 5L25 5L25 8L23 8L23 7L24 7L24 5L22 5L22 6L21 6L21 7L22 7L22 8L20 8L20 5L19 5L19 4L23 4L23 3L21 3L21 2L20 2L20 1ZM18 5L18 7L19 7L19 5ZM9 6L9 7L10 7L10 6ZM11 6L11 7L12 7L12 6ZM16 6L16 7L17 7L17 6ZM22 6L22 7L23 7L23 6ZM27 6L27 7L28 7L28 6ZM31 8L31 9L32 9L32 8ZM35 8L35 9L36 9L36 8ZM2 10L2 11L3 11L3 10ZM8 10L8 11L7 11L7 12L6 12L6 13L7 13L7 14L10 14L10 15L8 15L8 16L6 16L6 17L8 17L8 16L9 16L9 17L12 17L12 18L13 18L13 19L12 19L12 21L13 21L13 20L14 20L14 21L16 21L16 22L15 22L15 23L14 23L14 24L15 24L15 25L19 25L19 26L20 26L20 27L21 27L21 28L20 28L20 29L21 29L21 28L22 28L22 27L23 27L23 26L24 26L24 25L19 25L19 24L17 24L17 22L20 22L20 20L23 20L23 19L21 19L21 18L24 18L24 17L21 17L21 16L22 16L22 15L23 15L23 14L24 14L24 15L25 15L25 14L24 14L24 13L23 13L23 12L22 12L22 11L21 11L21 12L22 12L22 13L21 13L21 15L20 15L20 17L18 17L18 16L15 16L15 15L18 15L18 14L15 14L15 15L14 15L14 16L15 16L15 17L12 17L12 15L13 15L13 14L10 14L10 13L11 13L11 12L10 12L10 11L9 11L9 10ZM25 10L25 11L26 11L26 10ZM36 10L36 11L37 11L37 10ZM7 12L7 13L9 13L9 12ZM22 13L22 14L23 14L23 13ZM27 14L27 15L26 15L26 16L27 16L27 15L28 15L28 14ZM10 15L10 16L11 16L11 15ZM15 17L15 18L18 18L18 19L16 19L16 21L17 21L17 20L18 20L18 19L19 19L19 20L20 20L20 18L21 18L21 17L20 17L20 18L18 18L18 17ZM30 17L30 18L31 18L31 17ZM6 18L6 19L7 19L7 18ZM34 18L34 19L37 19L37 18ZM8 19L8 20L6 20L6 21L7 21L7 22L9 22L9 21L10 21L10 20L11 20L11 19ZM14 19L14 20L15 20L15 19ZM36 20L36 21L37 21L37 20ZM24 22L24 23L26 23L26 22ZM30 22L30 23L31 23L31 22ZM15 23L15 24L16 24L16 23ZM26 25L26 26L28 26L28 25ZM3 26L3 27L2 27L2 28L5 28L5 27L4 27L4 26ZM6 26L6 27L7 27L7 28L6 28L6 29L7 29L7 28L8 28L8 27L7 27L7 26ZM10 26L10 27L9 27L9 28L11 28L11 26ZM14 27L14 28L18 28L18 27ZM28 27L28 28L29 28L29 27ZM35 28L35 29L34 29L34 30L35 30L35 29L36 29L36 28ZM29 29L29 32L32 32L32 29ZM26 30L26 32L27 32L27 30ZM30 30L30 31L31 31L31 30ZM10 31L10 32L11 32L11 31ZM33 32L33 33L34 33L34 34L35 34L35 33L34 33L34 32ZM15 33L15 34L16 34L16 33ZM31 33L31 34L32 34L32 35L33 35L33 34L32 34L32 33ZM14 35L14 36L16 36L16 35ZM25 35L25 36L26 36L26 35ZM0 0L0 7L7 7L7 0ZM1 1L1 6L6 6L6 1ZM2 2L2 5L5 5L5 2ZM30 0L30 7L37 7L37 0ZM31 1L31 6L36 6L36 1ZM32 2L32 5L35 5L35 2ZM0 30L0 37L7 37L7 30ZM1 31L1 36L6 36L6 31ZM2 32L2 35L5 35L5 32Z" fill="#000000"/></g></g></svg>
