<?xml version="1.0" encoding="UTF-8"?>
<svg xmlns="http://www.w3.org/2000/svg" version="1.1" width="100" height="100" viewBox="0 0 100 100"><rect x="0" y="0" width="100" height="100" fill="#ffffff"/><g transform="scale(2.703)"><g transform="translate(0,0)"><path fill-rule="evenodd" d="M10 0L10 2L11 2L11 0ZM12 0L12 1L13 1L13 0ZM14 0L14 1L15 1L15 2L14 2L14 3L13 3L13 2L12 2L12 4L16 4L16 5L14 5L14 8L13 8L13 9L12 9L12 7L13 7L13 5L11 5L11 6L10 6L10 4L11 4L11 3L8 3L8 4L9 4L9 5L8 5L8 7L9 7L9 8L6 8L6 9L5 9L5 8L0 8L0 10L1 10L1 12L2 12L2 14L0 14L0 16L2 16L2 17L0 17L0 20L3 20L3 19L4 19L4 20L6 20L6 21L5 21L5 22L6 22L6 23L8 23L8 26L9 26L9 27L10 27L10 28L8 28L8 27L7 27L7 26L6 26L6 27L7 27L7 28L5 28L5 25L3 25L3 24L4 24L4 21L3 21L3 22L1 22L1 21L0 21L0 22L1 22L1 25L0 25L0 29L1 29L1 25L3 25L3 26L2 26L2 27L3 27L3 28L2 28L2 29L4 29L4 28L5 28L5 29L7 29L7 28L8 28L8 31L9 31L9 32L8 32L8 37L9 37L9 36L10 36L10 37L11 37L11 36L10 36L10 34L9 34L9 33L10 33L10 31L9 31L9 30L10 30L10 28L11 28L11 25L12 25L12 26L13 26L13 25L16 25L16 26L14 26L14 28L13 28L13 27L12 27L12 29L13 29L13 30L11 30L11 33L12 33L12 34L13 34L13 35L12 35L12 37L13 37L13 36L14 36L14 37L16 37L16 35L17 35L17 34L20 34L20 35L21 35L21 36L19 36L19 37L21 37L21 36L22 36L22 34L25 34L25 35L26 35L26 36L23 36L23 37L27 37L27 36L29 36L29 37L30 37L30 36L31 36L31 37L32 37L32 35L30 35L30 34L31 34L31 33L33 33L33 32L34 32L34 33L35 33L35 35L36 35L36 36L34 36L34 35L33 35L33 36L34 36L34 37L37 37L37 33L36 33L36 32L34 32L34 29L35 29L35 30L36 30L36 31L37 31L37 30L36 30L36 29L37 29L37 26L36 26L36 25L37 25L37 22L36 22L36 21L37 21L37 18L36 18L36 17L37 17L37 16L36 16L36 15L37 15L37 14L36 14L36 13L37 13L37 12L36 12L36 11L37 11L37 10L36 10L36 8L35 8L35 10L34 10L34 8L33 8L33 10L34 10L34 11L33 11L33 12L30 12L30 11L31 11L31 10L32 10L32 8L31 8L31 10L30 10L30 8L29 8L29 6L28 6L28 5L29 5L29 4L28 4L28 2L29 2L29 0L28 0L28 1L27 1L27 2L26 2L26 3L22 3L22 2L23 2L23 1L24 1L24 0L23 0L23 1L22 1L22 0L21 0L21 2L18 2L18 1L15 1L15 0ZM19 0L19 1L20 1L20 0ZM8 1L8 2L9 2L9 1ZM17 2L17 3L16 3L16 4L17 4L17 5L16 5L16 6L15 6L15 8L14 8L14 9L13 9L13 10L12 10L12 9L11 9L11 8L10 8L10 9L6 9L6 10L4 10L4 9L2 9L2 10L4 10L4 11L5 11L5 12L3 12L3 11L2 11L2 12L3 12L3 14L5 14L5 15L4 15L4 16L3 16L3 15L2 15L2 16L3 16L3 17L2 17L2 18L5 18L5 17L4 17L4 16L5 16L5 15L6 15L6 16L7 16L7 15L6 15L6 14L7 14L7 13L6 13L6 14L5 14L5 12L7 12L7 11L8 11L8 12L9 12L9 14L8 14L8 17L6 17L6 18L7 18L7 19L6 19L6 20L7 20L7 21L6 21L6 22L7 22L7 21L8 21L8 20L7 20L7 19L11 19L11 20L10 20L10 22L9 22L9 23L10 23L10 22L13 22L13 23L12 23L12 25L13 25L13 24L15 24L15 23L14 23L14 22L19 22L19 23L17 23L17 24L16 24L16 25L17 25L17 26L19 26L19 27L17 27L17 28L19 28L19 29L18 29L18 30L17 30L17 29L15 29L15 28L16 28L16 27L15 27L15 28L14 28L14 29L15 29L15 30L13 30L13 31L12 31L12 33L14 33L14 34L17 34L17 33L15 33L15 30L16 30L16 32L19 32L19 33L21 33L21 34L22 34L22 33L23 33L23 32L19 32L19 31L22 31L22 30L23 30L23 31L24 31L24 32L26 32L26 31L27 31L27 32L28 32L28 30L27 30L27 29L28 29L28 27L29 27L29 28L30 28L30 27L29 27L29 24L26 24L26 23L27 23L27 22L28 22L28 21L29 21L29 22L30 22L30 24L31 24L31 25L30 25L30 26L31 26L31 28L32 28L32 26L33 26L33 27L34 27L34 28L33 28L33 29L34 29L34 28L35 28L35 29L36 29L36 26L35 26L35 25L36 25L36 24L35 24L35 23L36 23L36 22L35 22L35 21L36 21L36 18L35 18L35 17L36 17L36 16L35 16L35 15L36 15L36 14L35 14L35 13L36 13L36 12L35 12L35 11L36 11L36 10L35 10L35 11L34 11L34 12L33 12L33 13L32 13L32 14L31 14L31 13L30 13L30 12L29 12L29 11L30 11L30 10L29 10L29 8L28 8L28 6L27 6L27 5L28 5L28 4L26 4L26 5L25 5L25 8L23 8L23 9L24 9L24 10L23 10L23 11L22 11L22 12L21 12L21 9L22 9L22 8L20 8L20 5L21 5L21 4L22 4L22 5L23 5L23 7L24 7L24 5L23 5L23 4L22 4L22 3L21 3L21 4L20 4L20 3L18 3L18 2ZM17 3L17 4L18 4L18 5L17 5L17 6L16 6L16 7L17 7L17 6L18 6L18 8L17 8L17 9L16 9L16 8L15 8L15 9L14 9L14 10L13 10L13 11L12 11L12 13L16 13L16 14L14 14L14 16L13 16L13 17L12 17L12 15L13 15L13 14L10 14L10 15L9 15L9 16L11 16L11 17L12 17L12 18L13 18L13 17L14 17L14 18L15 18L15 20L13 20L13 19L12 19L12 21L15 21L15 20L17 20L17 21L19 21L19 22L20 22L20 21L21 21L21 20L22 20L22 21L23 21L23 22L21 22L21 24L22 24L22 25L19 25L19 24L20 24L20 23L19 23L19 24L17 24L17 25L19 25L19 26L20 26L20 29L19 29L19 30L18 30L18 31L19 31L19 30L20 30L20 29L21 29L21 28L24 28L24 29L23 29L23 30L24 30L24 29L27 29L27 28L25 28L25 27L28 27L28 26L26 26L26 24L25 24L25 22L24 22L24 21L28 21L28 19L29 19L29 20L30 20L30 21L31 21L31 22L32 22L32 21L33 21L33 22L34 22L34 21L35 21L35 20L34 20L34 19L35 19L35 18L34 18L34 17L35 17L35 16L34 16L34 15L35 15L35 14L34 14L34 13L35 13L35 12L34 12L34 13L33 13L33 16L32 16L32 15L31 15L31 16L30 16L30 17L31 17L31 18L32 18L32 17L33 17L33 18L34 18L34 19L33 19L33 20L32 20L32 19L31 19L31 20L30 20L30 18L29 18L29 16L28 16L28 14L30 14L30 13L29 13L29 12L28 12L28 10L27 10L27 6L26 6L26 8L25 8L25 9L26 9L26 11L27 11L27 13L28 13L28 14L26 14L26 12L24 12L24 13L23 13L23 12L22 12L22 13L21 13L21 12L20 12L20 13L19 13L19 12L17 12L17 13L16 13L16 11L19 11L19 10L20 10L20 8L19 8L19 5L20 5L20 4L18 4L18 3ZM9 6L9 7L10 7L10 6ZM11 6L11 7L12 7L12 6ZM21 6L21 7L22 7L22 6ZM18 8L18 9L17 9L17 10L18 10L18 9L19 9L19 8ZM10 9L10 10L9 10L9 11L10 11L10 12L11 12L11 9ZM15 9L15 10L16 10L16 9ZM6 10L6 11L7 11L7 10ZM13 11L13 12L15 12L15 11ZM20 13L20 14L16 14L16 15L17 15L17 16L16 16L16 17L15 17L15 16L14 16L14 17L15 17L15 18L16 18L16 17L17 17L17 20L18 20L18 19L19 19L19 20L21 20L21 19L20 19L20 18L22 18L22 19L24 19L24 20L26 20L26 19L27 19L27 18L28 18L28 17L27 17L27 18L26 18L26 17L24 17L24 18L23 18L23 17L22 17L22 16L21 16L21 15L20 15L20 14L21 14L21 13ZM22 13L22 15L25 15L25 16L26 16L26 14L25 14L25 13L24 13L24 14L23 14L23 13ZM17 16L17 17L19 17L19 18L20 18L20 17L21 17L21 16ZM33 16L33 17L34 17L34 16ZM8 17L8 18L10 18L10 17ZM25 18L25 19L26 19L26 18ZM33 20L33 21L34 21L34 20ZM23 22L23 23L22 23L22 24L23 24L23 25L24 25L24 26L21 26L21 27L24 27L24 26L25 26L25 24L23 24L23 23L24 23L24 22ZM2 23L2 24L3 24L3 23ZM32 23L32 25L31 25L31 26L32 26L32 25L33 25L33 26L34 26L34 25L35 25L35 24L34 24L34 23ZM6 24L6 25L7 25L7 24ZM33 24L33 25L34 25L34 24ZM29 29L29 32L32 32L32 29ZM25 30L25 31L26 31L26 30ZM30 30L30 31L31 31L31 30ZM26 33L26 34L28 34L28 33ZM14 35L14 36L15 36L15 35ZM29 35L29 36L30 36L30 35ZM17 36L17 37L18 37L18 36ZM0 0L0 7L7 7L7 0ZM1 1L1 6L6 6L6 1ZM2 2L2 5L5 5L5 2ZM30 0L30 7L37 7L37 0ZM31 1L31 6L36 6L36 1ZM32 2L32 5L35 5L35 2ZM0 30L0 37L7 37L7 30ZM1 31L1 36L6 36L6 31ZM2 32L2 35L5 35L5 32Z" fill="#000000"/></g></g></svg>
