<?xml version="1.0" encoding="UTF-8"?>
<svg xmlns="http://www.w3.org/2000/svg" version="1.1" width="100" height="100" viewBox="0 0 100 100"><rect x="0" y="0" width="100" height="100" fill="#ffffff"/><g transform="scale(2.703)"><g transform="translate(0,0)"><path fill-rule="evenodd" d="M10 0L10 2L11 2L11 0ZM12 0L12 1L13 1L13 2L12 2L12 4L14 4L14 7L15 7L15 9L17 9L17 10L20 10L20 12L17 12L17 11L16 11L16 10L14 10L14 9L12 9L12 7L13 7L13 5L11 5L11 6L10 6L10 4L11 4L11 3L8 3L8 4L9 4L9 5L8 5L8 7L9 7L9 8L6 8L6 9L7 9L7 10L6 10L6 11L7 11L7 10L8 10L8 11L9 11L9 12L8 12L8 14L5 14L5 15L8 15L8 18L9 18L9 22L8 22L8 23L7 23L7 22L6 22L6 21L7 21L7 20L8 20L8 19L7 19L7 18L6 18L6 17L7 17L7 16L4 16L4 18L3 18L3 17L2 17L2 16L3 16L3 15L4 15L4 14L2 14L2 15L1 15L1 12L2 12L2 13L4 13L4 11L5 11L5 8L0 8L0 15L1 15L1 16L0 16L0 20L1 20L1 21L0 21L0 22L1 22L1 21L2 21L2 20L1 20L1 17L2 17L2 18L3 18L3 19L5 19L5 20L6 20L6 21L5 21L5 22L4 22L4 23L5 23L5 22L6 22L6 23L7 23L7 24L5 24L5 25L8 25L8 26L5 26L5 28L6 28L6 29L8 29L8 31L9 31L9 32L8 32L8 37L11 37L11 35L10 35L10 34L11 34L11 33L12 33L12 34L13 34L13 35L12 35L12 37L13 37L13 36L14 36L14 37L16 37L16 36L17 36L17 37L18 37L18 36L17 36L17 35L16 35L16 34L17 34L17 33L18 33L18 34L20 34L20 35L21 35L21 36L19 36L19 37L21 37L21 36L23 36L23 37L27 37L27 36L29 36L29 37L30 37L30 36L31 36L31 37L32 37L32 34L33 34L33 35L34 35L34 34L33 34L33 29L35 29L35 28L36 28L36 30L35 30L35 31L36 31L36 32L37 32L37 26L35 26L35 25L37 25L37 24L36 24L36 23L37 23L37 22L34 22L34 21L36 21L36 20L37 20L37 18L35 18L35 19L36 19L36 20L34 20L34 21L33 21L33 19L32 19L32 21L31 21L31 20L30 20L30 18L29 18L29 16L28 16L28 14L30 14L30 13L31 13L31 14L32 14L32 13L34 13L34 14L35 14L35 16L32 16L32 15L31 15L31 16L30 16L30 17L31 17L31 18L32 18L32 17L33 17L33 18L34 18L34 17L35 17L35 16L36 16L36 17L37 17L37 14L35 14L35 13L36 13L36 12L32 12L32 11L31 11L31 10L32 10L32 8L31 8L31 10L30 10L30 8L29 8L29 6L28 6L28 5L29 5L29 4L28 4L28 2L29 2L29 0L28 0L28 1L27 1L27 2L26 2L26 3L24 3L24 4L23 4L23 5L22 5L22 7L21 7L21 6L20 6L20 9L19 9L19 8L17 8L17 6L16 6L16 5L15 5L15 4L17 4L17 5L18 5L18 7L19 7L19 5L21 5L21 4L19 4L19 1L20 1L20 0L19 0L19 1L18 1L18 0L16 0L16 1L15 1L15 4L14 4L14 3L13 3L13 2L14 2L14 1L13 1L13 0ZM21 0L21 1L24 1L24 0ZM8 1L8 2L9 2L9 1ZM17 1L17 3L18 3L18 1ZM20 2L20 3L22 3L22 2ZM18 4L18 5L19 5L19 4ZM24 4L24 5L23 5L23 8L21 8L21 9L20 9L20 10L22 10L22 11L23 11L23 12L20 12L20 14L19 14L19 13L18 13L18 14L17 14L17 13L14 13L14 12L16 12L16 11L14 11L14 12L13 12L13 13L12 13L12 11L13 11L13 10L12 10L12 9L11 9L11 8L10 8L10 9L8 9L8 10L10 10L10 11L11 11L11 13L10 13L10 12L9 12L9 13L10 13L10 14L8 14L8 15L11 15L11 14L13 14L13 15L12 15L12 17L11 17L11 16L9 16L9 17L10 17L10 19L11 19L11 22L10 22L10 23L8 23L8 24L11 24L11 22L13 22L13 23L12 23L12 25L11 25L11 26L10 26L10 25L9 25L9 26L8 26L8 27L9 27L9 30L10 30L10 33L9 33L9 34L10 34L10 33L11 33L11 30L13 30L13 31L12 31L12 33L15 33L15 34L16 34L16 33L17 33L17 32L18 32L18 33L19 33L19 32L20 32L20 34L21 34L21 35L23 35L23 36L26 36L26 35L25 35L25 34L23 34L23 33L22 33L22 32L20 32L20 30L17 30L17 29L14 29L14 28L16 28L16 27L14 27L14 28L13 28L13 29L12 29L12 27L13 27L13 26L12 26L12 25L15 25L15 26L16 26L16 25L17 25L17 26L18 26L18 27L17 27L17 28L18 28L18 27L20 27L20 28L19 28L19 29L24 29L24 30L23 30L23 31L24 31L24 32L26 32L26 31L27 31L27 32L28 32L28 30L27 30L27 29L28 29L28 27L29 27L29 28L30 28L30 27L29 27L29 24L26 24L26 23L27 23L27 22L28 22L28 21L29 21L29 22L30 22L30 24L31 24L31 25L30 25L30 26L31 26L31 28L35 28L35 27L34 27L34 26L33 26L33 24L35 24L35 23L33 23L33 24L32 24L32 22L33 22L33 21L32 21L32 22L31 22L31 21L30 21L30 20L29 20L29 19L28 19L28 21L24 21L24 22L23 22L23 23L22 23L22 22L21 22L21 21L23 21L23 20L21 20L21 17L24 17L24 18L23 18L23 19L24 19L24 20L26 20L26 19L27 19L27 18L28 18L28 17L27 17L27 18L26 18L26 17L25 17L25 16L26 16L26 14L28 14L28 13L27 13L27 11L26 11L26 9L24 9L24 8L26 8L26 6L27 6L27 10L28 10L28 12L29 12L29 13L30 13L30 10L29 10L29 8L28 8L28 6L27 6L27 5L28 5L28 4L26 4L26 5L25 5L25 4ZM24 5L24 7L25 7L25 5ZM9 6L9 7L10 7L10 6ZM11 6L11 7L12 7L12 6ZM15 6L15 7L16 7L16 6ZM33 8L33 9L34 9L34 10L35 10L35 9L36 9L36 8L35 8L35 9L34 9L34 8ZM3 9L3 10L2 10L2 11L4 11L4 9ZM10 9L10 10L11 10L11 9ZM22 9L22 10L24 10L24 9ZM36 10L36 11L37 11L37 10ZM24 11L24 12L23 12L23 13L21 13L21 15L19 15L19 14L18 14L18 15L19 15L19 16L17 16L17 17L16 17L16 15L17 15L17 14L15 14L15 15L14 15L14 16L15 16L15 17L12 17L12 18L13 18L13 19L12 19L12 21L13 21L13 20L14 20L14 21L19 21L19 22L20 22L20 23L21 23L21 24L22 24L22 23L21 23L21 22L20 22L20 21L21 21L21 20L20 20L20 21L19 21L19 18L20 18L20 17L21 17L21 16L24 16L24 15L25 15L25 14L26 14L26 12L25 12L25 11ZM5 12L5 13L7 13L7 12ZM24 13L24 14L22 14L22 15L24 15L24 14L25 14L25 13ZM19 16L19 17L18 17L18 18L17 18L17 20L18 20L18 18L19 18L19 17L20 17L20 16ZM15 17L15 18L16 18L16 17ZM25 18L25 19L26 19L26 18ZM6 19L6 20L7 20L7 19ZM14 19L14 20L15 20L15 19ZM2 22L2 23L1 23L1 24L2 24L2 25L0 25L0 29L1 29L1 26L2 26L2 29L3 29L3 28L4 28L4 27L3 27L3 22ZM15 22L15 23L14 23L14 24L15 24L15 25L16 25L16 24L15 24L15 23L17 23L17 22ZM24 22L24 23L23 23L23 24L25 24L25 26L24 26L24 25L19 25L19 24L17 24L17 25L19 25L19 26L20 26L20 27L21 27L21 28L23 28L23 27L21 27L21 26L24 26L24 28L25 28L25 29L27 29L27 28L25 28L25 27L28 27L28 26L26 26L26 24L25 24L25 22ZM9 26L9 27L10 27L10 28L11 28L11 27L10 27L10 26ZM32 26L32 27L33 27L33 26ZM6 27L6 28L7 28L7 27ZM29 29L29 32L32 32L32 29ZM15 30L15 31L14 31L14 32L15 32L15 33L16 33L16 32L15 32L15 31L17 31L17 30ZM25 30L25 31L26 31L26 30ZM30 30L30 31L31 31L31 30ZM34 32L34 33L35 33L35 35L36 35L36 36L33 36L33 37L37 37L37 33L35 33L35 32ZM21 33L21 34L22 34L22 33ZM26 33L26 34L28 34L28 33ZM30 34L30 35L29 35L29 36L30 36L30 35L31 35L31 34ZM14 35L14 36L16 36L16 35ZM0 0L0 7L7 7L7 0ZM1 1L1 6L6 6L6 1ZM2 2L2 5L5 5L5 2ZM30 0L30 7L37 7L37 0ZM31 1L31 6L36 6L36 1ZM32 2L32 5L35 5L35 2ZM0 30L0 37L7 37L7 30ZM1 31L1 36L6 36L6 31ZM2 32L2 35L5 35L5 32Z" fill="#000000"/></g></g></svg>
