<?xml version="1.0" encoding="UTF-8"?>
<svg xmlns="http://www.w3.org/2000/svg" version="1.1" width="100" height="100" viewBox="0 0 100 100"><rect x="0" y="0" width="100" height="100" fill="#ffffff"/><g transform="scale(2.703)"><g transform="translate(0,0)"><path fill-rule="evenodd" d="M9 0L9 1L8 1L8 2L9 2L9 3L8 3L8 4L10 4L10 7L11 7L11 4L12 4L12 5L13 5L13 4L16 4L16 5L14 5L14 8L13 8L13 6L12 6L12 9L14 9L14 10L9 10L9 9L11 9L11 8L6 8L6 9L7 9L7 10L6 10L6 11L7 11L7 12L6 12L6 13L7 13L7 12L8 12L8 13L12 13L12 14L13 14L13 15L12 15L12 17L16 17L16 18L15 18L15 19L14 19L14 18L11 18L11 16L10 16L10 15L9 15L9 14L5 14L5 13L4 13L4 15L2 15L2 16L1 16L1 12L2 12L2 10L3 10L3 11L4 11L4 9L5 9L5 8L0 8L0 29L1 29L1 26L2 26L2 24L1 24L1 23L2 23L2 22L4 22L4 23L3 23L3 24L4 24L4 23L7 23L7 24L5 24L5 25L4 25L4 26L3 26L3 28L4 28L4 27L5 27L5 29L7 29L7 28L8 28L8 31L10 31L10 30L11 30L11 29L12 29L12 30L13 30L13 31L12 31L12 33L13 33L13 32L14 32L14 33L18 33L18 35L19 35L19 34L20 34L20 33L21 33L21 34L24 34L24 33L25 33L25 34L26 34L26 36L24 36L24 35L23 35L23 37L26 37L26 36L29 36L29 37L30 37L30 36L29 36L29 34L31 34L31 35L32 35L32 37L34 37L34 35L36 35L36 36L35 36L35 37L37 37L37 33L36 33L36 32L37 32L37 30L36 30L36 29L35 29L35 28L37 28L37 26L36 26L36 25L37 25L37 24L34 24L34 23L35 23L35 22L36 22L36 23L37 23L37 22L36 22L36 21L37 21L37 20L34 20L34 19L33 19L33 20L32 20L32 19L31 19L31 20L30 20L30 18L29 18L29 16L30 16L30 17L31 17L31 18L32 18L32 17L33 17L33 18L36 18L36 19L37 19L37 18L36 18L36 17L37 17L37 14L36 14L36 13L37 13L37 10L36 10L36 8L35 8L35 10L34 10L34 11L33 11L33 10L31 10L31 11L33 11L33 12L30 12L30 13L31 13L31 14L32 14L32 13L33 13L33 16L30 16L30 14L29 14L29 16L28 16L28 14L27 14L27 11L28 11L28 12L29 12L29 11L28 11L28 10L30 10L30 8L29 8L29 9L28 9L28 7L29 7L29 4L28 4L28 2L29 2L29 0L28 0L28 1L27 1L27 2L26 2L26 3L24 3L24 4L23 4L23 1L24 1L24 2L25 2L25 1L26 1L26 0L25 0L25 1L24 1L24 0L23 0L23 1L22 1L22 0L21 0L21 1L20 1L20 0L19 0L19 1L20 1L20 4L18 4L18 3L17 3L17 2L16 2L16 1L17 1L17 0L16 0L16 1L15 1L15 2L16 2L16 3L13 3L13 4L12 4L12 2L14 2L14 1L11 1L11 2L10 2L10 0ZM10 3L10 4L11 4L11 3ZM16 3L16 4L17 4L17 8L18 8L18 6L19 6L19 9L20 9L20 10L17 10L17 9L15 9L15 8L14 8L14 9L15 9L15 10L17 10L17 11L16 11L16 12L15 12L15 11L12 11L12 13L13 13L13 14L14 14L14 13L15 13L15 14L17 14L17 16L16 16L16 17L17 17L17 16L18 16L18 15L19 15L19 17L18 17L18 18L17 18L17 19L15 19L15 20L14 20L14 19L12 19L12 21L10 21L10 22L9 22L9 23L10 23L10 22L11 22L11 25L10 25L10 24L9 24L9 25L10 25L10 26L7 26L7 25L8 25L8 24L7 24L7 25L5 25L5 27L6 27L6 28L7 28L7 27L9 27L9 30L10 30L10 28L11 28L11 27L10 27L10 26L13 26L13 27L12 27L12 29L14 29L14 30L16 30L16 31L14 31L14 32L18 32L18 33L20 33L20 32L19 32L19 31L20 31L20 30L21 30L21 29L24 29L24 30L23 30L23 31L22 31L22 32L21 32L21 33L24 33L24 32L23 32L23 31L24 31L24 30L25 30L25 28L26 28L26 27L27 27L27 26L28 26L28 25L29 25L29 24L30 24L30 23L28 23L28 25L24 25L24 26L23 26L23 24L21 24L21 23L24 23L24 24L27 24L27 23L25 23L25 21L24 21L24 22L21 22L21 23L20 23L20 22L19 22L19 21L22 21L22 20L23 20L23 19L25 19L25 20L26 20L26 22L28 22L28 21L27 21L27 20L26 20L26 19L27 19L27 18L28 18L28 20L29 20L29 18L28 18L28 17L24 17L24 16L26 16L26 15L27 15L27 14L26 14L26 13L25 13L25 12L26 12L26 10L28 10L28 9L27 9L27 7L28 7L28 6L27 6L27 7L26 7L26 4L24 4L24 5L23 5L23 7L22 7L22 6L21 6L21 7L20 7L20 5L21 5L21 4L22 4L22 3L21 3L21 4L20 4L20 5L18 5L18 4L17 4L17 3ZM27 4L27 5L28 5L28 4ZM8 5L8 7L9 7L9 5ZM15 6L15 7L16 7L16 6ZM24 6L24 7L25 7L25 6ZM21 7L21 8L20 8L20 9L21 9L21 10L20 10L20 12L16 12L16 13L19 13L19 14L20 14L20 12L22 12L22 13L23 13L23 14L24 14L24 13L23 13L23 12L25 12L25 10L26 10L26 8L22 8L22 7ZM21 8L21 9L22 9L22 11L24 11L24 10L23 10L23 9L22 9L22 8ZM31 8L31 9L32 9L32 8ZM33 8L33 9L34 9L34 8ZM8 10L8 12L9 12L9 10ZM35 10L35 11L34 11L34 12L33 12L33 13L34 13L34 12L35 12L35 11L36 11L36 10ZM13 12L13 13L14 13L14 12ZM2 13L2 14L3 14L3 13ZM21 14L21 16L20 16L20 17L19 17L19 18L18 18L18 19L19 19L19 20L17 20L17 21L16 21L16 20L15 20L15 21L14 21L14 20L13 20L13 21L12 21L12 22L13 22L13 21L14 21L14 24L13 24L13 23L12 23L12 25L14 25L14 26L15 26L15 28L16 28L16 29L17 29L17 30L20 30L20 29L21 29L21 28L25 28L25 27L26 27L26 26L24 26L24 27L23 27L23 26L22 26L22 27L19 27L19 26L21 26L21 25L18 25L18 24L17 24L17 21L19 21L19 20L20 20L20 19L21 19L21 20L22 20L22 19L23 19L23 18L24 18L24 17L23 17L23 15L22 15L22 14ZM25 14L25 15L26 15L26 14ZM34 14L34 16L33 16L33 17L34 17L34 16L35 16L35 15L36 15L36 14ZM4 15L4 16L3 16L3 17L1 17L1 18L2 18L2 20L1 20L1 21L2 21L2 20L3 20L3 21L4 21L4 20L3 20L3 19L4 19L4 17L5 17L5 18L7 18L7 19L5 19L5 21L6 21L6 22L7 22L7 23L8 23L8 21L9 21L9 20L11 20L11 19L10 19L10 18L9 18L9 17L8 17L8 16L9 16L9 15L6 15L6 16L5 16L5 15ZM13 15L13 16L14 16L14 15ZM6 16L6 17L7 17L7 16ZM21 16L21 17L20 17L20 18L19 18L19 19L20 19L20 18L23 18L23 17L22 17L22 16ZM8 18L8 19L7 19L7 20L6 20L6 21L8 21L8 19L9 19L9 18ZM33 20L33 21L32 21L32 22L31 22L31 21L30 21L30 22L31 22L31 23L32 23L32 24L33 24L33 25L32 25L32 26L31 26L31 25L30 25L30 26L29 26L29 27L30 27L30 28L32 28L32 27L33 27L33 26L35 26L35 27L34 27L34 28L33 28L33 31L34 31L34 32L33 32L33 33L34 33L34 34L35 34L35 33L34 33L34 32L35 32L35 31L36 31L36 30L35 30L35 29L34 29L34 28L35 28L35 27L36 27L36 26L35 26L35 25L34 25L34 24L33 24L33 23L34 23L34 22L35 22L35 21L34 21L34 20ZM15 21L15 22L16 22L16 21ZM33 21L33 22L34 22L34 21ZM19 23L19 24L20 24L20 23ZM14 24L14 25L15 25L15 26L16 26L16 28L19 28L19 29L20 29L20 28L19 28L19 27L18 27L18 25L17 25L17 24ZM6 26L6 27L7 27L7 26ZM30 26L30 27L31 27L31 26ZM27 28L27 29L26 29L26 30L27 30L27 31L28 31L28 30L27 30L27 29L28 29L28 28ZM29 29L29 32L32 32L32 29ZM30 30L30 31L31 31L31 30ZM25 31L25 32L26 32L26 31ZM8 32L8 37L9 37L9 34L10 34L10 33L11 33L11 32L10 32L10 33L9 33L9 32ZM26 33L26 34L27 34L27 35L28 35L28 34L27 34L27 33ZM31 33L31 34L32 34L32 35L33 35L33 34L32 34L32 33ZM11 34L11 36L10 36L10 37L12 37L12 35L13 35L13 34ZM15 34L15 35L14 35L14 36L16 36L16 37L19 37L19 36L16 36L16 34ZM21 35L21 36L20 36L20 37L21 37L21 36L22 36L22 35ZM0 0L0 7L7 7L7 0ZM1 1L1 6L6 6L6 1ZM2 2L2 5L5 5L5 2ZM30 0L30 7L37 7L37 0ZM31 1L31 6L36 6L36 1ZM32 2L32 5L35 5L35 2ZM0 30L0 37L7 37L7 30ZM1 31L1 36L6 36L6 31ZM2 32L2 35L5 35L5 32Z" fill="#000000"/></g></g></svg>
