<?xml version="1.0" encoding="UTF-8"?>
<svg xmlns="http://www.w3.org/2000/svg" version="1.1" width="100" height="100" viewBox="0 0 100 100"><rect x="0" y="0" width="100" height="100" fill="#ffffff"/><g transform="scale(2.703)"><g transform="translate(0,0)"><path fill-rule="evenodd" d="M10 0L10 1L8 1L8 3L9 3L9 4L8 4L8 8L6 8L6 9L8 9L8 8L9 8L9 5L10 5L10 8L11 8L11 10L10 10L10 9L9 9L9 10L10 10L10 11L11 11L11 12L10 12L10 14L8 14L8 13L9 13L9 12L8 12L8 13L7 13L7 12L5 12L5 11L7 11L7 10L4 10L4 12L3 12L3 11L1 11L1 10L0 10L0 11L1 11L1 12L3 12L3 13L1 13L1 14L3 14L3 16L1 16L1 15L0 15L0 16L1 16L1 17L0 17L0 18L1 18L1 17L2 17L2 18L3 18L3 19L2 19L2 20L1 20L1 21L0 21L0 23L1 23L1 25L3 25L3 26L4 26L4 25L5 25L5 22L6 22L6 23L9 23L9 21L10 21L10 22L12 22L12 21L10 21L10 20L11 20L11 19L12 19L12 20L13 20L13 18L14 18L14 20L15 20L15 17L14 17L14 16L12 16L12 12L14 12L14 13L13 13L13 15L15 15L15 16L16 16L16 17L18 17L18 16L19 16L19 17L20 17L20 20L21 20L21 21L20 21L20 22L19 22L19 18L18 18L18 19L16 19L16 24L17 24L17 25L16 25L16 27L13 27L13 24L12 24L12 25L11 25L11 23L10 23L10 25L7 25L7 24L6 24L6 25L7 25L7 26L5 26L5 27L3 27L3 28L2 28L2 27L1 27L1 26L0 26L0 27L1 27L1 28L0 28L0 29L8 29L8 31L10 31L10 29L9 29L9 28L8 28L8 26L12 26L12 28L11 28L11 29L12 29L12 28L13 28L13 29L15 29L15 28L16 28L16 29L18 29L18 30L17 30L17 31L15 31L15 32L14 32L14 30L13 30L13 32L12 32L12 31L11 31L11 32L10 32L10 34L9 34L9 33L8 33L8 34L9 34L9 35L8 35L8 37L9 37L9 36L10 36L10 37L12 37L12 36L14 36L14 37L15 37L15 36L14 36L14 35L15 35L15 34L14 34L14 33L15 33L15 32L16 32L16 36L17 36L17 37L19 37L19 36L21 36L21 37L26 37L26 35L27 35L27 34L26 34L26 33L27 33L27 32L25 32L25 31L26 31L26 30L27 30L27 31L28 31L28 34L29 34L29 35L28 35L28 36L27 36L27 37L29 37L29 36L30 36L30 37L33 37L33 30L34 30L34 32L35 32L35 33L34 33L34 34L35 34L35 35L37 35L37 34L35 34L35 33L36 33L36 32L35 32L35 31L37 31L37 30L36 30L36 29L37 29L37 28L34 28L34 29L33 29L33 27L34 27L34 26L36 26L36 27L37 27L37 25L36 25L36 24L35 24L35 25L34 25L34 24L32 24L32 22L31 22L31 19L29 19L29 20L28 20L28 19L26 19L26 20L25 20L25 21L24 21L24 20L23 20L23 19L21 19L21 18L22 18L22 17L23 17L23 18L24 18L24 19L25 19L25 16L26 16L26 18L27 18L27 16L28 16L28 15L27 15L27 13L26 13L26 11L27 11L27 12L28 12L28 11L27 11L27 10L25 10L25 9L27 9L27 8L29 8L29 6L28 6L28 4L27 4L27 3L28 3L28 2L29 2L29 1L28 1L28 0L26 0L26 1L27 1L27 2L26 2L26 4L25 4L25 5L24 5L24 0L22 0L22 1L21 1L21 2L20 2L20 3L18 3L18 2L16 2L16 0L14 0L14 1L13 1L13 2L14 2L14 3L15 3L15 5L14 5L14 4L13 4L13 3L12 3L12 7L11 7L11 4L10 4L10 3L9 3L9 2L11 2L11 0ZM18 0L18 1L20 1L20 0ZM14 1L14 2L15 2L15 3L16 3L16 4L17 4L17 5L16 5L16 6L15 6L15 7L16 7L16 6L17 6L17 7L18 7L18 6L19 6L19 8L20 8L20 9L19 9L19 10L18 10L18 11L16 11L16 10L17 10L17 9L18 9L18 8L16 8L16 9L15 9L15 8L14 8L14 5L13 5L13 7L12 7L12 8L14 8L14 9L15 9L15 11L14 11L14 10L13 10L13 11L14 11L14 12L15 12L15 13L14 13L14 14L15 14L15 15L17 15L17 14L18 14L18 15L20 15L20 17L21 17L21 11L20 11L20 12L19 12L19 13L17 13L17 12L18 12L18 11L19 11L19 10L23 10L23 11L24 11L24 8L26 8L26 6L25 6L25 7L24 7L24 5L22 5L22 3L23 3L23 1L22 1L22 2L21 2L21 5L20 5L20 4L19 4L19 5L18 5L18 3L16 3L16 2L15 2L15 1ZM19 5L19 6L20 6L20 8L21 8L21 9L23 9L23 8L24 8L24 7L23 7L23 6L22 6L22 7L21 7L21 6L20 6L20 5ZM27 6L27 7L28 7L28 6ZM0 8L0 9L2 9L2 10L3 10L3 9L4 9L4 8L3 8L3 9L2 9L2 8ZM30 8L30 11L32 11L32 12L29 12L29 13L30 13L30 14L29 14L29 15L30 15L30 17L28 17L28 18L31 18L31 14L32 14L32 12L33 12L33 16L34 16L34 17L32 17L32 21L33 21L33 23L34 23L34 21L36 21L36 22L35 22L35 23L37 23L37 21L36 21L36 20L35 20L35 19L37 19L37 9L36 9L36 8L34 8L34 9L35 9L35 12L36 12L36 17L35 17L35 16L34 16L34 14L35 14L35 13L34 13L34 12L33 12L33 11L34 11L34 10L31 10L31 9L33 9L33 8ZM28 9L28 10L29 10L29 9ZM23 12L23 13L22 13L22 16L24 16L24 15L26 15L26 16L27 16L27 15L26 15L26 13L25 13L25 12ZM4 13L4 14L5 14L5 15L4 15L4 16L3 16L3 18L4 18L4 17L5 17L5 19L3 19L3 21L1 21L1 23L3 23L3 24L4 24L4 23L3 23L3 22L5 22L5 21L4 21L4 20L7 20L7 21L6 21L6 22L8 22L8 19L6 19L6 18L7 18L7 17L8 17L8 16L7 16L7 15L6 15L6 14L7 14L7 13ZM16 13L16 14L17 14L17 13ZM19 13L19 14L20 14L20 13ZM24 13L24 14L23 14L23 15L24 15L24 14L25 14L25 13ZM5 15L5 17L7 17L7 16L6 16L6 15ZM9 15L9 17L10 17L10 19L11 19L11 18L12 18L12 16L11 16L11 15ZM34 17L34 18L33 18L33 21L34 21L34 18L35 18L35 17ZM17 20L17 21L18 21L18 20ZM14 21L14 22L15 22L15 21ZM23 21L23 23L22 23L22 22L21 22L21 23L22 23L22 24L23 24L23 25L22 25L22 26L21 26L21 27L22 27L22 29L21 29L21 30L20 30L20 28L19 28L19 27L20 27L20 26L19 26L19 25L20 25L20 23L19 23L19 22L17 22L17 24L18 24L18 28L19 28L19 30L18 30L18 31L20 31L20 32L19 32L19 33L18 33L18 32L17 32L17 36L18 36L18 35L19 35L19 34L21 34L21 33L20 33L20 32L21 32L21 31L22 31L22 32L23 32L23 35L22 35L22 36L23 36L23 35L26 35L26 34L24 34L24 32L23 32L23 31L25 31L25 30L26 30L26 28L25 28L25 29L24 29L24 30L23 30L23 31L22 31L22 29L23 29L23 28L24 28L24 27L27 27L27 28L30 28L30 27L31 27L31 26L32 26L32 27L33 27L33 25L32 25L32 24L31 24L31 26L29 26L29 25L30 25L30 24L29 24L29 25L27 25L27 24L28 24L28 23L29 23L29 21L27 21L27 23L26 23L26 22L25 22L25 23L24 23L24 21ZM30 22L30 23L31 23L31 22ZM14 23L14 24L15 24L15 23ZM25 23L25 25L24 25L24 26L23 26L23 27L24 27L24 26L25 26L25 25L26 25L26 23ZM5 27L5 28L7 28L7 27ZM16 27L16 28L17 28L17 27ZM29 29L29 32L32 32L32 29ZM30 30L30 31L31 31L31 30ZM13 32L13 33L14 33L14 32ZM29 33L29 34L30 34L30 36L32 36L32 33ZM10 34L10 35L11 35L11 34ZM35 36L35 37L37 37L37 36ZM0 0L0 7L7 7L7 0ZM1 1L1 6L6 6L6 1ZM2 2L2 5L5 5L5 2ZM30 0L30 7L37 7L37 0ZM31 1L31 6L36 6L36 1ZM32 2L32 5L35 5L35 2ZM0 30L0 37L7 37L7 30ZM1 31L1 36L6 36L6 31ZM2 32L2 35L5 35L5 32Z" fill="#000000"/></g></g></svg>
