<?xml version="1.0" encoding="UTF-8"?>
<svg xmlns="http://www.w3.org/2000/svg" version="1.1" width="100" height="100" viewBox="0 0 100 100"><rect x="0" y="0" width="100" height="100" fill="#ffffff"/><g transform="scale(2.703)"><g transform="translate(0,0)"><path fill-rule="evenodd" d="M10 0L10 2L11 2L11 0ZM12 0L12 1L13 1L13 2L12 2L12 4L13 4L13 3L14 3L14 4L15 4L15 5L17 5L17 6L16 6L16 9L12 9L12 7L13 7L13 5L11 5L11 6L10 6L10 4L11 4L11 3L8 3L8 4L9 4L9 5L8 5L8 7L9 7L9 8L6 8L6 9L8 9L8 10L5 10L5 8L0 8L0 12L1 12L1 13L0 13L0 15L2 15L2 13L3 13L3 14L4 14L4 13L5 13L5 15L4 15L4 16L6 16L6 17L7 17L7 16L9 16L9 15L10 15L10 14L11 14L11 17L10 17L10 18L9 18L9 17L8 17L8 18L5 18L5 17L3 17L3 16L1 16L1 18L2 18L2 17L3 17L3 19L2 19L2 20L0 20L0 22L1 22L1 21L2 21L2 24L0 24L0 29L1 29L1 26L3 26L3 27L5 27L5 26L4 26L4 25L5 25L5 23L4 23L4 22L5 22L5 21L9 21L9 19L10 19L10 22L9 22L9 23L11 23L11 24L9 24L9 27L11 27L11 26L10 26L10 25L12 25L12 26L13 26L13 27L12 27L12 29L13 29L13 28L14 28L14 29L16 29L16 30L15 30L15 31L14 31L14 32L15 32L15 33L12 33L12 31L13 31L13 30L10 30L10 28L8 28L8 31L9 31L9 32L8 32L8 37L9 37L9 35L11 35L11 33L12 33L12 34L13 34L13 35L12 35L12 37L13 37L13 36L14 36L14 37L16 37L16 36L17 36L17 37L18 37L18 36L17 36L17 35L19 35L19 36L20 36L20 35L21 35L21 36L22 36L22 37L23 37L23 36L22 36L22 35L23 35L23 34L24 34L24 33L21 33L21 32L25 32L25 33L29 33L29 34L31 34L31 33L32 33L32 34L33 34L33 35L30 35L30 36L29 36L29 35L28 35L28 34L26 34L26 35L27 35L27 36L24 36L24 37L27 37L27 36L29 36L29 37L37 37L37 30L34 30L34 29L35 29L35 28L36 28L36 29L37 29L37 26L35 26L35 28L34 28L34 29L33 29L33 27L34 27L34 25L35 25L35 24L34 24L34 25L33 25L33 24L32 24L32 23L31 23L31 22L32 22L32 21L33 21L33 20L31 20L31 19L34 19L34 18L32 18L32 17L33 17L33 15L34 15L34 14L35 14L35 16L34 16L34 17L37 17L37 14L35 14L35 13L37 13L37 9L36 9L36 8L35 8L35 9L34 9L34 8L33 8L33 10L32 10L32 11L30 11L30 10L26 10L26 8L27 8L27 6L28 6L28 8L29 8L29 9L30 9L30 8L29 8L29 6L28 6L28 5L29 5L29 4L28 4L28 3L27 3L27 2L29 2L29 0L28 0L28 1L26 1L26 0L25 0L25 1L24 1L24 0L23 0L23 1L24 1L24 2L22 2L22 0L18 0L18 2L19 2L19 1L20 1L20 3L17 3L17 4L16 4L16 2L17 2L17 1L16 1L16 0ZM8 1L8 2L9 2L9 1ZM14 2L14 3L15 3L15 2ZM25 2L25 3L20 3L20 5L19 5L19 4L17 4L17 5L19 5L19 9L16 9L16 10L17 10L17 11L16 11L16 13L17 13L17 14L15 14L15 13L14 13L14 12L15 12L15 11L14 11L14 12L13 12L13 13L12 13L12 11L13 11L13 10L12 10L12 9L11 9L11 8L10 8L10 9L9 9L9 10L8 10L8 11L9 11L9 10L10 10L10 11L11 11L11 14L13 14L13 15L12 15L12 17L11 17L11 22L13 22L13 23L12 23L12 25L16 25L16 27L17 27L17 28L16 28L16 29L17 29L17 30L16 30L16 31L15 31L15 32L16 32L16 33L15 33L15 34L16 34L16 35L14 35L14 36L16 36L16 35L17 35L17 34L19 34L19 35L20 35L20 34L21 34L21 33L20 33L20 34L19 34L19 33L17 33L17 32L21 32L21 30L23 30L23 31L24 31L24 30L23 30L23 27L24 27L24 28L27 28L27 29L26 29L26 30L25 30L25 32L26 32L26 31L27 31L27 32L28 32L28 30L27 30L27 29L28 29L28 28L31 28L31 25L30 25L30 22L31 22L31 21L30 21L30 22L29 22L29 20L30 20L30 18L31 18L31 17L32 17L32 15L31 15L31 17L30 17L30 18L29 18L29 20L27 20L27 18L28 18L28 17L27 17L27 18L26 18L26 17L25 17L25 16L29 16L29 15L30 15L30 14L31 14L31 13L32 13L32 14L33 14L33 13L32 13L32 12L31 12L31 13L29 13L29 11L28 11L28 13L27 13L27 14L26 14L26 13L25 13L25 12L26 12L26 11L25 11L25 12L24 12L24 10L23 10L23 9L25 9L25 8L26 8L26 5L28 5L28 4L26 4L26 5L25 5L25 8L23 8L23 7L24 7L24 5L22 5L22 4L25 4L25 3L26 3L26 2ZM21 5L21 6L20 6L20 8L22 8L22 7L23 7L23 6L22 6L22 5ZM9 6L9 7L10 7L10 6ZM11 6L11 7L12 7L12 6ZM14 6L14 8L15 8L15 6ZM17 6L17 8L18 8L18 6ZM21 6L21 7L22 7L22 6ZM31 8L31 9L32 9L32 8ZM1 9L1 12L3 12L3 13L4 13L4 12L5 12L5 13L6 13L6 14L7 14L7 13L6 13L6 12L7 12L7 11L5 11L5 10L4 10L4 12L3 12L3 10L2 10L2 9ZM10 9L10 10L11 10L11 9ZM19 9L19 10L20 10L20 11L21 11L21 12L17 12L17 13L19 13L19 14L20 14L20 13L21 13L21 15L20 15L20 16L22 16L22 15L23 15L23 16L24 16L24 15L25 15L25 13L21 13L21 12L23 12L23 10L21 10L21 9ZM35 9L35 11L33 11L33 12L36 12L36 9ZM8 13L8 14L10 14L10 13ZM28 13L28 14L27 14L27 15L29 15L29 13ZM17 14L17 15L16 15L16 17L12 17L12 18L13 18L13 19L12 19L12 21L13 21L13 20L14 20L14 21L15 21L15 22L17 22L17 21L18 21L18 22L20 22L20 24L19 24L19 23L18 23L18 24L17 24L17 23L16 23L16 24L17 24L17 25L19 25L19 26L20 26L20 27L21 27L21 28L20 28L20 29L18 29L18 28L19 28L19 27L18 27L18 26L17 26L17 27L18 27L18 28L17 28L17 29L18 29L18 31L19 31L19 30L20 30L20 29L21 29L21 28L22 28L22 27L21 27L21 26L25 26L25 27L27 27L27 28L28 28L28 27L30 27L30 26L29 26L29 23L28 23L28 22L26 22L26 21L27 21L27 20L25 20L25 21L23 21L23 20L24 20L24 19L26 19L26 18L25 18L25 17L22 17L22 18L21 18L21 17L18 17L18 16L19 16L19 15L18 15L18 14ZM23 14L23 15L24 15L24 14ZM6 15L6 16L7 16L7 15ZM14 15L14 16L15 16L15 15ZM17 15L17 16L18 16L18 15ZM16 17L16 18L17 18L17 19L16 19L16 21L17 21L17 20L18 20L18 21L19 21L19 20L21 20L21 21L20 21L20 22L21 22L21 23L23 23L23 24L20 24L20 26L21 26L21 25L25 25L25 26L26 26L26 25L25 25L25 24L26 24L26 23L24 23L24 22L23 22L23 21L22 21L22 20L21 20L21 19L20 19L20 18L18 18L18 17ZM4 18L4 20L5 20L5 18ZM22 18L22 19L24 19L24 18ZM35 18L35 20L34 20L34 21L36 21L36 20L37 20L37 18ZM6 19L6 20L7 20L7 19ZM14 19L14 20L15 20L15 19ZM21 21L21 22L22 22L22 21ZM6 22L6 23L7 23L7 22ZM33 22L33 23L34 23L34 22ZM35 22L35 23L36 23L36 24L37 24L37 22ZM14 23L14 24L15 24L15 23ZM2 24L2 25L4 25L4 24ZM6 24L6 25L7 25L7 26L6 26L6 27L8 27L8 24ZM27 25L27 26L28 26L28 25ZM32 25L32 26L33 26L33 25ZM14 27L14 28L15 28L15 27ZM2 28L2 29L3 29L3 28ZM5 28L5 29L7 29L7 28ZM29 29L29 32L32 32L32 29ZM9 30L9 31L10 31L10 32L11 32L11 31L10 31L10 30ZM30 30L30 31L31 31L31 30ZM33 30L33 31L34 31L34 32L33 32L33 33L34 33L34 32L35 32L35 33L36 33L36 31L34 31L34 30ZM9 33L9 34L10 34L10 33ZM16 33L16 34L17 34L17 33ZM34 35L34 36L36 36L36 35ZM0 0L0 7L7 7L7 0ZM1 1L1 6L6 6L6 1ZM2 2L2 5L5 5L5 2ZM30 0L30 7L37 7L37 0ZM31 1L31 6L36 6L36 1ZM32 2L32 5L35 5L35 2ZM0 30L0 37L7 37L7 30ZM1 31L1 36L6 36L6 31ZM2 32L2 35L5 35L5 32Z" fill="#000000"/></g></g></svg>
