<?xml version="1.0" encoding="UTF-8"?>
<svg xmlns="http://www.w3.org/2000/svg" version="1.1" width="100" height="100" viewBox="0 0 100 100"><rect x="0" y="0" width="100" height="100" fill="#ffffff"/><g transform="scale(2.703)"><g transform="translate(0,0)"><path fill-rule="evenodd" d="M8 0L8 4L10 4L10 3L11 3L11 4L12 4L12 2L11 2L11 0ZM12 0L12 1L13 1L13 0ZM14 0L14 1L15 1L15 0ZM17 0L17 1L19 1L19 2L17 2L17 3L20 3L20 1L21 1L21 0L20 0L20 1L19 1L19 0ZM22 0L22 2L21 2L21 3L23 3L23 1L25 1L25 2L24 2L24 3L25 3L25 4L23 4L23 5L24 5L24 7L25 7L25 6L26 6L26 8L29 8L29 0L27 0L27 1L28 1L28 2L27 2L27 3L28 3L28 4L26 4L26 3L25 3L25 2L26 2L26 0ZM9 2L9 3L10 3L10 2ZM13 2L13 3L14 3L14 4L13 4L13 5L11 5L11 6L10 6L10 7L9 7L9 5L8 5L8 7L9 7L9 8L10 8L10 7L11 7L11 6L12 6L12 8L11 8L11 9L10 9L10 10L9 10L9 9L7 9L7 8L4 8L4 9L2 9L2 8L0 8L0 10L1 10L1 12L2 12L2 14L0 14L0 19L1 19L1 15L2 15L2 14L4 14L4 15L3 15L3 18L2 18L2 20L0 20L0 24L1 24L1 25L0 25L0 26L2 26L2 28L0 28L0 29L2 29L2 28L3 28L3 27L4 27L4 26L5 26L5 28L4 28L4 29L5 29L5 28L6 28L6 29L7 29L7 28L9 28L9 27L10 27L10 28L12 28L12 29L13 29L13 30L15 30L15 31L14 31L14 32L13 32L13 31L12 31L12 32L11 32L11 33L12 33L12 34L11 34L11 35L10 35L10 32L9 32L9 31L10 31L10 29L8 29L8 30L9 30L9 31L8 31L8 33L9 33L9 35L8 35L8 37L9 37L9 35L10 35L10 37L11 37L11 36L12 36L12 37L14 37L14 35L15 35L15 37L20 37L20 35L19 35L19 36L18 36L18 33L20 33L20 34L21 34L21 37L22 37L22 32L23 32L23 31L24 31L24 29L25 29L25 27L26 27L26 28L28 28L28 33L27 33L27 29L26 29L26 34L25 34L25 35L26 35L26 36L28 36L28 35L27 35L27 34L28 34L28 33L29 33L29 35L30 35L30 36L31 36L31 37L32 37L32 36L35 36L35 37L37 37L37 36L36 36L36 35L35 35L35 34L37 34L37 31L34 31L34 33L33 33L33 27L32 27L32 28L31 28L31 26L29 26L29 25L31 25L31 24L32 24L32 23L30 23L30 21L31 21L31 20L32 20L32 19L31 19L31 20L30 20L30 19L29 19L29 18L30 18L30 17L31 17L31 14L36 14L36 13L37 13L37 11L36 11L36 10L33 10L33 9L37 9L37 8L33 8L33 9L32 9L32 8L31 8L31 10L30 10L30 13L31 13L31 14L30 14L30 16L29 16L29 18L28 18L28 16L27 16L27 15L29 15L29 13L25 13L25 11L26 11L26 12L29 12L29 11L28 11L28 10L29 10L29 9L27 9L27 11L26 11L26 9L25 9L25 10L24 10L24 9L23 9L23 6L22 6L22 5L21 5L21 6L20 6L20 5L18 5L18 4L17 4L17 5L16 5L16 3L14 3L14 2ZM25 4L25 5L26 5L26 6L27 6L27 7L28 7L28 5L26 5L26 4ZM15 5L15 7L16 7L16 8L15 8L15 9L13 9L13 8L14 8L14 6L13 6L13 8L12 8L12 9L11 9L11 10L10 10L10 12L9 12L9 11L8 11L8 10L7 10L7 9L4 9L4 10L7 10L7 11L6 11L6 12L4 12L4 11L3 11L3 10L2 10L2 9L1 9L1 10L2 10L2 12L4 12L4 14L5 14L5 16L4 16L4 18L3 18L3 19L5 19L5 20L4 20L4 21L3 21L3 20L2 20L2 21L3 21L3 22L2 22L2 23L1 23L1 24L2 24L2 23L3 23L3 25L2 25L2 26L3 26L3 25L4 25L4 24L5 24L5 22L7 22L7 23L6 23L6 24L7 24L7 25L5 25L5 26L7 26L7 27L6 27L6 28L7 28L7 27L8 27L8 26L9 26L9 25L10 25L10 26L12 26L12 25L13 25L13 26L15 26L15 25L13 25L13 24L14 24L14 23L15 23L15 22L13 22L13 21L12 21L12 20L13 20L13 19L12 19L12 20L10 20L10 22L9 22L9 21L8 21L8 20L9 20L9 19L8 19L8 17L10 17L10 19L11 19L11 18L12 18L12 17L13 17L13 18L15 18L15 17L17 17L17 19L16 19L16 20L15 20L15 19L14 19L14 21L17 21L17 19L19 19L19 23L20 23L20 24L21 24L21 22L22 22L22 24L23 24L23 25L19 25L19 24L18 24L18 25L16 25L16 27L14 27L14 29L16 29L16 32L15 32L15 33L13 33L13 32L12 32L12 33L13 33L13 34L15 34L15 33L17 33L17 30L18 30L18 31L20 31L20 33L21 33L21 31L20 31L20 30L22 30L22 31L23 31L23 30L22 30L22 29L23 29L23 28L24 28L24 27L22 27L22 29L16 29L16 28L17 28L17 26L18 26L18 25L19 25L19 27L21 27L21 26L23 26L23 25L24 25L24 26L26 26L26 25L28 25L28 24L26 24L26 23L27 23L27 22L26 22L26 23L25 23L25 21L28 21L28 20L27 20L27 19L24 19L24 20L25 20L25 21L24 21L24 23L23 23L23 21L21 21L21 22L20 22L20 17L21 17L21 18L22 18L22 19L23 19L23 17L24 17L24 18L26 18L26 15L27 15L27 14L25 14L25 13L24 13L24 12L23 12L23 11L22 11L22 10L23 10L23 9L17 9L17 7L18 7L18 8L19 8L19 7L20 7L20 8L21 8L21 7L22 7L22 6L21 6L21 7L20 7L20 6L19 6L19 7L18 7L18 5L17 5L17 7L16 7L16 5ZM12 9L12 10L11 10L11 12L12 12L12 13L13 13L13 14L15 14L15 15L14 15L14 16L13 16L13 15L12 15L12 16L11 16L11 15L10 15L10 14L9 14L9 12L8 12L8 11L7 11L7 12L6 12L6 13L8 13L8 14L9 14L9 16L11 16L11 17L12 17L12 16L13 16L13 17L15 17L15 15L16 15L16 16L17 16L17 17L18 17L18 18L19 18L19 17L20 17L20 16L21 16L21 17L23 17L23 16L24 16L24 17L25 17L25 15L24 15L24 13L22 13L22 11L21 11L21 13L20 13L20 11L19 11L19 10L17 10L17 9L15 9L15 10L13 10L13 9ZM16 10L16 11L17 11L17 10ZM31 10L31 13L34 13L34 11L33 11L33 12L32 12L32 10ZM12 11L12 12L13 12L13 11ZM14 11L14 13L15 13L15 11ZM35 12L35 13L36 13L36 12ZM16 13L16 15L17 15L17 14L18 14L18 17L19 17L19 16L20 16L20 15L21 15L21 14L22 14L22 13L21 13L21 14L20 14L20 13ZM6 14L6 15L7 15L7 14ZM34 15L34 17L32 17L32 18L33 18L33 19L34 19L34 21L32 21L32 22L33 22L33 23L34 23L34 29L35 29L35 30L36 30L36 29L37 29L37 27L36 27L36 29L35 29L35 23L34 23L34 21L35 21L35 20L36 20L36 21L37 21L37 19L34 19L34 17L37 17L37 16L35 16L35 15ZM6 16L6 17L7 17L7 16ZM5 18L5 19L7 19L7 20L5 20L5 21L4 21L4 22L5 22L5 21L7 21L7 22L8 22L8 25L9 25L9 22L8 22L8 21L7 21L7 20L8 20L8 19L7 19L7 18ZM10 23L10 24L11 24L11 25L12 25L12 24L13 24L13 23L12 23L12 24L11 24L11 23ZM24 23L24 24L25 24L25 23ZM29 23L29 24L30 24L30 23ZM36 24L36 25L37 25L37 24ZM32 25L32 26L33 26L33 25ZM28 26L28 27L29 27L29 28L30 28L30 27L29 27L29 26ZM12 27L12 28L13 28L13 27ZM29 29L29 32L32 32L32 29ZM30 30L30 31L31 31L31 30ZM23 33L23 36L24 36L24 33ZM32 33L32 35L31 35L31 36L32 36L32 35L34 35L34 34L35 34L35 33L34 33L34 34L33 34L33 33ZM12 35L12 36L13 36L13 35ZM0 0L0 7L7 7L7 0ZM1 1L1 6L6 6L6 1ZM2 2L2 5L5 5L5 2ZM30 0L30 7L37 7L37 0ZM31 1L31 6L36 6L36 1ZM32 2L32 5L35 5L35 2ZM0 30L0 37L7 37L7 30ZM1 31L1 36L6 36L6 31ZM2 32L2 35L5 35L5 32Z" fill="#000000"/></g></g></svg>
