<?xml version="1.0" encoding="UTF-8"?>
<svg xmlns="http://www.w3.org/2000/svg" version="1.1" width="100" height="100" viewBox="0 0 100 100"><rect x="0" y="0" width="100" height="100" fill="#ffffff"/><g transform="scale(2.703)"><g transform="translate(0,0)"><path fill-rule="evenodd" d="M10 0L10 2L11 2L11 0ZM12 0L12 1L13 1L13 2L12 2L12 4L13 4L13 3L14 3L14 4L15 4L15 5L17 5L17 4L18 4L18 5L20 5L20 7L19 7L19 6L18 6L18 7L19 7L19 8L17 8L17 6L16 6L16 9L12 9L12 7L13 7L13 5L11 5L11 6L10 6L10 4L11 4L11 3L8 3L8 4L9 4L9 5L8 5L8 7L9 7L9 8L6 8L6 9L10 9L10 11L8 11L8 10L6 10L6 11L8 11L8 12L10 12L10 14L11 14L11 16L10 16L10 17L12 17L12 18L13 18L13 19L12 19L12 21L13 21L13 20L14 20L14 21L15 21L15 22L17 22L17 21L18 21L18 23L19 23L19 22L20 22L20 24L17 24L17 23L16 23L16 24L17 24L17 26L16 26L16 25L12 25L12 23L13 23L13 22L9 22L9 20L6 20L6 19L7 19L7 18L8 18L8 19L9 19L9 16L8 16L8 17L7 17L7 16L6 16L6 17L7 17L7 18L5 18L5 16L4 16L4 15L2 15L2 14L3 14L3 13L4 13L4 14L6 14L6 15L9 15L9 14L8 14L8 13L7 13L7 12L6 12L6 13L4 13L4 11L3 11L3 10L2 10L2 12L1 12L1 13L0 13L0 14L1 14L1 15L0 15L0 18L1 18L1 19L2 19L2 20L3 20L3 22L2 22L2 21L0 21L0 22L1 22L1 25L0 25L0 29L1 29L1 26L2 26L2 23L3 23L3 24L4 24L4 25L3 25L3 26L4 26L4 27L3 27L3 29L4 29L4 27L7 27L7 28L6 28L6 29L7 29L7 28L8 28L8 31L9 31L9 32L8 32L8 37L9 37L9 35L11 35L11 34L9 34L9 32L10 32L10 33L12 33L12 34L13 34L13 35L12 35L12 37L13 37L13 36L14 36L14 37L16 37L16 36L17 36L17 37L18 37L18 36L19 36L19 35L18 35L18 34L21 34L21 35L20 35L20 37L21 37L21 36L22 36L22 35L23 35L23 34L24 34L24 33L18 33L18 32L16 32L16 31L19 31L19 30L21 30L21 31L20 31L20 32L25 32L25 33L29 33L29 34L31 34L31 33L32 33L32 34L33 34L33 35L30 35L30 36L29 36L29 35L28 35L28 34L26 34L26 35L27 35L27 36L24 36L24 37L27 37L27 36L29 36L29 37L37 37L37 30L34 30L34 29L35 29L35 28L36 28L36 29L37 29L37 26L35 26L35 28L34 28L34 29L33 29L33 27L34 27L34 25L35 25L35 24L34 24L34 25L33 25L33 24L32 24L32 23L31 23L31 22L32 22L32 21L33 21L33 20L31 20L31 19L34 19L34 18L32 18L32 17L33 17L33 15L34 15L34 14L35 14L35 16L34 16L34 17L37 17L37 14L35 14L35 13L37 13L37 9L36 9L36 8L35 8L35 9L34 9L34 8L33 8L33 10L32 10L32 11L30 11L30 10L26 10L26 8L27 8L27 6L28 6L28 8L29 8L29 9L30 9L30 8L29 8L29 6L28 6L28 5L29 5L29 4L28 4L28 3L27 3L27 2L29 2L29 0L28 0L28 1L26 1L26 0L25 0L25 2L26 2L26 3L25 3L25 4L21 4L21 5L20 5L20 3L22 3L22 2L23 2L23 3L24 3L24 2L23 2L23 1L24 1L24 0L23 0L23 1L22 1L22 0L21 0L21 1L20 1L20 0L19 0L19 1L20 1L20 3L19 3L19 2L18 2L18 3L17 3L17 4L16 4L16 2L17 2L17 1L16 1L16 0ZM8 1L8 2L9 2L9 1ZM14 2L14 3L15 3L15 2ZM18 3L18 4L19 4L19 3ZM26 4L26 5L25 5L25 8L24 8L24 5L21 5L21 7L20 7L20 8L19 8L19 9L16 9L16 10L18 10L18 11L16 11L16 13L17 13L17 14L15 14L15 13L14 13L14 12L15 12L15 11L14 11L14 12L13 12L13 13L12 13L12 11L13 11L13 10L12 10L12 9L11 9L11 8L10 8L10 9L11 9L11 11L10 11L10 12L11 12L11 14L13 14L13 15L12 15L12 17L16 17L16 18L17 18L17 19L16 19L16 21L17 21L17 20L18 20L18 21L19 21L19 20L21 20L21 21L20 21L20 22L21 22L21 21L25 21L25 20L27 20L27 21L26 21L26 22L28 22L28 23L29 23L29 26L30 26L30 27L28 27L28 28L27 28L27 27L25 27L25 26L26 26L26 25L25 25L25 24L26 24L26 23L24 23L24 22L22 22L22 24L20 24L20 26L19 26L19 25L18 25L18 26L17 26L17 28L16 28L16 29L14 29L14 28L15 28L15 27L14 27L14 28L13 28L13 29L12 29L12 27L13 27L13 26L12 26L12 25L11 25L11 24L10 24L10 23L9 23L9 22L8 22L8 21L6 21L6 20L5 20L5 19L4 19L4 16L3 16L3 18L2 18L2 19L4 19L4 21L6 21L6 22L3 22L3 23L5 23L5 26L7 26L7 25L6 25L6 24L8 24L8 26L9 26L9 25L10 25L10 27L11 27L11 30L13 30L13 31L12 31L12 33L15 33L15 34L16 34L16 35L14 35L14 36L16 36L16 35L17 35L17 36L18 36L18 35L17 35L17 34L18 34L18 33L15 33L15 32L14 32L14 31L15 31L15 30L16 30L16 29L17 29L17 30L19 30L19 29L21 29L21 30L23 30L23 31L24 31L24 30L23 30L23 28L21 28L21 27L24 27L24 28L27 28L27 29L26 29L26 30L25 30L25 32L26 32L26 31L27 31L27 32L28 32L28 30L27 30L27 29L28 29L28 28L31 28L31 25L30 25L30 22L31 22L31 21L30 21L30 22L29 22L29 20L30 20L30 18L31 18L31 17L32 17L32 15L31 15L31 17L30 17L30 18L29 18L29 20L27 20L27 18L28 18L28 17L27 17L27 18L26 18L26 17L24 17L24 16L23 16L23 15L24 15L24 14L21 14L21 13L25 13L25 16L29 16L29 15L30 15L30 14L31 14L31 13L32 13L32 14L33 14L33 13L32 13L32 12L31 12L31 13L29 13L29 11L28 11L28 13L27 13L27 14L26 14L26 13L25 13L25 12L26 12L26 11L25 11L25 10L23 10L23 9L25 9L25 8L26 8L26 5L28 5L28 4ZM9 6L9 7L10 7L10 6ZM11 6L11 7L12 7L12 6ZM14 6L14 8L15 8L15 6ZM22 6L22 7L21 7L21 8L22 8L22 7L23 7L23 6ZM0 8L0 11L1 11L1 9L5 9L5 8ZM31 8L31 9L32 9L32 8ZM19 9L19 10L20 10L20 13L19 13L19 12L17 12L17 13L19 13L19 14L18 14L18 16L17 16L17 15L16 15L16 17L19 17L19 18L20 18L20 19L21 19L21 20L24 20L24 19L23 19L23 18L24 18L24 17L23 17L23 16L22 16L22 15L21 15L21 16L19 16L19 14L20 14L20 13L21 13L21 12L23 12L23 10L21 10L21 9ZM35 9L35 11L33 11L33 12L36 12L36 9ZM24 11L24 12L25 12L25 11ZM6 13L6 14L7 14L7 13ZM28 13L28 14L27 14L27 15L29 15L29 13ZM14 15L14 16L15 16L15 15ZM21 16L21 17L20 17L20 18L21 18L21 17L22 17L22 18L23 18L23 17L22 17L22 16ZM25 18L25 19L26 19L26 18ZM35 18L35 20L34 20L34 21L36 21L36 20L37 20L37 18ZM14 19L14 20L15 20L15 19ZM18 19L18 20L19 20L19 19ZM6 22L6 23L7 23L7 22ZM33 22L33 23L34 23L34 22ZM35 22L35 23L36 23L36 24L37 24L37 22ZM14 23L14 24L15 24L15 23ZM23 23L23 24L22 24L22 25L21 25L21 26L22 26L22 25L23 25L23 26L25 26L25 25L23 25L23 24L24 24L24 23ZM27 25L27 26L28 26L28 25ZM32 25L32 26L33 26L33 25ZM18 26L18 27L19 27L19 28L17 28L17 29L19 29L19 28L20 28L20 27L19 27L19 26ZM8 27L8 28L9 28L9 31L10 31L10 28L9 28L9 27ZM29 29L29 32L32 32L32 29ZM30 30L30 31L31 31L31 30ZM33 30L33 31L34 31L34 32L33 32L33 33L34 33L34 32L35 32L35 33L36 33L36 31L34 31L34 30ZM34 35L34 36L36 36L36 35ZM0 0L0 7L7 7L7 0ZM1 1L1 6L6 6L6 1ZM2 2L2 5L5 5L5 2ZM30 0L30 7L37 7L37 0ZM31 1L31 6L36 6L36 1ZM32 2L32 5L35 5L35 2ZM0 30L0 37L7 37L7 30ZM1 31L1 36L6 36L6 31ZM2 32L2 35L5 35L5 32Z" fill="#000000"/></g></g></svg>
