<?xml version="1.0" encoding="UTF-8"?>
<svg xmlns="http://www.w3.org/2000/svg" version="1.1" width="100" height="100" viewBox="0 0 100 100"><rect x="0" y="0" width="100" height="100" fill="#ffffff"/><g transform="scale(2.703)"><g transform="translate(0,0)"><path fill-rule="evenodd" d="M9 0L9 1L8 1L8 2L9 2L9 3L8 3L8 4L10 4L10 7L11 7L11 4L12 4L12 5L13 5L13 4L14 4L14 8L13 8L13 6L12 6L12 9L14 9L14 11L16 11L16 10L20 10L20 12L17 12L17 13L16 13L16 12L15 12L15 13L14 13L14 12L13 12L13 13L12 13L12 11L13 11L13 10L9 10L9 9L11 9L11 8L6 8L6 9L5 9L5 8L0 8L0 9L1 9L1 10L0 10L0 11L2 11L2 9L4 9L4 10L5 10L5 11L7 11L7 10L6 10L6 9L8 9L8 10L9 10L9 11L10 11L10 12L9 12L9 13L7 13L7 12L6 12L6 13L5 13L5 12L4 12L4 13L3 13L3 12L2 12L2 16L1 16L1 17L2 17L2 18L0 18L0 19L1 19L1 20L0 20L0 22L1 22L1 23L0 23L0 29L1 29L1 26L2 26L2 27L4 27L4 29L5 29L5 26L4 26L4 25L5 25L5 24L3 24L3 23L2 23L2 22L3 22L3 20L4 20L4 22L5 22L5 20L6 20L6 21L7 21L7 22L6 22L6 23L8 23L8 24L9 24L9 25L7 25L7 24L6 24L6 25L7 25L7 26L6 26L6 27L7 27L7 28L6 28L6 29L7 29L7 28L8 28L8 27L9 27L9 28L10 28L10 27L11 27L11 29L10 29L10 30L9 30L9 29L8 29L8 31L9 31L9 32L8 32L8 37L9 37L9 36L10 36L10 34L9 34L9 33L10 33L10 32L11 32L11 29L12 29L12 30L13 30L13 31L12 31L12 33L13 33L13 32L14 32L14 33L17 33L17 34L15 34L15 35L14 35L14 36L15 36L15 37L16 37L16 35L17 35L17 34L18 34L18 35L19 35L19 34L21 34L21 36L19 36L19 37L21 37L21 36L23 36L23 37L26 37L26 36L29 36L29 37L30 37L30 36L29 36L29 34L31 34L31 35L32 35L32 37L34 37L34 34L35 34L35 35L36 35L36 36L35 36L35 37L37 37L37 33L36 33L36 32L37 32L37 30L36 30L36 29L35 29L35 28L37 28L37 26L36 26L36 25L37 25L37 24L34 24L34 22L33 22L33 24L32 24L32 23L31 23L31 22L32 22L32 21L33 21L33 20L34 20L34 21L35 21L35 22L36 22L36 23L37 23L37 22L36 22L36 21L37 21L37 20L34 20L34 19L35 19L35 18L36 18L36 19L37 19L37 18L36 18L36 17L37 17L37 14L36 14L36 13L37 13L37 10L36 10L36 8L35 8L35 10L34 10L34 8L33 8L33 10L31 10L31 11L33 11L33 12L30 12L30 13L31 13L31 14L32 14L32 13L33 13L33 14L34 14L34 13L35 13L35 14L36 14L36 15L35 15L35 16L34 16L34 15L33 15L33 16L30 16L30 14L29 14L29 16L28 16L28 14L27 14L27 11L28 11L28 12L29 12L29 11L28 11L28 10L30 10L30 8L29 8L29 9L28 9L28 7L29 7L29 4L28 4L28 2L29 2L29 0L28 0L28 1L27 1L27 2L26 2L26 3L24 3L24 4L23 4L23 1L24 1L24 2L25 2L25 1L26 1L26 0L25 0L25 1L24 1L24 0L23 0L23 1L22 1L22 0L18 0L18 1L17 1L17 2L18 2L18 3L17 3L17 4L16 4L16 3L15 3L15 4L14 4L14 3L13 3L13 4L12 4L12 2L13 2L13 1L11 1L11 2L10 2L10 0ZM14 0L14 2L16 2L16 1L15 1L15 0ZM19 1L19 3L18 3L18 4L17 4L17 7L16 7L16 6L15 6L15 7L16 7L16 9L15 9L15 8L14 8L14 9L15 9L15 10L16 10L16 9L17 9L17 8L18 8L18 6L19 6L19 9L20 9L20 10L21 10L21 9L22 9L22 11L24 11L24 10L23 10L23 9L22 9L22 8L26 8L26 10L25 10L25 12L23 12L23 13L22 13L22 12L20 12L20 14L19 14L19 13L17 13L17 15L15 15L15 14L16 14L16 13L15 13L15 14L12 14L12 13L11 13L11 12L10 12L10 13L11 13L11 15L10 15L10 16L9 16L9 18L13 18L13 19L12 19L12 21L11 21L11 23L10 23L10 22L8 22L8 23L10 23L10 24L11 24L11 26L17 26L17 27L16 27L16 28L18 28L18 27L22 27L22 26L23 26L23 27L24 27L24 26L26 26L26 27L25 27L25 28L23 28L23 29L22 29L22 28L21 28L21 29L20 29L20 28L19 28L19 29L20 29L20 30L17 30L17 29L15 29L15 27L12 27L12 29L14 29L14 30L16 30L16 31L17 31L17 32L19 32L19 33L18 33L18 34L19 34L19 33L21 33L21 34L22 34L22 35L24 35L24 36L26 36L26 34L27 34L27 35L28 35L28 34L27 34L27 33L26 33L26 34L25 34L25 33L24 33L24 32L21 32L21 29L22 29L22 31L24 31L24 30L25 30L25 28L26 28L26 27L27 27L27 26L28 26L28 25L29 25L29 24L30 24L30 23L28 23L28 25L24 25L24 26L23 26L23 24L21 24L21 23L24 23L24 24L27 24L27 23L25 23L25 21L24 21L24 22L21 22L21 21L22 21L22 20L23 20L23 19L25 19L25 20L26 20L26 22L28 22L28 21L27 21L27 20L26 20L26 19L27 19L27 18L28 18L28 20L29 20L29 18L30 18L30 20L31 20L31 19L32 19L32 20L33 20L33 19L34 19L34 18L35 18L35 17L34 17L34 16L33 16L33 17L32 17L32 18L31 18L31 17L30 17L30 16L29 16L29 18L28 18L28 17L24 17L24 16L26 16L26 15L27 15L27 14L26 14L26 13L25 13L25 12L26 12L26 10L28 10L28 9L27 9L27 7L28 7L28 6L27 6L27 7L26 7L26 4L24 4L24 5L23 5L23 7L22 7L22 6L21 6L21 7L22 7L22 8L21 8L21 9L20 9L20 5L21 5L21 4L22 4L22 3L21 3L21 4L20 4L20 1ZM10 3L10 4L11 4L11 3ZM15 4L15 5L16 5L16 4ZM18 4L18 5L20 5L20 4ZM27 4L27 5L28 5L28 4ZM8 5L8 7L9 7L9 5ZM24 6L24 7L25 7L25 6ZM31 8L31 9L32 9L32 8ZM35 10L35 11L34 11L34 12L33 12L33 13L34 13L34 12L35 12L35 11L36 11L36 10ZM0 13L0 14L1 14L1 13ZM4 13L4 14L3 14L3 15L6 15L6 16L8 16L8 14L7 14L7 13L6 13L6 14L5 14L5 13ZM23 13L23 14L24 14L24 13ZM6 14L6 15L7 15L7 14ZM20 14L20 15L21 15L21 16L20 16L20 17L18 17L18 16L19 16L19 15L18 15L18 16L17 16L17 17L16 17L16 16L15 16L15 15L14 15L14 16L13 16L13 15L12 15L12 17L13 17L13 18L15 18L15 19L14 19L14 20L13 20L13 21L12 21L12 22L13 22L13 21L14 21L14 22L15 22L15 24L13 24L13 23L12 23L12 25L15 25L15 24L17 24L17 25L19 25L19 26L20 26L20 25L21 25L21 24L19 24L19 23L18 23L18 24L17 24L17 21L19 21L19 22L20 22L20 23L21 23L21 22L20 22L20 21L21 21L21 20L22 20L22 19L23 19L23 18L24 18L24 17L23 17L23 15L22 15L22 14ZM25 14L25 15L26 15L26 14ZM14 16L14 17L15 17L15 18L16 18L16 19L15 19L15 20L14 20L14 21L15 21L15 22L16 22L16 21L17 21L17 20L18 20L18 19L19 19L19 21L20 21L20 18L23 18L23 17L22 17L22 16L21 16L21 17L20 17L20 18L18 18L18 17L17 17L17 18L16 18L16 17L15 17L15 16ZM3 17L3 19L2 19L2 20L1 20L1 22L2 22L2 20L3 20L3 19L6 19L6 20L7 20L7 19L6 19L6 18L7 18L7 17L6 17L6 18L4 18L4 17ZM33 17L33 18L34 18L34 17ZM17 18L17 19L16 19L16 20L15 20L15 21L16 21L16 20L17 20L17 19L18 19L18 18ZM8 19L8 20L9 20L9 21L10 21L10 19ZM30 21L30 22L31 22L31 21ZM1 23L1 25L2 25L2 26L3 26L3 24L2 24L2 23ZM33 24L33 25L32 25L32 26L31 26L31 25L30 25L30 26L29 26L29 27L30 27L30 28L32 28L32 27L34 27L34 28L33 28L33 31L34 31L34 32L33 32L33 33L34 33L34 32L35 32L35 31L36 31L36 30L35 30L35 29L34 29L34 28L35 28L35 27L36 27L36 26L35 26L35 25L34 25L34 24ZM9 25L9 26L10 26L10 25ZM7 26L7 27L8 27L8 26ZM30 26L30 27L31 27L31 26ZM27 28L27 29L26 29L26 30L27 30L27 31L28 31L28 30L27 30L27 29L28 29L28 28ZM23 29L23 30L24 30L24 29ZM29 29L29 32L32 32L32 29ZM30 30L30 31L31 31L31 30ZM34 30L34 31L35 31L35 30ZM14 31L14 32L15 32L15 31ZM19 31L19 32L20 32L20 31ZM25 31L25 32L26 32L26 31ZM22 33L22 34L24 34L24 33ZM31 33L31 34L32 34L32 35L33 35L33 34L32 34L32 33ZM11 34L11 37L12 37L12 35L13 35L13 34ZM17 36L17 37L18 37L18 36ZM0 0L0 7L7 7L7 0ZM1 1L1 6L6 6L6 1ZM2 2L2 5L5 5L5 2ZM30 0L30 7L37 7L37 0ZM31 1L31 6L36 6L36 1ZM32 2L32 5L35 5L35 2ZM0 30L0 37L7 37L7 30ZM1 31L1 36L6 36L6 31ZM2 32L2 35L5 35L5 32Z" fill="#000000"/></g></g></svg>
