<?xml version="1.0" encoding="UTF-8"?>
<svg xmlns="http://www.w3.org/2000/svg" version="1.1" width="100" height="100" viewBox="0 0 100 100"><rect x="0" y="0" width="100" height="100" fill="#ffffff"/><g transform="scale(2.703)"><g transform="translate(0,0)"><path fill-rule="evenodd" d="M9 0L9 1L8 1L8 2L9 2L9 3L8 3L8 4L10 4L10 7L11 7L11 4L12 4L12 5L13 5L13 6L12 6L12 9L14 9L14 10L4 10L4 11L3 11L3 10L2 10L2 9L5 9L5 8L0 8L0 9L1 9L1 10L2 10L2 11L0 11L0 16L1 16L1 15L3 15L3 14L4 14L4 15L7 15L7 16L6 16L6 17L7 17L7 18L6 18L6 19L5 19L5 18L4 18L4 17L5 17L5 16L3 16L3 17L1 17L1 18L0 18L0 20L3 20L3 19L2 19L2 18L4 18L4 19L5 19L5 20L4 20L4 21L3 21L3 22L4 22L4 21L5 21L5 23L4 23L4 24L3 24L3 23L2 23L2 24L3 24L3 25L2 25L2 26L4 26L4 24L5 24L5 23L7 23L7 24L6 24L6 25L8 25L8 26L5 26L5 27L9 27L9 28L11 28L11 29L12 29L12 30L13 30L13 31L12 31L12 33L13 33L13 32L14 32L14 33L18 33L18 35L19 35L19 36L17 36L17 34L15 34L15 35L14 35L14 36L15 36L15 37L19 37L19 36L20 36L20 37L21 37L21 36L23 36L23 37L26 37L26 36L29 36L29 37L30 37L30 36L29 36L29 34L31 34L31 35L32 35L32 37L34 37L34 35L32 35L32 34L33 34L33 32L34 32L34 33L35 33L35 35L36 35L36 36L35 36L35 37L37 37L37 33L36 33L36 32L37 32L37 30L36 30L36 29L37 29L37 26L36 26L36 25L37 25L37 22L36 22L36 21L37 21L37 18L36 18L36 17L37 17L37 16L36 16L36 15L37 15L37 14L36 14L36 13L37 13L37 12L36 12L36 11L37 11L37 10L36 10L36 8L35 8L35 10L34 10L34 8L33 8L33 10L31 10L31 11L33 11L33 12L30 12L30 13L31 13L31 14L32 14L32 13L33 13L33 16L30 16L30 14L29 14L29 16L28 16L28 14L27 14L27 11L28 11L28 12L29 12L29 11L28 11L28 10L30 10L30 8L29 8L29 9L28 9L28 7L29 7L29 4L28 4L28 2L29 2L29 0L28 0L28 1L27 1L27 2L26 2L26 3L24 3L24 4L23 4L23 1L24 1L24 2L25 2L25 1L26 1L26 0L25 0L25 1L24 1L24 0L23 0L23 1L22 1L22 0L18 0L18 1L20 1L20 2L19 2L19 3L20 3L20 2L21 2L21 3L22 3L22 4L18 4L18 3L16 3L16 2L17 2L17 0L16 0L16 1L14 1L14 2L15 2L15 3L16 3L16 4L18 4L18 5L15 5L15 4L14 4L14 3L13 3L13 4L12 4L12 2L13 2L13 1L11 1L11 2L10 2L10 0ZM10 3L10 4L11 4L11 3ZM13 4L13 5L14 5L14 4ZM24 4L24 5L23 5L23 7L22 7L22 6L21 6L21 5L19 5L19 7L18 7L18 6L17 6L17 8L21 8L21 9L20 9L20 10L17 10L17 9L15 9L15 8L16 8L16 6L15 6L15 7L14 7L14 6L13 6L13 8L14 8L14 9L15 9L15 10L17 10L17 11L15 11L15 12L14 12L14 11L12 11L12 13L11 13L11 11L9 11L9 13L10 13L10 14L9 14L9 15L8 15L8 13L6 13L6 12L7 12L7 11L6 11L6 12L5 12L5 11L4 11L4 12L3 12L3 11L2 11L2 13L6 13L6 14L7 14L7 15L8 15L8 16L9 16L9 17L8 17L8 18L10 18L10 19L6 19L6 20L7 20L7 21L6 21L6 22L8 22L8 23L11 23L11 25L9 25L9 26L13 26L13 27L12 27L12 29L14 29L14 30L16 30L16 29L17 29L17 28L18 28L18 27L19 27L19 29L24 29L24 30L22 30L22 32L21 32L21 30L17 30L17 32L18 32L18 33L19 33L19 32L21 32L21 33L20 33L20 34L19 34L19 35L20 35L20 36L21 36L21 35L22 35L22 34L21 34L21 33L24 33L24 34L23 34L23 35L24 35L24 36L26 36L26 34L27 34L27 35L28 35L28 34L27 34L27 33L26 33L26 34L25 34L25 33L24 33L24 32L23 32L23 31L24 31L24 30L25 30L25 28L26 28L26 27L27 27L27 26L28 26L28 25L29 25L29 24L30 24L30 23L28 23L28 25L24 25L24 26L23 26L23 24L21 24L21 23L24 23L24 24L27 24L27 23L25 23L25 21L24 21L24 22L21 22L21 21L22 21L22 20L23 20L23 19L25 19L25 20L26 20L26 22L28 22L28 21L27 21L27 20L26 20L26 19L27 19L27 18L28 18L28 20L29 20L29 18L30 18L30 20L31 20L31 19L32 19L32 20L33 20L33 21L32 21L32 22L31 22L31 21L30 21L30 22L31 22L31 23L32 23L32 24L33 24L33 25L32 25L32 26L31 26L31 25L30 25L30 26L29 26L29 27L30 27L30 28L32 28L32 27L34 27L34 28L33 28L33 29L34 29L34 32L35 32L35 31L36 31L36 30L35 30L35 29L36 29L36 26L35 26L35 25L36 25L36 24L35 24L35 23L36 23L36 22L35 22L35 21L36 21L36 18L35 18L35 17L36 17L36 16L35 16L35 15L36 15L36 14L35 14L35 13L36 13L36 12L35 12L35 11L36 11L36 10L35 10L35 11L34 11L34 10L33 10L33 11L34 11L34 12L33 12L33 13L34 13L34 14L35 14L35 15L34 15L34 16L33 16L33 17L32 17L32 18L31 18L31 17L30 17L30 16L29 16L29 18L28 18L28 17L24 17L24 16L26 16L26 15L27 15L27 14L26 14L26 13L25 13L25 12L26 12L26 10L28 10L28 9L27 9L27 7L28 7L28 6L27 6L27 7L26 7L26 4ZM27 4L27 5L28 5L28 4ZM8 5L8 7L9 7L9 5ZM20 6L20 7L21 7L21 8L22 8L22 9L21 9L21 10L20 10L20 12L15 12L15 13L14 13L14 12L13 12L13 13L12 13L12 14L13 14L13 13L14 13L14 15L15 15L15 17L14 17L14 16L13 16L13 15L12 15L12 17L14 17L14 19L15 19L15 20L16 20L16 21L17 21L17 22L15 22L15 21L14 21L14 20L13 20L13 21L12 21L12 19L13 19L13 18L11 18L11 17L10 17L10 18L11 18L11 19L10 19L10 20L11 20L11 21L9 21L9 20L8 20L8 21L9 21L9 22L11 22L11 21L12 21L12 22L13 22L13 23L12 23L12 25L15 25L15 24L17 24L17 25L18 25L18 26L20 26L20 28L25 28L25 27L26 27L26 26L24 26L24 27L23 27L23 26L22 26L22 27L21 27L21 25L18 25L18 24L17 24L17 22L18 22L18 23L19 23L19 22L20 22L20 23L21 23L21 22L20 22L20 21L21 21L21 20L22 20L22 19L23 19L23 18L24 18L24 17L23 17L23 15L22 15L22 14L20 14L20 12L22 12L22 13L23 13L23 14L24 14L24 13L23 13L23 12L25 12L25 10L26 10L26 8L22 8L22 7L21 7L21 6ZM24 6L24 7L25 7L25 6ZM6 8L6 9L11 9L11 8ZM31 8L31 9L32 9L32 8ZM22 9L22 11L24 11L24 10L23 10L23 9ZM34 12L34 13L35 13L35 12ZM15 13L15 14L16 14L16 16L18 16L18 17L15 17L15 18L16 18L16 20L19 20L19 21L18 21L18 22L19 22L19 21L20 21L20 20L21 20L21 18L23 18L23 17L22 17L22 16L21 16L21 15L20 15L20 14L19 14L19 13ZM10 14L10 16L11 16L11 14ZM25 14L25 15L26 15L26 14ZM18 15L18 16L19 16L19 17L18 17L18 18L20 18L20 17L21 17L21 16L19 16L19 15ZM34 16L34 17L33 17L33 18L34 18L34 19L33 19L33 20L34 20L34 21L33 21L33 22L34 22L34 21L35 21L35 20L34 20L34 19L35 19L35 18L34 18L34 17L35 17L35 16ZM1 21L1 22L0 22L0 23L1 23L1 22L2 22L2 21ZM13 21L13 22L14 22L14 21ZM13 23L13 24L14 24L14 23ZM33 23L33 24L34 24L34 25L33 25L33 26L34 26L34 25L35 25L35 24L34 24L34 23ZM0 25L0 29L1 29L1 25ZM15 26L15 27L14 27L14 28L15 28L15 29L16 29L16 28L15 28L15 27L16 27L16 26ZM30 26L30 27L31 27L31 26ZM2 27L2 28L4 28L4 27ZM5 28L5 29L7 29L7 28ZM27 28L27 29L26 29L26 30L27 30L27 31L28 31L28 30L27 30L27 29L28 29L28 28ZM34 28L34 29L35 29L35 28ZM8 29L8 31L9 31L9 30L10 30L10 29ZM29 29L29 32L32 32L32 29ZM30 30L30 31L31 31L31 30ZM14 31L14 32L15 32L15 31ZM25 31L25 32L26 32L26 31ZM8 32L8 37L10 37L10 36L9 36L9 35L11 35L11 37L12 37L12 35L13 35L13 34L9 34L9 32ZM31 33L31 34L32 34L32 33ZM0 0L0 7L7 7L7 0ZM1 1L1 6L6 6L6 1ZM2 2L2 5L5 5L5 2ZM30 0L30 7L37 7L37 0ZM31 1L31 6L36 6L36 1ZM32 2L32 5L35 5L35 2ZM0 30L0 37L7 37L7 30ZM1 31L1 36L6 36L6 31ZM2 32L2 35L5 35L5 32Z" fill="#000000"/></g></g></svg>
