<?xml version="1.0" encoding="UTF-8"?>
<svg xmlns="http://www.w3.org/2000/svg" version="1.1" width="100" height="100" viewBox="0 0 100 100"><rect x="0" y="0" width="100" height="100" fill="#ffffff"/><g transform="scale(2.703)"><g transform="translate(0,0)"><path fill-rule="evenodd" d="M9 0L9 1L8 1L8 2L9 2L9 3L8 3L8 4L10 4L10 7L11 7L11 4L12 4L12 5L13 5L13 4L14 4L14 5L15 5L15 6L14 6L14 8L13 8L13 6L12 6L12 9L14 9L14 10L11 10L11 11L8 11L8 10L10 10L10 9L11 9L11 8L6 8L6 9L8 9L8 10L4 10L4 9L5 9L5 8L0 8L0 9L2 9L2 10L1 10L1 11L3 11L3 12L4 12L4 14L3 14L3 13L1 13L1 12L0 12L0 14L1 14L1 15L2 15L2 14L3 14L3 16L4 16L4 17L3 17L3 18L2 18L2 16L0 16L0 17L1 17L1 18L2 18L2 20L1 20L1 19L0 19L0 23L2 23L2 20L3 20L3 22L4 22L4 20L6 20L6 21L7 21L7 20L6 20L6 19L9 19L9 20L10 20L10 21L9 21L9 25L8 25L8 26L6 26L6 27L5 27L5 28L4 28L4 26L5 26L5 24L6 24L6 25L7 25L7 24L8 24L8 23L7 23L7 22L6 22L6 23L5 23L5 24L2 24L2 25L0 25L0 29L1 29L1 26L2 26L2 29L3 29L3 28L4 28L4 29L5 29L5 28L6 28L6 29L8 29L8 31L10 31L10 32L8 32L8 37L9 37L9 36L11 36L11 37L12 37L12 35L13 35L13 34L11 34L11 35L10 35L10 33L11 33L11 30L10 30L10 29L12 29L12 30L13 30L13 31L12 31L12 33L13 33L13 32L14 32L14 33L15 33L15 32L17 32L17 33L19 33L19 34L15 34L15 35L14 35L14 36L15 36L15 37L19 37L19 34L20 34L20 35L21 35L21 36L20 36L20 37L21 37L21 36L25 36L25 37L27 37L27 36L29 36L29 37L32 37L32 36L30 36L30 35L28 35L28 34L27 34L27 36L25 36L25 35L26 35L26 34L24 34L24 33L30 33L30 34L31 34L31 35L32 35L32 34L33 34L33 35L34 35L34 34L35 34L35 35L36 35L36 36L34 36L34 37L37 37L37 33L35 33L35 32L36 32L36 31L37 31L37 30L36 30L36 29L37 29L37 26L36 26L36 25L37 25L37 22L36 22L36 21L37 21L37 18L36 18L36 17L37 17L37 14L36 14L36 13L35 13L35 12L37 12L37 10L36 10L36 8L35 8L35 10L36 10L36 11L35 11L35 12L34 12L34 8L33 8L33 10L31 10L31 12L30 12L30 10L29 10L29 9L30 9L30 8L29 8L29 9L28 9L28 10L27 10L27 11L26 11L26 12L24 12L24 13L23 13L23 12L22 12L22 11L23 11L23 10L24 10L24 11L25 11L25 10L24 10L24 9L27 9L27 8L28 8L28 7L29 7L29 2L28 2L28 1L26 1L26 0L25 0L25 1L24 1L24 0L23 0L23 1L24 1L24 2L25 2L25 1L26 1L26 3L25 3L25 4L26 4L26 5L25 5L25 6L24 6L24 7L25 7L25 6L26 6L26 8L24 8L24 9L23 9L23 6L22 6L22 5L20 5L20 4L21 4L21 3L22 3L22 4L23 4L23 5L24 5L24 4L23 4L23 2L22 2L22 0L21 0L21 3L17 3L17 2L16 2L16 1L15 1L15 0L13 0L13 1L11 1L11 2L10 2L10 0ZM17 0L17 1L20 1L20 0ZM13 1L13 2L12 2L12 4L13 4L13 3L14 3L14 4L15 4L15 5L17 5L17 8L18 8L18 6L19 6L19 7L20 7L20 8L19 8L19 9L15 9L15 8L16 8L16 6L15 6L15 8L14 8L14 9L15 9L15 10L16 10L16 11L15 11L15 12L19 12L19 13L13 13L13 12L14 12L14 11L12 11L12 13L11 13L11 14L10 14L10 13L8 13L8 12L7 12L7 11L6 11L6 12L7 12L7 13L6 13L6 14L7 14L7 15L6 15L6 16L7 16L7 17L4 17L4 18L3 18L3 19L4 19L4 18L5 18L5 19L6 19L6 18L9 18L9 19L10 19L10 15L11 15L11 18L13 18L13 19L12 19L12 21L11 21L11 22L10 22L10 23L11 23L11 26L10 26L10 27L11 27L11 26L13 26L13 27L12 27L12 29L15 29L15 30L16 30L16 29L17 29L17 32L19 32L19 33L23 33L23 32L19 32L19 31L21 31L21 30L22 30L22 31L24 31L24 32L26 32L26 31L25 31L25 29L24 29L24 30L22 30L22 29L23 29L23 28L21 28L21 27L20 27L20 26L21 26L21 25L22 25L22 26L23 26L23 27L25 27L25 28L26 28L26 30L27 30L27 32L28 32L28 29L27 29L27 28L26 28L26 26L28 26L28 28L31 28L31 27L32 27L32 28L33 28L33 25L34 25L34 29L36 29L36 26L35 26L35 25L36 25L36 24L35 24L35 23L36 23L36 22L35 22L35 21L36 21L36 18L33 18L33 17L34 17L34 16L35 16L35 17L36 17L36 14L35 14L35 13L34 13L34 12L33 12L33 13L32 13L32 12L31 12L31 13L30 13L30 14L31 14L31 16L32 16L32 14L33 14L33 13L34 13L34 16L33 16L33 17L30 17L30 18L28 18L28 17L29 17L29 16L30 16L30 15L28 15L28 17L25 17L25 18L26 18L26 19L25 19L25 20L20 20L20 18L19 18L19 17L21 17L21 19L22 19L22 18L23 18L23 19L24 19L24 18L23 18L23 16L27 16L27 15L25 15L25 13L24 13L24 14L19 14L19 13L22 13L22 12L21 12L21 11L20 11L20 10L19 10L19 9L21 9L21 10L23 10L23 9L22 9L22 8L21 8L21 7L22 7L22 6L21 6L21 7L20 7L20 5L19 5L19 4L15 4L15 3L14 3L14 2L15 2L15 1ZM10 3L10 4L11 4L11 3ZM27 4L27 5L26 5L26 6L27 6L27 7L28 7L28 6L27 6L27 5L28 5L28 4ZM8 5L8 7L9 7L9 5ZM31 8L31 9L32 9L32 8ZM3 10L3 11L4 11L4 12L5 12L5 11L4 11L4 10ZM18 10L18 11L19 11L19 10ZM28 11L28 13L27 13L27 12L26 12L26 14L28 14L28 13L29 13L29 11ZM7 13L7 14L8 14L8 15L7 15L7 16L9 16L9 14L8 14L8 13ZM12 13L12 14L13 14L13 15L12 15L12 17L14 17L14 18L15 18L15 19L16 19L16 20L15 20L15 21L16 21L16 22L14 22L14 21L12 21L12 22L13 22L13 23L12 23L12 25L13 25L13 24L14 24L14 25L18 25L18 26L17 26L17 27L16 27L16 26L15 26L15 27L14 27L14 28L15 28L15 29L16 29L16 28L17 28L17 29L19 29L19 30L18 30L18 31L19 31L19 30L21 30L21 29L19 29L19 28L20 28L20 27L19 27L19 26L20 26L20 25L21 25L21 24L22 24L22 25L23 25L23 26L24 26L24 25L25 25L25 26L26 26L26 25L28 25L28 26L29 26L29 27L30 27L30 26L29 26L29 25L31 25L31 26L32 26L32 25L33 25L33 24L34 24L34 25L35 25L35 24L34 24L34 21L35 21L35 20L34 20L34 19L33 19L33 18L30 18L30 19L28 19L28 18L27 18L27 19L26 19L26 20L25 20L25 23L26 23L26 24L24 24L24 25L23 25L23 22L24 22L24 21L21 21L21 22L20 22L20 20L19 20L19 19L18 19L18 20L17 20L17 19L16 19L16 18L15 18L15 17L19 17L19 16L20 16L20 15L19 15L19 16L17 16L17 15L18 15L18 14L13 14L13 13ZM4 14L4 16L5 16L5 14ZM13 15L13 16L14 16L14 17L15 17L15 15ZM21 15L21 16L23 16L23 15ZM27 19L27 21L26 21L26 22L28 22L28 24L29 24L29 23L30 23L30 24L33 24L33 21L34 21L34 20L33 20L33 19L30 19L30 20L33 20L33 21L32 21L32 22L31 22L31 21L29 21L29 20L28 20L28 19ZM16 20L16 21L17 21L17 20ZM17 22L17 24L18 24L18 25L20 25L20 24L21 24L21 23L22 23L22 22L21 22L21 23L20 23L20 22ZM6 23L6 24L7 24L7 23ZM14 23L14 24L16 24L16 23ZM2 25L2 26L3 26L3 25ZM6 27L6 28L8 28L8 29L10 29L10 28L9 28L9 27ZM15 27L15 28L16 28L16 27ZM17 27L17 28L18 28L18 27ZM29 29L29 32L32 32L32 29ZM30 30L30 31L31 31L31 30ZM35 30L35 31L33 31L33 32L35 32L35 31L36 31L36 30ZM14 31L14 32L15 32L15 31ZM23 34L23 35L24 35L24 34ZM16 35L16 36L18 36L18 35ZM0 0L0 7L7 7L7 0ZM1 1L1 6L6 6L6 1ZM2 2L2 5L5 5L5 2ZM30 0L30 7L37 7L37 0ZM31 1L31 6L36 6L36 1ZM32 2L32 5L35 5L35 2ZM0 30L0 37L7 37L7 30ZM1 31L1 36L6 36L6 31ZM2 32L2 35L5 35L5 32Z" fill="#000000"/></g></g></svg>
