<?xml version="1.0" encoding="UTF-8"?>
<svg xmlns="http://www.w3.org/2000/svg" version="1.1" width="100" height="100" viewBox="0 0 100 100"><rect x="0" y="0" width="100" height="100" fill="#ffffff"/><g transform="scale(2.703)"><g transform="translate(0,0)"><path fill-rule="evenodd" d="M10 0L10 2L11 2L11 0ZM12 0L12 1L13 1L13 2L12 2L12 4L14 4L14 8L13 8L13 9L12 9L12 7L13 7L13 5L11 5L11 6L10 6L10 4L11 4L11 3L8 3L8 4L9 4L9 5L8 5L8 7L9 7L9 8L6 8L6 9L7 9L7 10L6 10L6 11L9 11L9 10L8 10L8 9L10 9L10 10L11 10L11 9L12 9L12 10L13 10L13 9L14 9L14 11L15 11L15 12L13 12L13 11L12 11L12 13L16 13L16 14L15 14L15 15L14 15L14 16L15 16L15 17L16 17L16 18L14 18L14 17L12 17L12 15L13 15L13 14L11 14L11 15L9 15L9 14L10 14L10 13L11 13L11 12L8 12L8 14L5 14L5 13L4 13L4 14L3 14L3 13L1 13L1 12L5 12L5 11L4 11L4 9L5 9L5 8L0 8L0 9L1 9L1 10L0 10L0 13L1 13L1 14L0 14L0 16L1 16L1 18L0 18L0 19L1 19L1 21L0 21L0 22L1 22L1 21L3 21L3 22L2 22L2 23L1 23L1 25L0 25L0 29L1 29L1 25L2 25L2 26L3 26L3 27L2 27L2 29L3 29L3 27L5 27L5 28L6 28L6 29L8 29L8 31L11 31L11 32L8 32L8 37L10 37L10 36L11 36L11 34L10 34L10 33L12 33L12 34L13 34L13 35L12 35L12 37L13 37L13 36L14 36L14 37L15 37L15 36L17 36L17 37L19 37L19 36L20 36L20 35L21 35L21 36L22 36L22 37L27 37L27 36L24 36L24 35L22 35L22 34L24 34L24 33L26 33L26 34L25 34L25 35L26 35L26 34L27 34L27 35L28 35L28 36L29 36L29 37L32 37L32 36L31 36L31 35L32 35L32 34L33 34L33 35L34 35L34 34L33 34L33 31L34 31L34 30L36 30L36 31L37 31L37 30L36 30L36 29L37 29L37 26L36 26L36 25L37 25L37 22L36 22L36 21L37 21L37 18L36 18L36 17L37 17L37 14L36 14L36 13L37 13L37 12L36 12L36 13L35 13L35 12L34 12L34 11L35 11L35 10L36 10L36 11L37 11L37 10L36 10L36 8L35 8L35 10L34 10L34 8L33 8L33 10L32 10L32 8L31 8L31 10L30 10L30 8L29 8L29 6L28 6L28 5L27 5L27 6L26 6L26 8L25 8L25 11L27 11L27 12L24 12L24 13L23 13L23 14L22 14L22 15L21 15L21 13L19 13L19 12L20 12L20 11L19 11L19 10L20 10L20 9L21 9L21 10L24 10L24 9L23 9L23 8L22 8L22 7L23 7L23 5L24 5L24 7L25 7L25 5L24 5L24 4L27 4L27 3L29 3L29 0L28 0L28 1L27 1L27 0L26 0L26 1L25 1L25 2L24 2L24 4L23 4L23 2L22 2L22 1L20 1L20 0L19 0L19 1L20 1L20 3L19 3L19 2L18 2L18 3L17 3L17 2L16 2L16 1L15 1L15 0L14 0L14 1L13 1L13 0ZM23 0L23 1L24 1L24 0ZM8 1L8 2L9 2L9 1ZM14 1L14 2L13 2L13 3L14 3L14 4L15 4L15 5L17 5L17 7L16 7L16 6L15 6L15 8L14 8L14 9L15 9L15 10L16 10L16 11L17 11L17 12L16 12L16 13L17 13L17 15L15 15L15 16L16 16L16 17L17 17L17 16L19 16L19 17L20 17L20 18L16 18L16 20L15 20L15 19L14 19L14 20L13 20L13 21L12 21L12 19L13 19L13 18L12 18L12 17L11 17L11 16L10 16L10 17L9 17L9 15L5 15L5 16L8 16L8 17L9 17L9 18L7 18L7 17L6 17L6 18L5 18L5 19L4 19L4 20L3 20L3 18L4 18L4 15L3 15L3 14L1 14L1 16L2 16L2 15L3 15L3 18L2 18L2 20L3 20L3 21L4 21L4 22L5 22L5 23L3 23L3 24L2 24L2 25L3 25L3 26L5 26L5 25L6 25L6 26L7 26L7 27L6 27L6 28L8 28L8 27L9 27L9 28L11 28L11 29L9 29L9 30L13 30L13 31L12 31L12 33L15 33L15 34L17 34L17 36L18 36L18 34L19 34L19 35L20 35L20 34L19 34L19 33L21 33L21 34L22 34L22 33L23 33L23 31L25 31L25 32L28 32L28 29L24 29L24 28L26 28L26 27L25 27L25 24L26 24L26 26L28 26L28 28L29 28L29 26L30 26L30 27L31 27L31 28L35 28L35 27L36 27L36 26L35 26L35 27L33 27L33 25L32 25L32 26L31 26L31 25L30 25L30 24L33 24L33 23L31 23L31 22L33 22L33 21L34 21L34 20L36 20L36 18L35 18L35 17L36 17L36 16L35 16L35 15L36 15L36 14L35 14L35 13L34 13L34 12L33 12L33 13L32 13L32 12L31 12L31 13L30 13L30 14L29 14L29 15L28 15L28 17L26 17L26 18L28 18L28 17L29 17L29 19L28 19L28 21L26 21L26 22L25 22L25 24L23 24L23 23L24 23L24 22L22 22L22 24L20 24L20 22L21 22L21 21L23 21L23 20L26 20L26 19L25 19L25 17L24 17L24 16L26 16L26 15L27 15L27 14L28 14L28 13L29 13L29 12L30 12L30 11L28 11L28 12L27 12L27 13L24 13L24 14L23 14L23 16L21 16L21 15L20 15L20 14L19 14L19 13L17 13L17 12L18 12L18 11L17 11L17 10L18 10L18 9L20 9L20 8L18 8L18 6L19 6L19 7L20 7L20 5L23 5L23 4L22 4L22 3L20 3L20 5L18 5L18 4L19 4L19 3L18 3L18 4L15 4L15 3L16 3L16 2L15 2L15 1ZM26 1L26 2L25 2L25 3L26 3L26 2L27 2L27 1ZM14 2L14 3L15 3L15 2ZM9 6L9 7L10 7L10 6ZM11 6L11 7L12 7L12 6ZM21 6L21 7L22 7L22 6ZM27 6L27 7L28 7L28 6ZM10 8L10 9L11 9L11 8ZM15 8L15 9L16 9L16 10L17 10L17 9L18 9L18 8L17 8L17 9L16 9L16 8ZM21 8L21 9L22 9L22 8ZM26 8L26 10L28 10L28 9L27 9L27 8ZM33 10L33 11L34 11L34 10ZM21 11L21 12L23 12L23 11ZM6 12L6 13L7 13L7 12ZM24 14L24 15L26 15L26 14ZM30 14L30 15L29 15L29 17L31 17L31 16L32 16L32 17L33 17L33 16L34 16L34 17L35 17L35 16L34 16L34 15L35 15L35 14ZM19 15L19 16L20 16L20 17L21 17L21 18L20 18L20 21L19 21L19 20L16 20L16 21L17 21L17 22L18 22L18 23L19 23L19 22L20 22L20 21L21 21L21 20L23 20L23 18L24 18L24 17L21 17L21 16L20 16L20 15ZM30 15L30 16L31 16L31 15ZM10 17L10 19L9 19L9 20L8 20L8 19L7 19L7 18L6 18L6 19L5 19L5 20L4 20L4 21L5 21L5 22L6 22L6 23L5 23L5 24L3 24L3 25L5 25L5 24L6 24L6 25L7 25L7 24L6 24L6 23L8 23L8 22L6 22L6 21L7 21L7 20L8 20L8 21L9 21L9 23L11 23L11 24L9 24L9 25L10 25L10 26L9 26L9 27L10 27L10 26L11 26L11 25L12 25L12 26L13 26L13 27L12 27L12 29L13 29L13 28L14 28L14 29L19 29L19 30L20 30L20 31L19 31L19 32L15 32L15 31L18 31L18 30L15 30L15 31L14 31L14 32L15 32L15 33L17 33L17 34L18 34L18 33L19 33L19 32L20 32L20 31L21 31L21 32L22 32L22 31L23 31L23 30L24 30L24 29L23 29L23 28L22 28L22 27L23 27L23 26L24 26L24 25L23 25L23 24L22 24L22 25L21 25L21 26L22 26L22 27L20 27L20 29L19 29L19 27L18 27L18 28L17 28L17 27L16 27L16 26L15 26L15 25L12 25L12 23L13 23L13 22L10 22L10 21L9 21L9 20L11 20L11 17ZM32 18L32 20L30 20L30 19L29 19L29 21L28 21L28 22L26 22L26 24L27 24L27 23L28 23L28 24L29 24L29 23L30 23L30 22L29 22L29 21L33 21L33 20L34 20L34 19L33 19L33 18ZM6 19L6 20L5 20L5 21L6 21L6 20L7 20L7 19ZM14 20L14 21L15 21L15 20ZM18 21L18 22L19 22L19 21ZM15 22L15 23L14 23L14 24L16 24L16 25L18 25L18 26L20 26L20 24L19 24L19 25L18 25L18 24L16 24L16 22ZM28 22L28 23L29 23L29 22ZM34 22L34 25L35 25L35 23L36 23L36 22ZM22 25L22 26L23 26L23 25ZM14 27L14 28L16 28L16 27ZM21 28L21 29L20 29L20 30L21 30L21 31L22 31L22 30L23 30L23 29L22 29L22 28ZM21 29L21 30L22 30L22 29ZM29 29L29 32L32 32L32 29ZM25 30L25 31L26 31L26 30ZM30 30L30 31L31 31L31 30ZM34 32L34 33L35 33L35 35L36 35L36 36L34 36L34 37L37 37L37 33L35 33L35 32ZM28 33L28 35L29 35L29 36L30 36L30 35L31 35L31 34L29 34L29 33ZM9 34L9 36L10 36L10 34ZM14 35L14 36L15 36L15 35ZM0 0L0 7L7 7L7 0ZM1 1L1 6L6 6L6 1ZM2 2L2 5L5 5L5 2ZM30 0L30 7L37 7L37 0ZM31 1L31 6L36 6L36 1ZM32 2L32 5L35 5L35 2ZM0 30L0 37L7 37L7 30ZM1 31L1 36L6 36L6 31ZM2 32L2 35L5 35L5 32Z" fill="#000000"/></g></g></svg>
