<?xml version="1.0" encoding="UTF-8"?>
<svg xmlns="http://www.w3.org/2000/svg" version="1.1" width="100" height="100" viewBox="0 0 100 100"><rect x="0" y="0" width="100" height="100" fill="#ffffff"/><g transform="scale(2.703)"><g transform="translate(0,0)"><path fill-rule="evenodd" d="M9 0L9 1L8 1L8 2L9 2L9 3L8 3L8 4L10 4L10 7L11 7L11 4L12 4L12 5L13 5L13 6L12 6L12 9L13 9L13 8L14 8L14 9L17 9L17 10L18 10L18 12L17 12L17 11L16 11L16 10L15 10L15 11L14 11L14 12L15 12L15 13L12 13L12 11L13 11L13 10L10 10L10 9L11 9L11 8L6 8L6 9L5 9L5 8L0 8L0 14L1 14L1 15L0 15L0 17L1 17L1 23L0 23L0 29L1 29L1 26L2 26L2 27L4 27L4 29L5 29L5 27L7 27L7 26L8 26L8 27L10 27L10 28L6 28L6 29L8 29L8 31L9 31L9 30L11 30L11 29L12 29L12 30L13 30L13 31L12 31L12 33L13 33L13 32L14 32L14 33L16 33L16 34L15 34L15 35L14 35L14 36L15 36L15 37L20 37L20 36L22 36L22 35L23 35L23 37L26 37L26 36L29 36L29 37L30 37L30 36L29 36L29 34L31 34L31 35L32 35L32 37L34 37L34 35L32 35L32 34L33 34L33 33L35 33L35 35L36 35L36 36L35 36L35 37L37 37L37 32L36 32L36 31L37 31L37 29L36 29L36 30L34 30L34 29L35 29L35 28L36 28L36 27L37 27L37 26L35 26L35 28L33 28L33 27L32 27L32 28L30 28L30 27L31 27L31 26L32 26L32 25L33 25L33 24L32 24L32 23L31 23L31 22L32 22L32 21L33 21L33 23L35 23L35 24L34 24L34 25L37 25L37 22L36 22L36 21L37 21L37 20L36 20L36 19L37 19L37 18L36 18L36 17L37 17L37 16L36 16L36 15L37 15L37 14L35 14L35 16L36 16L36 17L35 17L35 18L34 18L34 16L30 16L30 14L29 14L29 16L28 16L28 14L27 14L27 11L28 11L28 12L29 12L29 11L28 11L28 10L30 10L30 8L29 8L29 9L28 9L28 7L29 7L29 4L28 4L28 2L29 2L29 0L28 0L28 1L27 1L27 2L26 2L26 3L25 3L25 1L26 1L26 0L23 0L23 1L22 1L22 2L21 2L21 0L18 0L18 2L19 2L19 1L20 1L20 2L21 2L21 3L20 3L20 4L19 4L19 3L16 3L16 2L17 2L17 1L15 1L15 0L14 0L14 2L15 2L15 3L16 3L16 4L17 4L17 5L14 5L14 4L12 4L12 2L13 2L13 1L11 1L11 2L10 2L10 0ZM23 1L23 2L24 2L24 1ZM10 3L10 4L11 4L11 3ZM21 3L21 4L20 4L20 5L17 5L17 8L19 8L19 9L18 9L18 10L19 10L19 12L18 12L18 13L15 13L15 14L16 14L16 16L20 16L20 18L19 18L19 17L14 17L14 16L15 16L15 15L14 15L14 16L13 16L13 17L12 17L12 15L13 15L13 14L12 14L12 13L11 13L11 14L9 14L9 15L11 15L11 16L10 16L10 19L9 19L9 16L8 16L8 15L6 15L6 16L7 16L7 17L6 17L6 18L5 18L5 16L3 16L3 13L4 13L4 15L5 15L5 13L6 13L6 14L7 14L7 13L10 13L10 10L7 10L7 9L6 9L6 10L4 10L4 9L1 9L1 10L3 10L3 11L4 11L4 12L3 12L3 13L2 13L2 11L1 11L1 14L2 14L2 16L1 16L1 17L2 17L2 16L3 16L3 17L4 17L4 18L2 18L2 22L3 22L3 26L4 26L4 22L3 22L3 21L4 21L4 20L5 20L5 19L6 19L6 20L7 20L7 21L5 21L5 22L7 22L7 21L8 21L8 20L7 20L7 19L6 19L6 18L7 18L7 17L8 17L8 19L9 19L9 20L10 20L10 21L9 21L9 22L10 22L10 23L6 23L6 24L5 24L5 25L6 25L6 26L7 26L7 25L6 25L6 24L8 24L8 26L9 26L9 24L11 24L11 25L10 25L10 26L13 26L13 27L12 27L12 29L15 29L15 30L18 30L18 29L20 29L20 30L19 30L19 31L20 31L20 32L18 32L18 31L17 31L17 32L16 32L16 33L17 33L17 34L16 34L16 35L17 35L17 36L18 36L18 35L19 35L19 36L20 36L20 34L21 34L21 33L22 33L22 34L23 34L23 35L24 35L24 36L26 36L26 34L27 34L27 35L28 35L28 34L27 34L27 33L26 33L26 34L25 34L25 32L26 32L26 31L25 31L25 32L24 32L24 30L25 30L25 28L26 28L26 27L27 27L27 26L28 26L28 25L29 25L29 24L30 24L30 23L28 23L28 25L24 25L24 26L23 26L23 27L24 27L24 26L26 26L26 27L25 27L25 28L21 28L21 29L20 29L20 28L19 28L19 27L20 27L20 26L17 26L17 25L14 25L14 24L15 24L15 23L14 23L14 24L13 24L13 25L12 25L12 23L13 23L13 22L12 22L12 21L15 21L15 22L16 22L16 23L17 23L17 24L19 24L19 25L23 25L23 23L24 23L24 24L27 24L27 23L25 23L25 20L26 20L26 22L28 22L28 21L27 21L27 20L26 20L26 19L27 19L27 18L28 18L28 20L29 20L29 18L30 18L30 20L31 20L31 19L32 19L32 20L33 20L33 21L34 21L34 22L35 22L35 21L36 21L36 20L35 20L35 19L33 19L33 17L32 17L32 18L31 18L31 17L30 17L30 16L29 16L29 18L28 18L28 17L24 17L24 18L23 18L23 19L24 19L24 20L23 20L23 21L22 21L22 20L21 20L21 21L20 21L20 20L19 20L19 21L15 21L15 20L18 20L18 19L20 19L20 18L21 18L21 19L22 19L22 18L21 18L21 17L23 17L23 16L24 16L24 15L25 15L25 16L26 16L26 15L27 15L27 14L26 14L26 13L24 13L24 12L26 12L26 10L28 10L28 9L27 9L27 7L28 7L28 6L27 6L27 7L26 7L26 4L25 4L25 3ZM22 4L22 5L21 5L21 6L20 6L20 9L19 9L19 10L20 10L20 9L21 9L21 11L20 11L20 13L18 13L18 15L19 15L19 14L20 14L20 16L23 16L23 15L22 15L22 14L24 14L24 13L22 13L22 14L20 14L20 13L21 13L21 12L23 12L23 10L24 10L24 11L25 11L25 10L26 10L26 8L24 8L24 9L21 9L21 8L23 8L23 6L22 6L22 5L24 5L24 4ZM27 4L27 5L28 5L28 4ZM8 5L8 7L9 7L9 5ZM13 6L13 7L14 7L14 8L15 8L15 7L16 7L16 6L15 6L15 7L14 7L14 6ZM18 6L18 7L19 7L19 6ZM21 6L21 7L22 7L22 6ZM24 6L24 7L25 7L25 6ZM31 8L31 9L32 9L32 8ZM33 8L33 9L34 9L34 8ZM35 8L35 9L36 9L36 8ZM24 9L24 10L25 10L25 9ZM6 10L6 11L7 11L7 12L6 12L6 13L7 13L7 12L9 12L9 11L7 11L7 10ZM31 10L31 11L33 11L33 12L30 12L30 13L31 13L31 14L32 14L32 13L33 13L33 15L34 15L34 13L35 13L35 12L37 12L37 10L35 10L35 12L34 12L34 11L33 11L33 10ZM15 11L15 12L16 12L16 11ZM4 12L4 13L5 13L5 12ZM25 14L25 15L26 15L26 14ZM11 18L11 19L10 19L10 20L11 20L11 21L12 21L12 19L13 19L13 18ZM15 18L15 19L14 19L14 20L15 20L15 19L16 19L16 18ZM24 18L24 19L25 19L25 18ZM34 20L34 21L35 21L35 20ZM19 21L19 22L20 22L20 21ZM21 21L21 22L22 22L22 23L20 23L20 24L22 24L22 23L23 23L23 22L24 22L24 21L23 21L23 22L22 22L22 21ZM30 21L30 22L31 22L31 21ZM1 23L1 24L2 24L2 23ZM30 25L30 26L29 26L29 27L30 27L30 26L31 26L31 25ZM15 26L15 27L14 27L14 28L15 28L15 29L18 29L18 28L17 28L17 27L16 27L16 26ZM21 26L21 27L22 27L22 26ZM15 27L15 28L16 28L16 27ZM2 28L2 29L3 29L3 28ZM10 28L10 29L11 29L11 28ZM27 28L27 29L26 29L26 30L27 30L27 31L28 31L28 30L27 30L27 29L28 29L28 28ZM21 29L21 30L20 30L20 31L21 31L21 32L20 32L20 33L18 33L18 32L17 32L17 33L18 33L18 34L20 34L20 33L21 33L21 32L22 32L22 33L23 33L23 34L24 34L24 33L23 33L23 30L24 30L24 29ZM29 29L29 32L32 32L32 29ZM21 30L21 31L22 31L22 30ZM30 30L30 31L31 31L31 30ZM33 30L33 32L35 32L35 31L34 31L34 30ZM14 31L14 32L15 32L15 31ZM8 32L8 37L9 37L9 34L10 34L10 36L11 36L11 37L12 37L12 35L13 35L13 34L11 34L11 33L10 33L10 32ZM31 33L31 34L32 34L32 33ZM0 0L0 7L7 7L7 0ZM1 1L1 6L6 6L6 1ZM2 2L2 5L5 5L5 2ZM30 0L30 7L37 7L37 0ZM31 1L31 6L36 6L36 1ZM32 2L32 5L35 5L35 2ZM0 30L0 37L7 37L7 30ZM1 31L1 36L6 36L6 31ZM2 32L2 35L5 35L5 32Z" fill="#000000"/></g></g></svg>
