<?xml version="1.0" encoding="UTF-8"?>
<svg xmlns="http://www.w3.org/2000/svg" version="1.1" width="100" height="100" viewBox="0 0 100 100"><rect x="0" y="0" width="100" height="100" fill="#ffffff"/><g transform="scale(2.703)"><g transform="translate(0,0)"><path fill-rule="evenodd" d="M10 0L10 2L11 2L11 0ZM12 0L12 1L13 1L13 0ZM14 0L14 1L15 1L15 2L16 2L16 3L15 3L15 4L14 4L14 3L13 3L13 2L12 2L12 4L14 4L14 7L15 7L15 6L16 6L16 7L17 7L17 6L18 6L18 8L17 8L17 9L16 9L16 8L13 8L13 9L12 9L12 7L13 7L13 5L11 5L11 6L10 6L10 4L11 4L11 3L8 3L8 4L9 4L9 5L8 5L8 7L9 7L9 8L6 8L6 9L5 9L5 8L0 8L0 9L1 9L1 10L0 10L0 11L1 11L1 12L0 12L0 14L1 14L1 15L2 15L2 17L3 17L3 16L5 16L5 17L7 17L7 18L5 18L5 19L7 19L7 18L8 18L8 20L10 20L10 21L11 21L11 20L10 20L10 19L9 19L9 18L8 18L8 17L7 17L7 16L8 16L8 15L9 15L9 17L10 17L10 18L11 18L11 17L12 17L12 18L13 18L13 19L12 19L12 21L13 21L13 20L14 20L14 21L16 21L16 22L15 22L15 23L14 23L14 24L15 24L15 25L12 25L12 23L13 23L13 22L8 22L8 25L9 25L9 24L10 24L10 26L9 26L9 27L8 27L8 26L6 26L6 27L7 27L7 28L4 28L4 27L5 27L5 25L7 25L7 24L6 24L6 23L7 23L7 22L6 22L6 23L5 23L5 21L7 21L7 20L5 20L5 21L4 21L4 19L3 19L3 22L2 22L2 21L1 21L1 20L0 20L0 21L1 21L1 23L0 23L0 29L1 29L1 25L2 25L2 28L3 28L3 29L8 29L8 31L9 31L9 32L8 32L8 37L9 37L9 36L10 36L10 35L11 35L11 34L10 34L10 35L9 35L9 33L12 33L12 34L13 34L13 35L12 35L12 37L13 37L13 36L14 36L14 37L15 37L15 36L17 36L17 37L19 37L19 35L18 35L18 36L17 36L17 33L19 33L19 34L20 34L20 33L21 33L21 34L22 34L22 33L23 33L23 34L24 34L24 33L25 33L25 35L20 35L20 36L22 36L22 37L23 37L23 36L24 36L24 37L27 37L27 36L25 36L25 35L27 35L27 34L28 34L28 33L30 33L30 34L31 34L31 35L32 35L32 34L33 34L33 33L35 33L35 35L36 35L36 36L34 36L34 37L37 37L37 33L35 33L35 32L33 32L33 30L34 30L34 31L37 31L37 30L35 30L35 29L36 29L36 28L32 28L32 25L33 25L33 27L37 27L37 26L34 26L34 25L36 25L36 23L37 23L37 22L36 22L36 21L37 21L37 20L36 20L36 19L37 19L37 18L35 18L35 17L36 17L36 16L37 16L37 14L35 14L35 12L36 12L36 13L37 13L37 10L35 10L35 9L36 9L36 8L35 8L35 9L34 9L34 8L33 8L33 9L34 9L34 10L33 10L33 12L32 12L32 11L31 11L31 10L32 10L32 8L31 8L31 10L30 10L30 8L28 8L28 7L29 7L29 6L28 6L28 5L29 5L29 3L28 3L28 1L26 1L26 0L25 0L25 2L24 2L24 3L22 3L22 2L23 2L23 1L24 1L24 0L23 0L23 1L22 1L22 0L21 0L21 1L20 1L20 0L19 0L19 1L20 1L20 3L19 3L19 2L18 2L18 3L17 3L17 2L16 2L16 1L15 1L15 0ZM8 1L8 2L9 2L9 1ZM25 2L25 3L27 3L27 2ZM20 3L20 5L19 5L19 4L15 4L15 5L18 5L18 6L19 6L19 9L17 9L17 11L16 11L16 13L15 13L15 11L13 11L13 10L16 10L16 9L13 9L13 10L12 10L12 9L11 9L11 8L10 8L10 9L11 9L11 10L10 10L10 11L11 11L11 14L10 14L10 13L8 13L8 14L7 14L7 13L5 13L5 11L4 11L4 12L3 12L3 9L2 9L2 13L1 13L1 14L2 14L2 13L4 13L4 14L3 14L3 15L4 15L4 14L5 14L5 16L7 16L7 15L8 15L8 14L10 14L10 15L11 15L11 14L13 14L13 15L12 15L12 17L14 17L14 18L17 18L17 20L16 20L16 21L17 21L17 20L19 20L19 21L18 21L18 22L16 22L16 23L15 23L15 24L16 24L16 25L15 25L15 26L16 26L16 25L17 25L17 26L19 26L19 29L17 29L17 28L18 28L18 27L17 27L17 28L16 28L16 29L14 29L14 28L15 28L15 27L14 27L14 28L13 28L13 29L12 29L12 27L13 27L13 26L12 26L12 25L11 25L11 27L10 27L10 28L11 28L11 29L10 29L10 30L9 30L9 31L10 31L10 32L11 32L11 31L10 31L10 30L13 30L13 31L12 31L12 33L15 33L15 34L16 34L16 33L17 33L17 32L18 32L18 31L15 31L15 30L16 30L16 29L17 29L17 30L19 30L19 31L20 31L20 32L19 32L19 33L20 33L20 32L21 32L21 33L22 33L22 32L23 32L23 31L24 31L24 32L26 32L26 34L27 34L27 32L28 32L28 29L24 29L24 30L22 30L22 32L21 32L21 30L19 30L19 29L23 29L23 28L26 28L26 27L27 27L27 28L29 28L29 27L27 27L27 26L28 26L28 25L29 25L29 26L30 26L30 28L31 28L31 25L30 25L30 24L33 24L33 25L34 25L34 24L35 24L35 23L36 23L36 22L35 22L35 21L36 21L36 20L35 20L35 18L34 18L34 17L32 17L32 15L33 15L33 16L35 16L35 14L34 14L34 13L32 13L32 14L31 14L31 13L30 13L30 14L29 14L29 16L27 16L27 18L28 18L28 19L26 19L26 17L25 17L25 16L26 16L26 15L27 15L27 14L28 14L28 13L29 13L29 12L30 12L30 11L28 11L28 13L26 13L26 14L25 14L25 13L24 13L24 14L23 14L23 11L24 11L24 12L26 12L26 11L27 11L27 10L28 10L28 9L25 9L25 8L26 8L26 6L27 6L27 7L28 7L28 6L27 6L27 5L28 5L28 4L24 4L24 5L23 5L23 4L22 4L22 3ZM21 4L21 6L20 6L20 9L19 9L19 10L18 10L18 11L19 11L19 12L17 12L17 13L16 13L16 14L15 14L15 13L14 13L14 12L13 12L13 11L12 11L12 13L14 13L14 16L16 16L16 17L17 17L17 18L20 18L20 19L19 19L19 20L20 20L20 19L21 19L21 20L23 20L23 19L22 19L22 17L23 17L23 18L24 18L24 20L25 20L25 22L26 22L26 24L24 24L24 23L23 23L23 25L22 25L22 26L21 26L21 27L20 27L20 28L23 28L23 27L22 27L22 26L25 26L25 27L26 27L26 26L27 26L27 23L29 23L29 22L30 22L30 21L31 21L31 20L30 20L30 19L31 19L31 18L32 18L32 20L33 20L33 22L32 22L32 23L33 23L33 22L34 22L34 21L35 21L35 20L33 20L33 18L32 18L32 17L31 17L31 14L30 14L30 16L29 16L29 18L30 18L30 19L28 19L28 20L30 20L30 21L28 21L28 22L26 22L26 20L25 20L25 18L24 18L24 17L23 17L23 16L25 16L25 14L24 14L24 15L23 15L23 14L22 14L22 15L21 15L21 14L20 14L20 13L21 13L21 12L22 12L22 11L19 11L19 10L20 10L20 9L21 9L21 10L24 10L24 9L23 9L23 8L24 8L24 7L25 7L25 5L24 5L24 7L23 7L23 5L22 5L22 4ZM9 6L9 7L10 7L10 6ZM11 6L11 7L12 7L12 6ZM21 6L21 7L22 7L22 6ZM21 8L21 9L22 9L22 8ZM4 9L4 10L5 10L5 9ZM6 9L6 10L7 10L7 11L6 11L6 12L7 12L7 11L8 11L8 10L7 10L7 9ZM34 11L34 12L35 12L35 11ZM19 12L19 13L17 13L17 15L16 15L16 16L18 16L18 15L19 15L19 17L22 17L22 16L20 16L20 14L19 14L19 13L20 13L20 12ZM6 14L6 15L7 15L7 14ZM0 17L0 19L2 19L2 18L1 18L1 17ZM30 17L30 18L31 18L31 17ZM14 19L14 20L15 20L15 19ZM19 21L19 22L18 22L18 24L17 24L17 23L16 23L16 24L17 24L17 25L19 25L19 26L20 26L20 24L22 24L22 22L24 22L24 21ZM19 22L19 24L20 24L20 22ZM3 23L3 27L4 27L4 24L5 24L5 23ZM25 25L25 26L26 26L26 25ZM8 28L8 29L9 29L9 28ZM29 29L29 32L32 32L32 29ZM30 30L30 31L31 31L31 30ZM14 31L14 32L15 32L15 33L16 33L16 32L15 32L15 31ZM26 31L26 32L27 32L27 31ZM31 33L31 34L32 34L32 33ZM14 35L14 36L15 36L15 35ZM28 35L28 36L29 36L29 37L30 37L30 35ZM31 36L31 37L32 37L32 36ZM0 0L0 7L7 7L7 0ZM1 1L1 6L6 6L6 1ZM2 2L2 5L5 5L5 2ZM30 0L30 7L37 7L37 0ZM31 1L31 6L36 6L36 1ZM32 2L32 5L35 5L35 2ZM0 30L0 37L7 37L7 30ZM1 31L1 36L6 36L6 31ZM2 32L2 35L5 35L5 32Z" fill="#000000"/></g></g></svg>
