<?xml version="1.0" encoding="UTF-8"?>
<svg xmlns="http://www.w3.org/2000/svg" version="1.1" width="100" height="100" viewBox="0 0 100 100"><rect x="0" y="0" width="100" height="100" fill="#ffffff"/><g transform="scale(2.703)"><g transform="translate(0,0)"><path fill-rule="evenodd" d="M8 0L8 1L9 1L9 2L10 2L10 3L11 3L11 1L13 1L13 2L12 2L12 4L11 4L11 5L10 5L10 4L9 4L9 5L10 5L10 8L9 8L9 6L8 6L8 8L9 8L9 9L8 9L8 10L6 10L6 9L7 9L7 8L6 8L6 9L5 9L5 8L3 8L3 9L2 9L2 8L0 8L0 9L2 9L2 10L1 10L1 11L0 11L0 16L1 16L1 18L0 18L0 20L1 20L1 21L2 21L2 22L3 22L3 21L4 21L4 20L5 20L5 19L8 19L8 20L9 20L9 19L8 19L8 18L9 18L9 17L10 17L10 18L11 18L11 19L10 19L10 21L8 21L8 22L9 22L9 23L7 23L7 22L6 22L6 21L7 21L7 20L6 20L6 21L5 21L5 22L6 22L6 23L7 23L7 24L6 24L6 25L8 25L8 24L9 24L9 23L10 23L10 24L11 24L11 19L12 19L12 21L14 21L14 24L13 24L13 25L12 25L12 26L13 26L13 25L15 25L15 26L14 26L14 27L12 27L12 28L11 28L11 27L8 27L8 28L6 28L6 27L7 27L7 26L5 26L5 25L4 25L4 26L3 26L3 23L1 23L1 24L2 24L2 26L1 26L1 25L0 25L0 29L1 29L1 27L2 27L2 29L4 29L4 28L5 28L5 29L8 29L8 30L9 30L9 32L8 32L8 34L9 34L9 35L8 35L8 37L14 37L14 31L16 31L16 32L15 32L15 37L16 37L16 36L18 36L18 37L19 37L19 36L18 36L18 34L17 34L17 33L19 33L19 34L20 34L20 35L21 35L21 33L19 33L19 32L20 32L20 29L19 29L19 28L21 28L21 27L23 27L23 26L24 26L24 28L22 28L22 32L23 32L23 33L22 33L22 34L23 34L23 35L22 35L22 37L23 37L23 36L24 36L24 37L25 37L25 36L24 36L24 34L25 34L25 35L26 35L26 36L27 36L27 35L29 35L29 36L28 36L28 37L29 37L29 36L32 36L32 37L34 37L34 36L36 36L36 37L37 37L37 33L33 33L33 32L34 32L34 31L35 31L35 29L37 29L37 28L36 28L36 27L37 27L37 26L35 26L35 25L37 25L37 22L36 22L36 24L35 24L35 21L34 21L34 22L33 22L33 20L34 20L34 19L35 19L35 18L36 18L36 19L37 19L37 18L36 18L36 17L37 17L37 14L36 14L36 13L37 13L37 12L36 12L36 11L37 11L37 10L35 10L35 9L34 9L34 10L33 10L33 9L31 9L31 8L30 8L30 9L29 9L29 1L28 1L28 2L27 2L27 0L25 0L25 3L24 3L24 4L25 4L25 5L23 5L23 6L22 6L22 5L21 5L21 4L23 4L23 2L22 2L22 0L20 0L20 1L18 1L18 2L19 2L19 3L17 3L17 2L16 2L16 3L17 3L17 5L18 5L18 8L17 8L17 6L16 6L16 8L15 8L15 6L14 6L14 5L12 5L12 4L15 4L15 3L14 3L14 0L11 0L11 1L9 1L9 0ZM16 0L16 1L17 1L17 0ZM20 2L20 3L19 3L19 4L18 4L18 5L19 5L19 7L20 7L20 8L21 8L21 9L22 9L22 11L21 11L21 10L18 10L18 12L17 12L17 9L16 9L16 14L18 14L18 13L19 13L19 14L20 14L20 16L19 16L19 17L18 17L18 15L15 15L15 14L14 14L14 15L12 15L12 16L11 16L11 15L10 15L10 14L13 14L13 13L10 13L10 12L11 12L11 11L10 11L10 10L12 10L12 11L13 11L13 10L12 10L12 9L13 9L13 7L14 7L14 6L13 6L13 7L12 7L12 5L11 5L11 7L12 7L12 9L9 9L9 11L8 11L8 15L6 15L6 14L7 14L7 13L6 13L6 14L5 14L5 13L3 13L3 14L2 14L2 15L5 15L5 16L3 16L3 18L1 18L1 20L2 20L2 21L3 21L3 20L2 20L2 19L4 19L4 17L5 17L5 16L11 16L11 17L14 17L14 16L17 16L17 17L18 17L18 18L19 18L19 17L20 17L20 16L21 16L21 18L20 18L20 19L21 19L21 22L22 22L22 21L23 21L23 18L24 18L24 20L25 20L25 21L24 21L24 22L25 22L25 24L24 24L24 23L20 23L20 22L19 22L19 21L17 21L17 20L19 20L19 19L17 19L17 18L16 18L16 19L17 19L17 20L16 20L16 21L17 21L17 22L16 22L16 23L15 23L15 24L16 24L16 27L15 27L15 28L13 28L13 29L12 29L12 30L10 30L10 29L11 29L11 28L10 28L10 29L9 29L9 28L8 28L8 29L9 29L9 30L10 30L10 32L9 32L9 34L10 34L10 33L11 33L11 34L12 34L12 35L13 35L13 34L12 34L12 33L13 33L13 31L12 31L12 30L15 30L15 28L17 28L17 30L18 30L18 31L17 31L17 32L16 32L16 33L17 33L17 32L19 32L19 30L18 30L18 28L19 28L19 26L20 26L20 27L21 27L21 25L22 25L22 24L24 24L24 26L25 26L25 28L24 28L24 29L23 29L23 30L24 30L24 32L25 32L25 33L26 33L26 32L27 32L27 31L28 31L28 28L30 28L30 27L28 27L28 28L26 28L26 20L29 20L29 21L28 21L28 22L29 22L29 23L27 23L27 25L28 25L28 26L29 26L29 25L30 25L30 26L31 26L31 25L30 25L30 24L32 24L32 23L33 23L33 22L31 22L31 21L30 21L30 20L31 20L31 17L30 17L30 18L29 18L29 17L28 17L28 19L26 19L26 17L27 17L27 16L28 16L28 15L24 15L24 14L26 14L26 12L28 12L28 13L29 13L29 12L28 12L28 11L29 11L29 10L28 10L28 11L27 11L27 9L28 9L28 8L27 8L27 7L28 7L28 3L26 3L26 4L27 4L27 5L25 5L25 7L24 7L24 6L23 6L23 9L22 9L22 6L21 6L21 5L19 5L19 4L21 4L21 2ZM20 6L20 7L21 7L21 6ZM26 6L26 7L25 7L25 8L24 8L24 9L23 9L23 11L22 11L22 14L24 14L24 13L25 13L25 11L24 11L24 9L25 9L25 8L26 8L26 9L27 9L27 8L26 8L26 7L27 7L27 6ZM14 8L14 9L15 9L15 8ZM36 8L36 9L37 9L37 8ZM30 9L30 10L31 10L31 11L32 11L32 12L31 12L31 13L30 13L30 14L29 14L29 16L31 16L31 14L32 14L32 15L34 15L34 14L32 14L32 13L33 13L33 11L32 11L32 10L31 10L31 9ZM2 10L2 11L1 11L1 13L2 13L2 12L4 12L4 11L5 11L5 12L7 12L7 11L5 11L5 10ZM14 10L14 13L15 13L15 10ZM34 10L34 11L35 11L35 10ZM9 11L9 12L10 12L10 11ZM20 11L20 14L21 14L21 11ZM23 12L23 13L24 13L24 12ZM34 12L34 13L35 13L35 12ZM23 15L23 16L22 16L22 18L23 18L23 17L24 17L24 15ZM25 16L25 17L26 17L26 16ZM32 16L32 18L33 18L33 19L32 19L32 20L33 20L33 19L34 19L34 17L33 17L33 16ZM35 16L35 17L36 17L36 16ZM6 17L6 18L8 18L8 17ZM12 18L12 19L13 19L13 20L14 20L14 19L15 19L15 18ZM25 19L25 20L26 20L26 19ZM29 19L29 20L30 20L30 19ZM36 20L36 21L37 21L37 20ZM12 22L12 23L13 23L13 22ZM18 22L18 23L17 23L17 24L18 24L18 25L21 25L21 24L20 24L20 23L19 23L19 22ZM4 23L4 24L5 24L5 23ZM18 23L18 24L19 24L19 23ZM28 24L28 25L29 25L29 24ZM34 24L34 25L33 25L33 27L35 27L35 26L34 26L34 25L35 25L35 24ZM9 25L9 26L11 26L11 25ZM17 26L17 27L18 27L18 26ZM31 27L31 28L32 28L32 27ZM25 28L25 29L26 29L26 28ZM29 29L29 32L32 32L32 29ZM26 30L26 31L25 31L25 32L26 32L26 31L27 31L27 30ZM30 30L30 31L31 31L31 30ZM33 30L33 31L34 31L34 30ZM36 30L36 32L37 32L37 30ZM11 31L11 33L12 33L12 31ZM28 33L28 34L29 34L29 35L31 35L31 34L29 34L29 33ZM32 33L32 34L33 34L33 33ZM16 34L16 35L17 35L17 34ZM26 34L26 35L27 35L27 34ZM34 34L34 35L36 35L36 34ZM9 35L9 36L11 36L11 35ZM32 35L32 36L33 36L33 35ZM0 0L0 7L7 7L7 0ZM1 1L1 6L6 6L6 1ZM2 2L2 5L5 5L5 2ZM30 0L30 7L37 7L37 0ZM31 1L31 6L36 6L36 1ZM32 2L32 5L35 5L35 2ZM0 30L0 37L7 37L7 30ZM1 31L1 36L6 36L6 31ZM2 32L2 35L5 35L5 32Z" fill="#000000"/></g></g></svg>
