<?xml version="1.0" encoding="UTF-8"?>
<svg xmlns="http://www.w3.org/2000/svg" version="1.1" width="100" height="100" viewBox="0 0 100 100"><rect x="0" y="0" width="100" height="100" fill="#ffffff"/><g transform="scale(2.703)"><g transform="translate(0,0)"><path fill-rule="evenodd" d="M9 0L9 1L8 1L8 2L9 2L9 3L8 3L8 4L10 4L10 7L11 7L11 4L12 4L12 5L13 5L13 4L18 4L18 7L19 7L19 5L20 5L20 8L19 8L19 9L18 9L18 8L17 8L17 6L16 6L16 5L14 5L14 8L13 8L13 6L12 6L12 9L13 9L13 10L11 10L11 12L10 12L10 13L9 13L9 11L10 11L10 9L11 9L11 8L6 8L6 9L8 9L8 10L9 10L9 11L8 11L8 12L5 12L5 11L7 11L7 10L5 10L5 8L0 8L0 9L1 9L1 12L0 12L0 15L1 15L1 17L2 17L2 18L1 18L1 20L0 20L0 22L3 22L3 23L7 23L7 22L8 22L8 25L7 25L7 24L6 24L6 25L7 25L7 26L6 26L6 27L7 27L7 28L4 28L4 27L5 27L5 26L3 26L3 24L1 24L1 23L0 23L0 24L1 24L1 25L0 25L0 29L1 29L1 25L2 25L2 28L4 28L4 29L7 29L7 28L8 28L8 27L9 27L9 25L10 25L10 26L11 26L11 28L10 28L10 29L8 29L8 31L10 31L10 32L8 32L8 37L10 37L10 36L11 36L11 37L12 37L12 35L13 35L13 34L11 34L11 35L10 35L10 34L9 34L9 33L11 33L11 30L10 30L10 29L12 29L12 30L13 30L13 31L12 31L12 33L13 33L13 32L14 32L14 33L16 33L16 34L15 34L15 35L14 35L14 36L15 36L15 37L19 37L19 36L20 36L20 37L21 37L21 36L23 36L23 37L27 37L27 35L28 35L28 36L30 36L30 37L32 37L32 34L33 34L33 33L34 33L34 35L36 35L36 36L34 36L34 37L37 37L37 33L35 33L35 32L37 32L37 29L36 29L36 28L32 28L32 27L31 27L31 28L30 28L30 26L29 26L29 25L28 25L28 26L27 26L27 27L26 27L26 28L24 28L24 27L23 27L23 26L24 26L24 25L18 25L18 24L20 24L20 23L21 23L21 24L22 24L22 23L21 23L21 22L24 22L24 24L25 24L25 25L27 25L27 23L28 23L28 24L30 24L30 25L31 25L31 24L30 24L30 22L29 22L29 23L28 23L28 22L27 22L27 20L29 20L29 18L30 18L30 17L31 17L31 18L32 18L32 17L34 17L34 18L35 18L35 20L33 20L33 19L32 19L32 21L31 21L31 20L30 20L30 21L31 21L31 22L32 22L32 24L33 24L33 27L34 27L34 26L35 26L35 27L37 27L37 26L35 26L35 25L36 25L36 23L37 23L37 22L35 22L35 24L33 24L33 22L34 22L34 21L35 21L35 20L36 20L36 21L37 21L37 18L35 18L35 17L36 17L36 16L37 16L37 14L35 14L35 16L32 16L32 15L31 15L31 14L32 14L32 13L33 13L33 15L34 15L34 13L35 13L35 12L36 12L36 13L37 13L37 10L35 10L35 9L36 9L36 8L35 8L35 9L34 9L34 8L33 8L33 9L34 9L34 10L33 10L33 12L32 12L32 11L31 11L31 10L32 10L32 8L31 8L31 10L30 10L30 8L28 8L28 7L29 7L29 6L28 6L28 5L27 5L27 6L26 6L26 8L25 8L25 6L24 6L24 8L23 8L23 10L22 10L22 11L21 11L21 10L20 10L20 8L22 8L22 7L23 7L23 6L22 6L22 7L21 7L21 5L24 5L24 4L27 4L27 2L28 2L28 3L29 3L29 2L28 2L28 1L29 1L29 0L28 0L28 1L27 1L27 2L26 2L26 3L24 3L24 4L23 4L23 1L24 1L24 2L25 2L25 1L24 1L24 0L23 0L23 1L22 1L22 0L21 0L21 2L20 2L20 4L18 4L18 3L19 3L19 1L20 1L20 0L19 0L19 1L18 1L18 0L16 0L16 1L15 1L15 2L14 2L14 3L13 3L13 4L12 4L12 2L13 2L13 1L11 1L11 2L10 2L10 0ZM17 1L17 2L16 2L16 3L18 3L18 1ZM10 3L10 4L11 4L11 3ZM21 3L21 4L20 4L20 5L21 5L21 4L22 4L22 3ZM8 5L8 7L9 7L9 5ZM15 6L15 7L16 7L16 6ZM27 6L27 7L28 7L28 6ZM14 8L14 9L15 9L15 10L13 10L13 11L12 11L12 13L10 13L10 14L9 14L9 13L5 13L5 12L3 12L3 10L2 10L2 13L1 13L1 15L2 15L2 17L4 17L4 15L5 15L5 17L6 17L6 18L5 18L5 19L3 19L3 18L2 18L2 20L5 20L5 19L6 19L6 20L7 20L7 19L6 19L6 18L7 18L7 17L6 17L6 16L8 16L8 17L9 17L9 19L8 19L8 20L9 20L9 19L10 19L10 22L9 22L9 24L11 24L11 26L13 26L13 27L12 27L12 29L15 29L15 30L16 30L16 31L17 31L17 32L16 32L16 33L17 33L17 32L19 32L19 33L20 33L20 34L16 34L16 35L15 35L15 36L16 36L16 35L17 35L17 36L19 36L19 35L20 35L20 36L21 36L21 35L20 35L20 34L21 34L21 33L22 33L22 34L23 34L23 35L24 35L24 36L26 36L26 35L27 35L27 34L28 34L28 35L29 35L29 34L28 34L28 33L24 33L24 34L23 34L23 33L22 33L22 32L28 32L28 30L27 30L27 29L28 29L28 28L29 28L29 27L27 27L27 28L26 28L26 30L27 30L27 31L25 31L25 30L23 30L23 29L22 29L22 28L23 28L23 27L22 27L22 28L20 28L20 26L18 26L18 25L17 25L17 24L18 24L18 23L20 23L20 22L21 22L21 21L24 21L24 22L26 22L26 23L25 23L25 24L26 24L26 23L27 23L27 22L26 22L26 21L25 21L25 20L26 20L26 18L28 18L28 17L30 17L30 16L31 16L31 15L30 15L30 14L31 14L31 13L30 13L30 14L29 14L29 15L28 15L28 17L27 17L27 15L26 15L26 13L25 13L25 12L26 12L26 11L27 11L27 10L28 10L28 12L30 12L30 10L28 10L28 9L26 9L26 10L25 10L25 9L24 9L24 10L23 10L23 11L24 11L24 12L23 12L23 13L22 13L22 12L20 12L20 10L19 10L19 11L18 11L18 9L15 9L15 8ZM15 10L15 11L14 11L14 12L15 12L15 13L17 13L17 14L20 14L20 15L21 15L21 16L20 16L20 17L19 17L19 16L17 16L17 15L16 15L16 14L14 14L14 13L12 13L12 14L13 14L13 15L12 15L12 17L13 17L13 16L14 16L14 17L16 17L16 18L15 18L15 19L14 19L14 20L15 20L15 21L12 21L12 19L13 19L13 18L11 18L11 16L9 16L9 14L8 14L8 16L9 16L9 17L10 17L10 18L11 18L11 21L12 21L12 22L13 22L13 23L12 23L12 25L13 25L13 24L14 24L14 25L16 25L16 26L15 26L15 27L14 27L14 28L15 28L15 29L19 29L19 30L20 30L20 31L19 31L19 32L20 32L20 33L21 33L21 32L22 32L22 31L23 31L23 30L22 30L22 29L21 29L21 30L20 30L20 28L19 28L19 27L18 27L18 26L17 26L17 25L16 25L16 24L14 24L14 23L16 23L16 22L15 22L15 21L18 21L18 22L20 22L20 21L21 21L21 20L22 20L22 18L24 18L24 19L23 19L23 20L25 20L25 18L26 18L26 16L24 16L24 15L23 15L23 14L24 14L24 13L23 13L23 14L22 14L22 13L19 13L19 12L15 12L15 11L16 11L16 10ZM24 10L24 11L25 11L25 10ZM34 11L34 12L35 12L35 11ZM3 13L3 14L2 14L2 15L4 15L4 13ZM27 13L27 14L28 14L28 13ZM5 14L5 15L7 15L7 14ZM10 14L10 15L11 15L11 14ZM14 15L14 16L15 16L15 15ZM22 15L22 16L21 16L21 17L20 17L20 18L19 18L19 17L18 17L18 18L17 18L17 20L18 20L18 21L20 21L20 18L22 18L22 17L23 17L23 15ZM29 15L29 16L30 16L30 15ZM16 16L16 17L17 17L17 16ZM24 17L24 18L25 18L25 17ZM18 18L18 20L19 20L19 18ZM15 19L15 20L16 20L16 19ZM3 21L3 22L5 22L5 21ZM6 21L6 22L7 22L7 21ZM32 21L32 22L33 22L33 21ZM4 24L4 25L5 25L5 24ZM7 26L7 27L8 27L8 26ZM16 26L16 28L18 28L18 27L17 27L17 26ZM29 29L29 32L32 32L32 29ZM33 29L33 32L35 32L35 30L36 30L36 29L35 29L35 30L34 30L34 29ZM21 30L21 31L22 31L22 30ZM30 30L30 31L31 31L31 30ZM14 31L14 32L15 32L15 31ZM31 33L31 34L30 34L30 35L31 35L31 34L32 34L32 33ZM25 34L25 35L26 35L26 34ZM0 0L0 7L7 7L7 0ZM1 1L1 6L6 6L6 1ZM2 2L2 5L5 5L5 2ZM30 0L30 7L37 7L37 0ZM31 1L31 6L36 6L36 1ZM32 2L32 5L35 5L35 2ZM0 30L0 37L7 37L7 30ZM1 31L1 36L6 36L6 31ZM2 32L2 35L5 35L5 32Z" fill="#000000"/></g></g></svg>
