<?xml version="1.0" encoding="UTF-8"?>
<svg xmlns="http://www.w3.org/2000/svg" version="1.1" width="100" height="100" viewBox="0 0 100 100"><rect x="0" y="0" width="100" height="100" fill="#ffffff"/><g transform="scale(2.703)"><g transform="translate(0,0)"><path fill-rule="evenodd" d="M9 0L9 1L8 1L8 2L9 2L9 3L8 3L8 4L10 4L10 7L11 7L11 4L12 4L12 5L13 5L13 4L14 4L14 7L15 7L15 9L14 9L14 8L13 8L13 6L12 6L12 9L14 9L14 12L13 12L13 13L12 13L12 11L13 11L13 10L9 10L9 9L11 9L11 8L6 8L6 9L5 9L5 8L0 8L0 10L1 10L1 11L0 11L0 13L2 13L2 12L3 12L3 14L4 14L4 18L5 18L5 16L6 16L6 17L7 17L7 16L6 16L6 15L7 15L7 14L6 14L6 13L7 13L7 12L8 12L8 11L7 11L7 10L6 10L6 9L8 9L8 10L9 10L9 11L10 11L10 12L11 12L11 13L12 13L12 14L13 14L13 13L14 13L14 16L13 16L13 15L12 15L12 17L14 17L14 20L16 20L16 21L17 21L17 22L14 22L14 21L12 21L12 19L13 19L13 18L11 18L11 17L10 17L10 18L11 18L11 21L10 21L10 22L11 22L11 21L12 21L12 22L13 22L13 23L12 23L12 25L13 25L13 24L14 24L14 25L16 25L16 26L15 26L15 27L14 27L14 28L15 28L15 29L12 29L12 27L13 27L13 26L10 26L10 25L11 25L11 24L10 24L10 25L9 25L9 23L8 23L8 22L5 22L5 21L4 21L4 20L6 20L6 21L7 21L7 20L8 20L8 21L9 21L9 19L8 19L8 18L6 18L6 19L3 19L3 16L2 16L2 17L0 17L0 18L2 18L2 19L0 19L0 20L2 20L2 19L3 19L3 22L4 22L4 24L3 24L3 23L2 23L2 25L0 25L0 29L1 29L1 26L2 26L2 25L3 25L3 26L5 26L5 28L3 28L3 27L2 27L2 28L3 28L3 29L5 29L5 28L6 28L6 29L8 29L8 31L9 31L9 30L10 30L10 29L9 29L9 27L8 27L8 28L6 28L6 27L7 27L7 26L5 26L5 25L7 25L7 24L8 24L8 26L10 26L10 27L11 27L11 29L12 29L12 30L13 30L13 31L12 31L12 33L13 33L13 32L14 32L14 33L15 33L15 32L17 32L17 33L19 33L19 34L20 34L20 35L21 35L21 36L22 36L22 37L23 37L23 36L25 36L25 37L27 37L27 36L29 36L29 37L32 37L32 36L30 36L30 35L28 35L28 34L27 34L27 36L25 36L25 35L26 35L26 34L24 34L24 33L30 33L30 34L31 34L31 35L32 35L32 34L33 34L33 35L34 35L34 34L35 34L35 35L36 35L36 36L34 36L34 37L37 37L37 33L35 33L35 32L36 32L36 31L37 31L37 30L36 30L36 29L37 29L37 26L36 26L36 25L37 25L37 22L36 22L36 21L37 21L37 18L36 18L36 17L37 17L37 14L36 14L36 13L37 13L37 12L36 12L36 11L37 11L37 10L36 10L36 8L35 8L35 10L36 10L36 11L35 11L35 12L34 12L34 8L33 8L33 10L31 10L31 12L30 12L30 10L29 10L29 9L30 9L30 8L29 8L29 9L28 9L28 10L27 10L27 11L26 11L26 12L24 12L24 13L23 13L23 12L22 12L22 11L23 11L23 10L24 10L24 11L25 11L25 10L24 10L24 9L27 9L27 8L28 8L28 7L29 7L29 2L28 2L28 1L26 1L26 0L25 0L25 1L24 1L24 0L23 0L23 1L24 1L24 2L25 2L25 1L26 1L26 3L25 3L25 4L26 4L26 5L25 5L25 6L24 6L24 7L25 7L25 6L26 6L26 8L24 8L24 9L23 9L23 6L22 6L22 5L21 5L21 4L19 4L19 3L22 3L22 4L23 4L23 5L24 5L24 4L23 4L23 2L22 2L22 0L21 0L21 2L19 2L19 3L17 3L17 1L20 1L20 0L17 0L17 1L15 1L15 0L14 0L14 3L13 3L13 4L12 4L12 2L13 2L13 1L11 1L11 2L10 2L10 0ZM10 3L10 4L11 4L11 3ZM14 3L14 4L15 4L15 5L16 5L16 4L17 4L17 7L16 7L16 6L15 6L15 7L16 7L16 8L18 8L18 9L15 9L15 10L18 10L18 11L16 11L16 12L14 12L14 13L15 13L15 14L17 14L17 15L16 15L16 16L14 16L14 17L15 17L15 18L16 18L16 20L20 20L20 22L17 22L17 24L16 24L16 25L17 25L17 24L19 24L19 25L18 25L18 26L17 26L17 28L16 28L16 29L15 29L15 30L16 30L16 29L17 29L17 32L19 32L19 33L20 33L20 34L21 34L21 35L22 35L22 36L23 36L23 35L24 35L24 34L23 34L23 33L22 33L22 32L23 32L23 31L24 31L24 32L26 32L26 31L25 31L25 29L24 29L24 30L23 30L23 31L22 31L22 30L21 30L21 29L23 29L23 27L25 27L25 28L26 28L26 30L27 30L27 32L28 32L28 29L27 29L27 28L26 28L26 26L28 26L28 28L31 28L31 27L32 27L32 28L33 28L33 25L34 25L34 29L36 29L36 26L35 26L35 25L36 25L36 24L35 24L35 23L36 23L36 22L35 22L35 21L36 21L36 18L35 18L35 17L36 17L36 14L35 14L35 13L34 13L34 12L33 12L33 13L32 13L32 12L31 12L31 13L30 13L30 14L31 14L31 16L32 16L32 14L33 14L33 13L34 13L34 16L33 16L33 17L30 17L30 18L28 18L28 17L29 17L29 16L30 16L30 15L28 15L28 17L25 17L25 18L26 18L26 19L25 19L25 20L20 20L20 18L18 18L18 17L21 17L21 19L22 19L22 18L23 18L23 19L24 19L24 18L23 18L23 16L27 16L27 15L25 15L25 13L24 13L24 14L21 14L21 13L22 13L22 12L21 12L21 11L20 11L20 10L23 10L23 9L22 9L22 8L21 8L21 7L22 7L22 6L21 6L21 5L19 5L19 4L17 4L17 3L16 3L16 4L15 4L15 3ZM27 4L27 5L26 5L26 6L27 6L27 7L28 7L28 6L27 6L27 5L28 5L28 4ZM8 5L8 7L9 7L9 5ZM18 6L18 8L19 8L19 9L18 9L18 10L20 10L20 9L21 9L21 8L19 8L19 6ZM20 6L20 7L21 7L21 6ZM31 8L31 9L32 9L32 8ZM1 9L1 10L2 10L2 11L1 11L1 12L2 12L2 11L3 11L3 12L4 12L4 9ZM5 10L5 11L6 11L6 12L5 12L5 13L6 13L6 12L7 12L7 11L6 11L6 10ZM18 11L18 12L16 12L16 13L19 13L19 14L18 14L18 15L19 15L19 16L23 16L23 15L19 15L19 14L20 14L20 13L21 13L21 12L20 12L20 13L19 13L19 11ZM28 11L28 13L27 13L27 12L26 12L26 14L28 14L28 13L29 13L29 11ZM5 14L5 15L6 15L6 14ZM0 15L0 16L1 16L1 15ZM9 15L9 16L8 16L8 17L9 17L9 16L11 16L11 15ZM16 16L16 17L18 17L18 16ZM34 16L34 17L35 17L35 16ZM27 18L27 19L26 19L26 20L25 20L25 23L26 23L26 24L24 24L24 25L19 25L19 26L18 26L18 28L17 28L17 29L18 29L18 30L20 30L20 29L21 29L21 28L22 28L22 27L23 27L23 26L24 26L24 25L25 25L25 26L26 26L26 25L28 25L28 26L29 26L29 27L30 27L30 26L29 26L29 25L31 25L31 26L32 26L32 25L33 25L33 24L34 24L34 25L35 25L35 24L34 24L34 21L35 21L35 20L34 20L34 19L35 19L35 18L34 18L34 19L33 19L33 18L30 18L30 19L28 19L28 18ZM6 19L6 20L7 20L7 19ZM27 19L27 21L26 21L26 22L28 22L28 24L29 24L29 23L30 23L30 24L33 24L33 21L34 21L34 20L33 20L33 19L30 19L30 20L33 20L33 21L32 21L32 22L31 22L31 21L29 21L29 20L28 20L28 19ZM1 21L1 22L2 22L2 21ZM21 21L21 24L23 24L23 22L24 22L24 21ZM0 23L0 24L1 24L1 23ZM6 23L6 24L7 24L7 23ZM14 23L14 24L15 24L15 23ZM19 23L19 24L20 24L20 23ZM19 26L19 28L18 28L18 29L20 29L20 28L21 28L21 27L20 27L20 26ZM29 29L29 32L32 32L32 29ZM30 30L30 31L31 31L31 30ZM35 30L35 31L33 31L33 32L35 32L35 31L36 31L36 30ZM14 31L14 32L15 32L15 31ZM19 31L19 32L20 32L20 33L21 33L21 34L22 34L22 35L23 35L23 34L22 34L22 33L21 33L21 32L22 32L22 31L21 31L21 32L20 32L20 31ZM8 32L8 37L9 37L9 36L10 36L10 37L12 37L12 35L13 35L13 34L11 34L11 35L9 35L9 34L10 34L10 32ZM15 34L15 35L14 35L14 36L16 36L16 37L19 37L19 35L18 35L18 36L16 36L16 34ZM0 0L0 7L7 7L7 0ZM1 1L1 6L6 6L6 1ZM2 2L2 5L5 5L5 2ZM30 0L30 7L37 7L37 0ZM31 1L31 6L36 6L36 1ZM32 2L32 5L35 5L35 2ZM0 30L0 37L7 37L7 30ZM1 31L1 36L6 36L6 31ZM2 32L2 35L5 35L5 32Z" fill="#000000"/></g></g></svg>
