<?xml version="1.0" encoding="UTF-8"?>
<svg xmlns="http://www.w3.org/2000/svg" version="1.1" width="100" height="100" viewBox="0 0 100 100"><rect x="0" y="0" width="100" height="100" fill="#ffffff"/><g transform="scale(2.703)"><g transform="translate(0,0)"><path fill-rule="evenodd" d="M9 0L9 1L8 1L8 2L9 2L9 3L8 3L8 4L10 4L10 7L11 7L11 4L12 4L12 5L13 5L13 6L12 6L12 9L13 9L13 8L14 8L14 9L16 9L16 10L15 10L15 11L14 11L14 12L15 12L15 13L12 13L12 11L13 11L13 10L10 10L10 9L11 9L11 8L6 8L6 9L5 9L5 8L0 8L0 10L1 10L1 11L8 11L8 12L1 12L1 13L2 13L2 14L0 14L0 15L1 15L1 16L3 16L3 17L0 17L0 19L1 19L1 18L2 18L2 20L1 20L1 21L0 21L0 23L2 23L2 24L3 24L3 25L2 25L2 26L3 26L3 27L2 27L2 28L3 28L3 27L4 27L4 29L5 29L5 27L7 27L7 26L6 26L6 25L8 25L8 26L9 26L9 24L10 24L10 22L9 22L9 21L12 21L12 22L13 22L13 23L12 23L12 25L13 25L13 24L14 24L14 25L17 25L17 26L20 26L20 25L21 25L21 26L22 26L22 25L23 25L23 26L24 26L24 27L26 27L26 28L24 28L24 29L22 29L22 30L21 30L21 32L19 32L19 31L18 31L18 30L15 30L15 29L19 29L19 30L20 30L20 29L21 29L21 28L22 28L22 27L21 27L21 28L20 28L20 29L19 29L19 28L15 28L15 27L16 27L16 26L15 26L15 27L14 27L14 28L15 28L15 29L12 29L12 27L13 27L13 26L11 26L11 29L12 29L12 30L13 30L13 31L12 31L12 33L13 33L13 32L14 32L14 33L19 33L19 34L20 34L20 36L17 36L17 35L18 35L18 34L15 34L15 35L14 35L14 36L15 36L15 37L20 37L20 36L22 36L22 35L23 35L23 36L25 36L25 37L27 37L27 36L30 36L30 35L28 35L28 34L26 34L26 36L25 36L25 33L30 33L30 34L31 34L31 33L32 33L32 34L34 34L34 35L32 35L32 37L33 37L33 36L34 36L34 37L37 37L37 32L36 32L36 31L37 31L37 30L35 30L35 32L34 32L34 33L33 33L33 31L34 31L34 29L36 29L36 28L34 28L34 29L33 29L33 27L34 27L34 26L30 26L30 25L31 25L31 24L32 24L32 25L33 25L33 23L34 23L34 22L32 22L32 21L33 21L33 20L32 20L32 19L31 19L31 18L32 18L32 17L33 17L33 19L34 19L34 18L35 18L35 20L34 20L34 21L35 21L35 20L36 20L36 21L37 21L37 18L35 18L35 17L36 17L36 16L37 16L37 14L35 14L35 13L34 13L34 11L35 11L35 12L36 12L36 13L37 13L37 10L35 10L35 9L36 9L36 8L35 8L35 9L34 9L34 8L33 8L33 9L34 9L34 10L32 10L32 8L31 8L31 11L32 11L32 13L31 13L31 12L30 12L30 13L31 13L31 15L30 15L30 14L29 14L29 12L27 12L27 11L30 11L30 10L29 10L29 9L30 9L30 8L29 8L29 9L28 9L28 7L29 7L29 5L26 5L26 4L27 4L27 2L28 2L28 3L29 3L29 2L28 2L28 1L29 1L29 0L28 0L28 1L27 1L27 2L26 2L26 1L25 1L25 0L23 0L23 1L22 1L22 2L20 2L20 3L25 3L25 5L24 5L24 4L19 4L19 3L15 3L15 2L17 2L17 1L15 1L15 0L14 0L14 1L11 1L11 2L10 2L10 0ZM19 0L19 1L18 1L18 2L19 2L19 1L20 1L20 0ZM23 1L23 2L25 2L25 3L26 3L26 2L25 2L25 1ZM12 2L12 4L14 4L14 5L17 5L17 7L16 7L16 6L15 6L15 7L14 7L14 6L13 6L13 7L14 7L14 8L15 8L15 7L16 7L16 9L17 9L17 11L15 11L15 12L18 12L18 13L15 13L15 14L16 14L16 15L14 15L14 16L13 16L13 17L12 17L12 15L13 15L13 14L12 14L12 13L11 13L11 11L10 11L10 12L8 12L8 13L6 13L6 14L7 14L7 15L5 15L5 14L4 14L4 13L3 13L3 14L2 14L2 15L3 15L3 14L4 14L4 16L5 16L5 17L3 17L3 18L4 18L4 19L5 19L5 22L4 22L4 25L3 25L3 26L4 26L4 27L5 27L5 25L6 25L6 24L9 24L9 22L8 22L8 23L6 23L6 22L7 22L7 21L6 21L6 20L8 20L8 19L9 19L9 20L11 20L11 18L13 18L13 19L12 19L12 21L15 21L15 22L16 22L16 23L17 23L17 24L18 24L18 23L19 23L19 24L21 24L21 25L22 25L22 24L21 24L21 22L18 22L18 21L22 21L22 23L23 23L23 25L24 25L24 26L25 26L25 25L24 25L24 24L27 24L27 25L26 25L26 26L28 26L28 25L29 25L29 24L30 24L30 22L31 22L31 21L30 21L30 22L29 22L29 23L28 23L28 24L27 24L27 22L28 22L28 21L27 21L27 22L26 22L26 21L25 21L25 20L27 20L27 18L28 18L28 19L30 19L30 18L31 18L31 17L29 17L29 16L27 16L27 17L24 17L24 15L25 15L25 16L26 16L26 15L25 15L25 13L24 13L24 14L23 14L23 13L22 13L22 12L24 12L24 11L25 11L25 12L26 12L26 14L28 14L28 13L27 13L27 12L26 12L26 10L28 10L28 9L26 9L26 10L25 10L25 9L24 9L24 10L21 10L21 9L23 9L23 8L26 8L26 6L25 6L25 7L24 7L24 5L23 5L23 7L22 7L22 6L21 6L21 5L17 5L17 4L15 4L15 3L14 3L14 2ZM10 3L10 4L11 4L11 3ZM8 5L8 7L9 7L9 5ZM18 6L18 7L19 7L19 6ZM20 6L20 9L18 9L18 8L17 8L17 9L18 9L18 11L19 11L19 10L20 10L20 9L21 9L21 8L22 8L22 7L21 7L21 6ZM27 6L27 7L28 7L28 6ZM2 9L2 10L4 10L4 9ZM6 9L6 10L8 10L8 11L9 11L9 10L8 10L8 9ZM20 11L20 13L18 13L18 14L17 14L17 15L16 15L16 16L14 16L14 17L16 17L16 18L15 18L15 19L14 19L14 20L15 20L15 21L16 21L16 22L17 22L17 23L18 23L18 22L17 22L17 21L18 21L18 20L17 20L17 21L16 21L16 19L19 19L19 18L20 18L20 20L22 20L22 21L23 21L23 22L24 22L24 21L23 21L23 20L22 20L22 19L23 19L23 18L24 18L24 19L26 19L26 18L24 18L24 17L23 17L23 16L22 16L22 15L23 15L23 14L22 14L22 13L21 13L21 12L22 12L22 11ZM8 13L8 14L9 14L9 15L7 15L7 16L6 16L6 17L7 17L7 18L5 18L5 19L7 19L7 18L8 18L8 17L9 17L9 15L10 15L10 16L11 16L11 15L10 15L10 14L11 14L11 13L10 13L10 14L9 14L9 13ZM20 13L20 14L19 14L19 16L18 16L18 15L17 15L17 16L16 16L16 17L17 17L17 18L18 18L18 17L19 17L19 16L20 16L20 18L21 18L21 19L22 19L22 18L23 18L23 17L22 17L22 16L20 16L20 14L21 14L21 13ZM32 13L32 14L33 14L33 13ZM31 15L31 16L35 16L35 15ZM17 16L17 17L18 17L18 16ZM21 17L21 18L22 18L22 17ZM9 18L9 19L10 19L10 18ZM2 20L2 21L1 21L1 22L2 22L2 23L3 23L3 20ZM25 22L25 23L26 23L26 22ZM35 22L35 24L34 24L34 25L36 25L36 23L37 23L37 22ZM14 23L14 24L15 24L15 23ZM0 24L0 29L1 29L1 24ZM29 26L29 27L28 27L28 28L30 28L30 26ZM35 26L35 27L37 27L37 26ZM8 27L8 31L9 31L9 32L8 32L8 37L9 37L9 36L10 36L10 37L12 37L12 35L13 35L13 34L11 34L11 36L10 36L10 34L9 34L9 33L10 33L10 32L11 32L11 31L9 31L9 30L10 30L10 27ZM6 28L6 29L7 29L7 28ZM24 29L24 30L22 30L22 32L21 32L21 33L20 33L20 34L21 34L21 33L22 33L22 34L23 34L23 35L24 35L24 34L23 34L23 33L22 33L22 32L26 32L26 31L27 31L27 32L28 32L28 30L27 30L27 29L26 29L26 31L25 31L25 29ZM29 29L29 32L32 32L32 29ZM30 30L30 31L31 31L31 30ZM14 31L14 32L16 32L16 31ZM17 31L17 32L18 32L18 31ZM34 33L34 34L35 34L35 33ZM34 35L34 36L36 36L36 35ZM0 0L0 7L7 7L7 0ZM1 1L1 6L6 6L6 1ZM2 2L2 5L5 5L5 2ZM30 0L30 7L37 7L37 0ZM31 1L31 6L36 6L36 1ZM32 2L32 5L35 5L35 2ZM0 30L0 37L7 37L7 30ZM1 31L1 36L6 36L6 31ZM2 32L2 35L5 35L5 32Z" fill="#000000"/></g></g></svg>
