<?xml version="1.0" encoding="UTF-8"?>
<svg xmlns="http://www.w3.org/2000/svg" version="1.1" width="100" height="100" viewBox="0 0 100 100"><rect x="0" y="0" width="100" height="100" fill="#ffffff"/><g transform="scale(2.703)"><g transform="translate(0,0)"><path fill-rule="evenodd" d="M8 0L8 4L9 4L9 5L8 5L8 7L9 7L9 6L10 6L10 9L8 9L8 11L7 11L7 10L6 10L6 9L7 9L7 8L4 8L4 10L3 10L3 9L2 9L2 8L0 8L0 9L2 9L2 10L0 10L0 11L2 11L2 14L1 14L1 12L0 12L0 16L1 16L1 17L0 17L0 19L1 19L1 18L2 18L2 16L1 16L1 15L3 15L3 19L2 19L2 20L1 20L1 21L0 21L0 22L2 22L2 23L1 23L1 25L0 25L0 26L1 26L1 25L3 25L3 26L2 26L2 28L0 28L0 29L2 29L2 28L3 28L3 27L4 27L4 29L5 29L5 28L6 28L6 29L7 29L7 28L8 28L8 27L9 27L9 26L10 26L10 27L11 27L11 26L10 26L10 25L11 25L11 24L12 24L12 25L13 25L13 26L15 26L15 27L14 27L14 28L13 28L13 27L12 27L12 28L9 28L9 29L8 29L8 30L9 30L9 31L8 31L8 33L9 33L9 35L8 35L8 37L9 37L9 35L10 35L10 37L12 37L12 36L13 36L13 37L15 37L15 36L16 36L16 29L19 29L19 28L18 28L18 27L17 27L17 26L16 26L16 25L18 25L18 26L19 26L19 25L18 25L18 24L19 24L19 20L18 20L18 19L19 19L19 18L17 18L17 19L16 19L16 17L20 17L20 22L21 22L21 25L20 25L20 26L21 26L21 29L20 29L20 32L18 32L18 31L19 31L19 30L17 30L17 33L20 33L20 35L21 35L21 37L22 37L22 35L24 35L24 33L25 33L25 35L26 35L26 34L27 34L27 37L28 37L28 35L30 35L30 36L29 36L29 37L31 37L31 35L32 35L32 34L31 34L31 33L33 33L33 31L34 31L34 34L33 34L33 35L34 35L34 36L32 36L32 37L37 37L37 36L36 36L36 35L35 35L35 34L37 34L37 33L35 33L35 31L36 31L36 32L37 32L37 31L36 31L36 29L37 29L37 28L36 28L36 25L37 25L37 24L36 24L36 25L35 25L35 23L36 23L36 21L37 21L37 20L36 20L36 17L37 17L37 16L36 16L36 13L35 13L35 12L36 12L36 9L37 9L37 8L33 8L33 9L32 9L32 8L31 8L31 10L30 10L30 12L29 12L29 11L28 11L28 10L29 10L29 9L28 9L28 8L29 8L29 4L28 4L28 2L26 2L26 1L28 1L28 0L26 0L26 1L24 1L24 0L23 0L23 1L24 1L24 2L23 2L23 5L24 5L24 4L25 4L25 5L26 5L26 8L27 8L27 9L25 9L25 6L24 6L24 7L23 7L23 6L22 6L22 7L21 7L21 6L20 6L20 5L22 5L22 4L21 4L21 3L22 3L22 2L21 2L21 0L20 0L20 1L19 1L19 0L17 0L17 1L16 1L16 0L15 0L15 1L14 1L14 0L13 0L13 1L11 1L11 2L12 2L12 5L13 5L13 6L12 6L12 7L11 7L11 3L10 3L10 2L9 2L9 0ZM15 1L15 2L13 2L13 3L14 3L14 6L13 6L13 7L12 7L12 8L11 8L11 9L10 9L10 10L11 10L11 11L9 11L9 12L8 12L8 14L7 14L7 13L5 13L5 12L4 12L4 11L3 11L3 10L2 10L2 11L3 11L3 12L4 12L4 13L3 13L3 15L4 15L4 17L5 17L5 16L9 16L9 13L10 13L10 15L11 15L11 14L12 14L12 13L14 13L14 15L12 15L12 16L10 16L10 18L9 18L9 17L8 17L8 18L9 18L9 20L10 20L10 18L11 18L11 20L12 20L12 21L10 21L10 23L9 23L9 22L8 22L8 19L6 19L6 20L5 20L5 23L4 23L4 24L3 24L3 23L2 23L2 24L3 24L3 25L5 25L5 27L6 27L6 28L7 28L7 27L6 27L6 26L7 26L7 25L8 25L8 26L9 26L9 25L10 25L10 24L11 24L11 22L12 22L12 21L13 21L13 22L14 22L14 21L13 21L13 20L15 20L15 21L17 21L17 20L15 20L15 19L13 19L13 17L15 17L15 13L16 13L16 14L18 14L18 15L19 15L19 16L20 16L20 17L21 17L21 16L20 16L20 13L21 13L21 15L22 15L22 18L21 18L21 19L22 19L22 20L23 20L23 21L21 21L21 22L22 22L22 24L23 24L23 25L21 25L21 26L23 26L23 25L24 25L24 26L25 26L25 27L22 27L22 29L21 29L21 30L22 30L22 29L23 29L23 28L25 28L25 29L24 29L24 30L26 30L26 25L28 25L28 24L26 24L26 23L25 23L25 25L24 25L24 24L23 24L23 21L24 21L24 22L26 22L26 21L27 21L27 20L28 20L28 22L31 22L31 25L29 25L29 27L30 27L30 26L31 26L31 27L32 27L32 28L33 28L33 30L34 30L34 31L35 31L35 30L34 30L34 29L36 29L36 28L33 28L33 26L35 26L35 25L33 25L33 22L35 22L35 21L36 21L36 20L35 20L35 21L33 21L33 19L31 19L31 17L33 17L33 18L34 18L34 17L33 17L33 16L32 16L32 14L31 14L31 13L30 13L30 14L28 14L28 15L30 15L30 16L31 16L31 17L30 17L30 19L27 19L27 18L26 18L26 19L25 19L25 18L24 18L24 19L23 19L23 15L22 15L22 13L21 13L21 11L20 11L20 9L21 9L21 7L20 7L20 6L19 6L19 5L20 5L20 2L19 2L19 1L17 1L17 2L19 2L19 3L16 3L16 5L15 5L15 2L16 2L16 1ZM25 2L25 3L26 3L26 2ZM26 4L26 5L27 5L27 7L28 7L28 5L27 5L27 4ZM14 6L14 7L15 7L15 8L16 8L16 9L13 9L13 8L12 8L12 9L13 9L13 10L14 10L14 11L15 11L15 12L14 12L14 13L15 13L15 12L16 12L16 13L20 13L20 12L19 12L19 11L17 11L17 12L16 12L16 9L18 9L18 10L19 10L19 9L20 9L20 8L19 8L19 9L18 9L18 7L19 7L19 6L18 6L18 7L17 7L17 6L16 6L16 7L15 7L15 6ZM16 7L16 8L17 8L17 7ZM22 7L22 8L23 8L23 9L22 9L22 11L23 11L23 9L24 9L24 11L25 11L25 13L24 13L24 12L23 12L23 13L24 13L24 14L26 14L26 11L27 11L27 10L25 10L25 9L24 9L24 8L23 8L23 7ZM33 9L33 10L35 10L35 9ZM6 11L6 12L7 12L7 11ZM12 11L12 12L11 12L11 13L12 13L12 12L13 12L13 11ZM27 12L27 13L29 13L29 12ZM32 12L32 13L33 13L33 14L35 14L35 13L33 13L33 12ZM6 14L6 15L7 15L7 14ZM25 15L25 17L29 17L29 16L27 16L27 15ZM12 16L12 17L13 17L13 16ZM35 16L35 17L36 17L36 16ZM6 17L6 18L7 18L7 17ZM4 18L4 19L3 19L3 20L2 20L2 21L3 21L3 20L4 20L4 19L5 19L5 18ZM12 19L12 20L13 20L13 19ZM26 19L26 20L27 20L27 19ZM30 19L30 20L29 20L29 21L31 21L31 19ZM6 20L6 21L7 21L7 20ZM32 21L32 22L33 22L33 21ZM6 22L6 23L5 23L5 24L6 24L6 25L7 25L7 24L6 24L6 23L7 23L7 22ZM12 23L12 24L13 24L13 23ZM14 23L14 25L15 25L15 23ZM29 23L29 24L30 24L30 23ZM8 24L8 25L9 25L9 24ZM32 25L32 26L33 26L33 25ZM12 28L12 29L9 29L9 30L10 30L10 31L9 31L9 33L11 33L11 34L10 34L10 35L11 35L11 36L12 36L12 35L13 35L13 36L14 36L14 35L15 35L15 34L13 34L13 33L12 33L12 32L13 32L13 31L12 31L12 32L10 32L10 31L11 31L11 30L12 30L12 29L13 29L13 30L15 30L15 29L16 29L16 28L15 28L15 29L13 29L13 28ZM27 28L27 29L28 29L28 28ZM29 29L29 32L32 32L32 29ZM27 30L27 32L26 32L26 31L25 31L25 33L28 33L28 34L30 34L30 33L28 33L28 30ZM30 30L30 31L31 31L31 30ZM14 31L14 33L15 33L15 31ZM23 31L23 32L22 32L22 33L23 33L23 32L24 32L24 31ZM20 32L20 33L21 33L21 32ZM17 34L17 37L18 37L18 34ZM19 36L19 37L20 37L20 36ZM0 0L0 7L7 7L7 0ZM1 1L1 6L6 6L6 1ZM2 2L2 5L5 5L5 2ZM30 0L30 7L37 7L37 0ZM31 1L31 6L36 6L36 1ZM32 2L32 5L35 5L35 2ZM0 30L0 37L7 37L7 30ZM1 31L1 36L6 36L6 31ZM2 32L2 35L5 35L5 32Z" fill="#000000"/></g></g></svg>
