<?xml version="1.0" encoding="UTF-8"?>
<svg xmlns="http://www.w3.org/2000/svg" version="1.1" width="100" height="100" viewBox="0 0 100 100"><rect x="0" y="0" width="100" height="100" fill="#ffffff"/><g transform="scale(2.703)"><g transform="translate(0,0)"><path fill-rule="evenodd" d="M10 0L10 2L11 2L11 0ZM12 0L12 1L13 1L13 2L12 2L12 4L13 4L13 3L14 3L14 4L15 4L15 5L20 5L20 9L18 9L18 8L17 8L17 6L16 6L16 9L12 9L12 7L13 7L13 5L11 5L11 6L10 6L10 4L11 4L11 3L8 3L8 4L9 4L9 5L8 5L8 7L9 7L9 8L6 8L6 9L7 9L7 10L6 10L6 11L5 11L5 10L4 10L4 9L5 9L5 8L0 8L0 10L3 10L3 11L2 11L2 12L4 12L4 11L5 11L5 12L6 12L6 13L5 13L5 14L6 14L6 15L2 15L2 14L3 14L3 13L2 13L2 14L1 14L1 11L0 11L0 15L1 15L1 16L2 16L2 17L0 17L0 19L1 19L1 20L0 20L0 21L1 21L1 20L2 20L2 19L3 19L3 18L5 18L5 19L4 19L4 20L5 20L5 21L3 21L3 22L2 22L2 24L1 24L1 22L0 22L0 24L1 24L1 25L0 25L0 29L1 29L1 25L2 25L2 26L3 26L3 28L2 28L2 29L3 29L3 28L4 28L4 29L5 29L5 27L7 27L7 28L6 28L6 29L8 29L8 31L9 31L9 32L8 32L8 37L9 37L9 36L11 36L11 35L9 35L9 33L10 33L10 34L11 34L11 33L12 33L12 34L13 34L13 35L12 35L12 37L13 37L13 36L14 36L14 37L20 37L20 36L23 36L23 37L28 37L28 36L29 36L29 35L30 35L30 37L31 37L31 36L33 36L33 35L34 35L34 33L35 33L35 35L36 35L36 36L34 36L34 37L37 37L37 32L36 32L36 33L35 33L35 32L34 32L34 33L33 33L33 31L34 31L34 30L33 30L33 27L34 27L34 26L32 26L32 28L31 28L31 26L30 26L30 25L31 25L31 24L32 24L32 25L33 25L33 23L34 23L34 22L35 22L35 24L34 24L34 25L36 25L36 23L37 23L37 22L35 22L35 20L33 20L33 19L36 19L36 20L37 20L37 18L35 18L35 17L34 17L34 14L33 14L33 16L32 16L32 15L31 15L31 16L30 16L30 17L31 17L31 19L30 19L30 18L29 18L29 15L30 15L30 14L29 14L29 15L28 15L28 14L26 14L26 13L27 13L27 12L29 12L29 13L31 13L31 14L32 14L32 13L36 13L36 12L37 12L37 10L35 10L35 12L30 12L30 11L29 11L29 9L30 9L30 8L27 8L27 6L28 6L28 7L29 7L29 4L28 4L28 2L29 2L29 1L26 1L26 0L25 0L25 1L24 1L24 0L23 0L23 1L24 1L24 2L27 2L27 3L25 3L25 4L21 4L21 3L23 3L23 2L22 2L22 0L21 0L21 1L20 1L20 0L19 0L19 1L16 1L16 0ZM8 1L8 2L9 2L9 1ZM19 1L19 2L16 2L16 4L17 4L17 3L19 3L19 4L20 4L20 5L21 5L21 4L20 4L20 3L19 3L19 2L20 2L20 1ZM14 2L14 3L15 3L15 2ZM25 4L25 5L26 5L26 6L25 6L25 8L26 8L26 6L27 6L27 5L28 5L28 4ZM23 5L23 7L24 7L24 5ZM9 6L9 7L10 7L10 6ZM11 6L11 7L12 7L12 6ZM14 6L14 8L15 8L15 6ZM18 6L18 7L19 7L19 6ZM21 6L21 7L22 7L22 6ZM10 8L10 9L11 9L11 11L10 11L10 10L7 10L7 11L6 11L6 12L7 12L7 11L10 11L10 12L8 12L8 13L9 13L9 15L8 15L8 14L7 14L7 13L6 13L6 14L7 14L7 15L6 15L6 16L5 16L5 18L8 18L8 19L11 19L11 21L10 21L10 25L8 25L8 24L9 24L9 23L8 23L8 22L7 22L7 21L5 21L5 25L4 25L4 27L5 27L5 25L6 25L6 26L7 26L7 27L8 27L8 28L11 28L11 30L10 30L10 29L9 29L9 31L10 31L10 32L11 32L11 30L13 30L13 31L12 31L12 33L15 33L15 34L16 34L16 35L14 35L14 36L16 36L16 35L17 35L17 36L18 36L18 34L19 34L19 36L20 36L20 34L21 34L21 35L22 35L22 34L21 34L21 33L24 33L24 34L23 34L23 36L24 36L24 35L25 35L25 36L27 36L27 35L28 35L28 34L27 34L27 35L25 35L25 34L26 34L26 33L24 33L24 32L26 32L26 31L24 31L24 30L25 30L25 29L24 29L24 28L27 28L27 26L28 26L28 25L29 25L29 23L30 23L30 22L33 22L33 21L32 21L32 20L31 20L31 21L29 21L29 19L28 19L28 20L27 20L27 22L26 22L26 21L25 21L25 24L23 24L23 25L22 25L22 24L18 24L18 23L24 23L24 22L21 22L21 21L23 21L23 20L21 20L21 19L20 19L20 18L23 18L23 19L24 19L24 20L26 20L26 19L25 19L25 18L23 18L23 16L24 16L24 17L25 17L25 16L26 16L26 18L28 18L28 17L27 17L27 16L26 16L26 14L23 14L23 13L22 13L22 12L21 12L21 11L23 11L23 12L24 12L24 13L25 13L25 12L26 12L26 11L25 11L25 9L24 9L24 8L21 8L21 9L20 9L20 10L19 10L19 12L21 12L21 13L20 13L20 14L19 14L19 13L17 13L17 12L18 12L18 11L16 11L16 13L17 13L17 14L15 14L15 13L14 13L14 12L15 12L15 11L14 11L14 12L13 12L13 13L12 13L12 11L13 11L13 10L12 10L12 9L11 9L11 8ZM31 8L31 11L33 11L33 10L32 10L32 8ZM33 8L33 9L34 9L34 8ZM35 8L35 9L36 9L36 8ZM16 9L16 10L18 10L18 9ZM21 9L21 10L24 10L24 9ZM26 9L26 10L28 10L28 9ZM24 11L24 12L25 12L25 11ZM10 12L10 13L11 13L11 12ZM21 13L21 14L20 14L20 16L19 16L19 14L18 14L18 16L17 16L17 15L16 15L16 16L17 16L17 17L19 17L19 18L16 18L16 17L12 17L12 15L13 15L13 14L11 14L11 17L9 17L9 16L10 16L10 15L9 15L9 16L8 16L8 17L9 17L9 18L11 18L11 17L12 17L12 18L13 18L13 19L12 19L12 21L13 21L13 20L14 20L14 21L16 21L16 22L15 22L15 23L14 23L14 24L15 24L15 25L12 25L12 23L13 23L13 22L11 22L11 25L12 25L12 26L13 26L13 27L12 27L12 29L13 29L13 28L14 28L14 29L16 29L16 30L15 30L15 31L14 31L14 32L15 32L15 33L17 33L17 34L18 34L18 33L19 33L19 34L20 34L20 33L21 33L21 32L22 32L22 31L23 31L23 30L24 30L24 29L23 29L23 28L22 28L22 27L21 27L21 26L22 26L22 25L18 25L18 24L17 24L17 23L16 23L16 22L17 22L17 21L19 21L19 22L20 22L20 21L21 21L21 20L20 20L20 21L19 21L19 20L17 20L17 19L19 19L19 18L20 18L20 16L23 16L23 15L22 15L22 13ZM35 14L35 16L36 16L36 17L37 17L37 14ZM14 15L14 16L15 16L15 15ZM24 15L24 16L25 16L25 15ZM3 16L3 17L2 17L2 18L1 18L1 19L2 19L2 18L3 18L3 17L4 17L4 16ZM6 16L6 17L7 17L7 16ZM32 17L32 18L33 18L33 17ZM6 19L6 20L7 20L7 19ZM14 19L14 20L15 20L15 19ZM16 20L16 21L17 21L17 20ZM28 21L28 22L27 22L27 24L25 24L25 25L26 25L26 26L25 26L25 27L26 27L26 26L27 26L27 25L28 25L28 23L29 23L29 21ZM3 22L3 23L4 23L4 22ZM6 22L6 23L7 23L7 22ZM2 24L2 25L3 25L3 24ZM6 24L6 25L7 25L7 26L8 26L8 27L10 27L10 26L8 26L8 25L7 25L7 24ZM16 24L16 25L15 25L15 26L16 26L16 25L17 25L17 27L16 27L16 29L17 29L17 30L16 30L16 31L15 31L15 32L19 32L19 33L20 33L20 31L22 31L22 30L23 30L23 29L22 29L22 28L21 28L21 27L20 27L20 26L18 26L18 25L17 25L17 24ZM23 25L23 26L24 26L24 25ZM29 26L29 27L28 27L28 28L30 28L30 26ZM35 26L35 28L34 28L34 29L36 29L36 28L37 28L37 26ZM14 27L14 28L15 28L15 27ZM18 27L18 28L17 28L17 29L19 29L19 30L20 30L20 29L21 29L21 30L22 30L22 29L21 29L21 28L20 28L20 27ZM19 28L19 29L20 29L20 28ZM26 29L26 30L27 30L27 32L28 32L28 30L27 30L27 29ZM29 29L29 32L32 32L32 29ZM17 30L17 31L18 31L18 30ZM30 30L30 31L31 31L31 30ZM35 30L35 31L37 31L37 30ZM30 34L30 35L33 35L33 34ZM0 0L0 7L7 7L7 0ZM1 1L1 6L6 6L6 1ZM2 2L2 5L5 5L5 2ZM30 0L30 7L37 7L37 0ZM31 1L31 6L36 6L36 1ZM32 2L32 5L35 5L35 2ZM0 30L0 37L7 37L7 30ZM1 31L1 36L6 36L6 31ZM2 32L2 35L5 35L5 32Z" fill="#000000"/></g></g></svg>
