<?xml version="1.0" encoding="UTF-8"?>
<svg xmlns="http://www.w3.org/2000/svg" version="1.1" width="100" height="100" viewBox="0 0 100 100"><rect x="0" y="0" width="100" height="100" fill="#ffffff"/><g transform="scale(2.703)"><g transform="translate(0,0)"><path fill-rule="evenodd" d="M9 0L9 1L8 1L8 2L9 2L9 3L8 3L8 4L10 4L10 7L11 7L11 4L12 4L12 5L13 5L13 6L12 6L12 9L19 9L19 10L18 10L18 12L16 12L16 10L15 10L15 11L14 11L14 10L10 10L10 11L11 11L11 12L9 12L9 13L7 13L7 12L8 12L8 11L9 11L9 10L8 10L8 9L11 9L11 8L6 8L6 9L5 9L5 8L0 8L0 10L1 10L1 9L2 9L2 10L3 10L3 11L2 11L2 13L0 13L0 14L1 14L1 15L2 15L2 16L0 16L0 17L1 17L1 19L0 19L0 20L1 20L1 22L0 22L0 23L1 23L1 24L2 24L2 25L0 25L0 29L1 29L1 26L2 26L2 28L3 28L3 29L8 29L8 31L9 31L9 32L8 32L8 37L9 37L9 36L11 36L11 37L12 37L12 35L13 35L13 34L11 34L11 35L10 35L10 33L11 33L11 30L10 30L10 31L9 31L9 29L8 29L8 28L10 28L10 26L11 26L11 29L12 29L12 30L13 30L13 31L12 31L12 33L13 33L13 32L14 32L14 33L15 33L15 32L17 32L17 33L19 33L19 34L20 34L20 33L21 33L21 36L16 36L16 35L17 35L17 34L15 34L15 35L14 35L14 36L16 36L16 37L21 37L21 36L25 36L25 37L27 37L27 36L29 36L29 37L31 37L31 36L30 36L30 35L28 35L28 34L27 34L27 36L25 36L25 35L26 35L26 34L24 34L24 33L30 33L30 34L31 34L31 35L32 35L32 34L33 34L33 35L36 35L36 36L32 36L32 37L37 37L37 33L34 33L34 31L33 31L33 30L36 30L36 31L35 31L35 32L36 32L36 31L37 31L37 30L36 30L36 29L37 29L37 26L36 26L36 25L37 25L37 22L36 22L36 21L37 21L37 20L36 20L36 21L35 21L35 20L34 20L34 19L35 19L35 18L36 18L36 19L37 19L37 18L36 18L36 17L37 17L37 16L36 16L36 15L37 15L37 14L36 14L36 13L37 13L37 10L36 10L36 8L35 8L35 10L36 10L36 12L34 12L34 11L33 11L33 10L31 10L31 12L30 12L30 10L29 10L29 9L30 9L30 8L29 8L29 9L28 9L28 10L27 10L27 11L26 11L26 12L24 12L24 13L23 13L23 12L22 12L22 11L23 11L23 10L24 10L24 11L25 11L25 10L24 10L24 9L27 9L27 8L28 8L28 7L29 7L29 2L28 2L28 1L26 1L26 0L25 0L25 1L24 1L24 0L23 0L23 1L24 1L24 2L25 2L25 1L26 1L26 3L25 3L25 4L26 4L26 5L25 5L25 6L24 6L24 7L25 7L25 6L26 6L26 8L24 8L24 9L23 9L23 6L22 6L22 5L21 5L21 6L20 6L20 8L22 8L22 9L23 9L23 10L21 10L21 9L19 9L19 6L18 6L18 8L17 8L17 5L15 5L15 6L14 6L14 5L13 5L13 4L19 4L19 5L20 5L20 4L21 4L21 3L22 3L22 4L23 4L23 5L24 5L24 4L23 4L23 2L22 2L22 0L21 0L21 3L20 3L20 2L19 2L19 3L17 3L17 1L20 1L20 0L16 0L16 1L11 1L11 2L10 2L10 0ZM12 2L12 4L13 4L13 3L15 3L15 2ZM10 3L10 4L11 4L11 3ZM19 3L19 4L20 4L20 3ZM27 4L27 5L26 5L26 6L27 6L27 7L28 7L28 6L27 6L27 5L28 5L28 4ZM8 5L8 7L9 7L9 5ZM13 6L13 8L15 8L15 7L16 7L16 6L15 6L15 7L14 7L14 6ZM21 6L21 7L22 7L22 6ZM31 8L31 9L32 9L32 8ZM33 8L33 9L34 9L34 8ZM3 9L3 10L4 10L4 9ZM6 9L6 10L5 10L5 11L4 11L4 12L3 12L3 15L4 15L4 16L3 16L3 17L2 17L2 19L3 19L3 20L2 20L2 21L3 21L3 22L2 22L2 23L3 23L3 24L4 24L4 25L3 25L3 26L4 26L4 27L3 27L3 28L8 28L8 27L6 27L6 26L10 26L10 25L6 25L6 24L7 24L7 23L9 23L9 24L10 24L10 23L11 23L11 26L13 26L13 27L12 27L12 29L15 29L15 30L17 30L17 32L19 32L19 33L20 33L20 32L19 32L19 31L20 31L20 30L21 30L21 31L24 31L24 32L26 32L26 31L25 31L25 29L24 29L24 30L23 30L23 29L22 29L22 28L21 28L21 29L20 29L20 28L19 28L19 27L20 27L20 26L19 26L19 27L18 27L18 25L22 25L22 26L21 26L21 27L25 27L25 28L26 28L26 30L27 30L27 32L28 32L28 29L27 29L27 28L26 28L26 26L28 26L28 28L31 28L31 27L32 27L32 28L33 28L33 29L34 29L34 28L35 28L35 29L36 29L36 26L33 26L33 25L34 25L34 24L35 24L35 25L36 25L36 24L35 24L35 23L36 23L36 22L33 22L33 21L34 21L34 20L33 20L33 19L34 19L34 18L35 18L35 17L36 17L36 16L35 16L35 15L36 15L36 14L35 14L35 13L34 13L34 12L33 12L33 13L32 13L32 12L31 12L31 13L30 13L30 14L31 14L31 16L32 16L32 14L35 14L35 15L34 15L34 16L33 16L33 17L30 17L30 18L28 18L28 17L29 17L29 16L30 16L30 15L28 15L28 17L25 17L25 18L26 18L26 19L25 19L25 20L23 20L23 21L22 21L22 20L20 20L20 18L21 18L21 19L22 19L22 18L23 18L23 19L24 19L24 18L23 18L23 16L27 16L27 15L25 15L25 13L24 13L24 14L21 14L21 13L22 13L22 12L21 12L21 10L19 10L19 12L18 12L18 13L16 13L16 12L15 12L15 13L13 13L13 12L14 12L14 11L12 11L12 13L11 13L11 14L10 14L10 13L9 13L9 14L8 14L8 16L9 16L9 17L6 17L6 16L7 16L7 15L5 15L5 14L7 14L7 13L5 13L5 14L4 14L4 12L5 12L5 11L6 11L6 12L7 12L7 11L8 11L8 10L7 10L7 9ZM6 10L6 11L7 11L7 10ZM0 11L0 12L1 12L1 11ZM28 11L28 13L27 13L27 12L26 12L26 14L28 14L28 13L29 13L29 11ZM20 12L20 13L18 13L18 14L17 14L17 15L16 15L16 14L14 14L14 15L16 15L16 16L13 16L13 15L12 15L12 17L19 17L19 18L18 18L18 19L19 19L19 18L20 18L20 17L21 17L21 16L23 16L23 15L19 15L19 14L20 14L20 13L21 13L21 12ZM12 13L12 14L13 14L13 13ZM10 15L10 17L9 17L9 21L7 21L7 20L6 20L6 19L7 19L7 18L6 18L6 19L4 19L4 17L3 17L3 19L4 19L4 20L6 20L6 21L5 21L5 22L3 22L3 23L7 23L7 22L9 22L9 21L12 21L12 22L13 22L13 23L12 23L12 25L13 25L13 24L14 24L14 25L16 25L16 26L15 26L15 27L14 27L14 28L15 28L15 29L19 29L19 30L20 30L20 29L19 29L19 28L16 28L16 27L17 27L17 25L18 25L18 24L17 24L17 25L16 25L16 23L17 23L17 22L20 22L20 20L17 20L17 19L16 19L16 18L15 18L15 19L14 19L14 18L11 18L11 15ZM17 15L17 16L19 16L19 17L20 17L20 16L19 16L19 15ZM34 16L34 17L35 17L35 16ZM10 18L10 19L11 19L11 18ZM27 18L27 19L26 19L26 20L25 20L25 23L26 23L26 24L24 24L24 25L23 25L23 23L21 23L21 24L22 24L22 25L23 25L23 26L24 26L24 25L25 25L25 26L26 26L26 25L28 25L28 26L29 26L29 27L30 27L30 26L29 26L29 25L31 25L31 26L32 26L32 25L33 25L33 24L34 24L34 23L33 23L33 24L32 24L32 23L31 23L31 24L30 24L30 23L29 23L29 24L28 24L28 22L26 22L26 21L27 21L27 19L28 19L28 20L29 20L29 21L31 21L31 22L32 22L32 21L33 21L33 20L30 20L30 19L31 19L31 18L30 18L30 19L28 19L28 18ZM12 19L12 21L14 21L14 22L16 22L16 21L17 21L17 20L16 20L16 21L15 21L15 20L14 20L14 19ZM6 21L6 22L7 22L7 21ZM21 21L21 22L22 22L22 21ZM23 21L23 22L24 22L24 21ZM14 23L14 24L15 24L15 23ZM19 23L19 24L20 24L20 23ZM4 25L4 26L5 26L5 25ZM33 27L33 28L34 28L34 27ZM21 29L21 30L22 30L22 29ZM29 29L29 32L32 32L32 29ZM30 30L30 31L31 31L31 30ZM14 31L14 32L15 32L15 31ZM9 32L9 33L10 33L10 32ZM21 32L21 33L22 33L22 35L24 35L24 34L23 34L23 33L22 33L22 32ZM0 0L0 7L7 7L7 0ZM1 1L1 6L6 6L6 1ZM2 2L2 5L5 5L5 2ZM30 0L30 7L37 7L37 0ZM31 1L31 6L36 6L36 1ZM32 2L32 5L35 5L35 2ZM0 30L0 37L7 37L7 30ZM1 31L1 36L6 36L6 31ZM2 32L2 35L5 35L5 32Z" fill="#000000"/></g></g></svg>
