<?xml version="1.0" encoding="UTF-8"?>
<svg xmlns="http://www.w3.org/2000/svg" version="1.1" width="100" height="100" viewBox="0 0 100 100"><rect x="0" y="0" width="100" height="100" fill="#ffffff"/><g transform="scale(2.703)"><g transform="translate(0,0)"><path fill-rule="evenodd" d="M10 0L10 2L11 2L11 0ZM12 0L12 1L13 1L13 0ZM14 0L14 2L15 2L15 3L16 3L16 4L18 4L18 5L20 5L20 7L19 7L19 6L18 6L18 7L19 7L19 8L17 8L17 5L15 5L15 4L14 4L14 3L13 3L13 2L12 2L12 4L14 4L14 5L15 5L15 6L14 6L14 8L13 8L13 9L12 9L12 7L13 7L13 5L11 5L11 6L10 6L10 4L11 4L11 3L8 3L8 4L9 4L9 5L8 5L8 7L9 7L9 8L6 8L6 9L8 9L8 10L5 10L5 12L4 12L4 14L3 14L3 13L2 13L2 12L3 12L3 11L2 11L2 10L4 10L4 9L5 9L5 8L0 8L0 9L2 9L2 10L0 10L0 11L2 11L2 12L0 12L0 16L3 16L3 15L4 15L4 16L5 16L5 17L4 17L4 19L3 19L3 17L2 17L2 19L0 19L0 20L2 20L2 21L3 21L3 22L4 22L4 23L3 23L3 24L2 24L2 22L1 22L1 21L0 21L0 22L1 22L1 24L2 24L2 25L3 25L3 27L2 27L2 29L3 29L3 27L5 27L5 26L6 26L6 27L7 27L7 28L5 28L5 29L7 29L7 28L8 28L8 31L10 31L10 32L8 32L8 37L9 37L9 36L10 36L10 37L11 37L11 36L10 36L10 35L9 35L9 34L11 34L11 33L12 33L12 34L13 34L13 35L12 35L12 37L13 37L13 36L14 36L14 37L15 37L15 36L17 36L17 37L19 37L19 36L17 36L17 34L18 34L18 35L19 35L19 34L20 34L20 33L21 33L21 32L23 32L23 33L22 33L22 34L21 34L21 35L20 35L20 37L21 37L21 36L24 36L24 37L27 37L27 36L25 36L25 35L27 35L27 34L28 34L28 33L30 33L30 34L31 34L31 37L37 37L37 33L35 33L35 32L33 32L33 31L37 31L37 29L36 29L36 30L34 30L34 29L33 29L33 28L30 28L30 26L29 26L29 25L28 25L28 26L27 26L27 23L29 23L29 22L30 22L30 21L31 21L31 20L30 20L30 19L31 19L31 18L32 18L32 20L33 20L33 21L35 21L35 24L34 24L34 23L33 23L33 22L32 22L32 23L31 23L31 24L30 24L30 25L31 25L31 27L32 27L32 25L33 25L33 27L34 27L34 25L37 25L37 22L36 22L36 21L37 21L37 20L36 20L36 19L37 19L37 18L36 18L36 17L37 17L37 16L36 16L36 15L37 15L37 14L35 14L35 12L36 12L36 13L37 13L37 10L35 10L35 9L36 9L36 8L35 8L35 9L34 9L34 8L33 8L33 9L34 9L34 10L35 10L35 12L32 12L32 11L31 11L31 10L32 10L32 8L31 8L31 10L30 10L30 8L28 8L28 7L29 7L29 6L28 6L28 5L29 5L29 3L28 3L28 1L26 1L26 0L25 0L25 2L24 2L24 3L22 3L22 2L23 2L23 1L24 1L24 0L23 0L23 1L22 1L22 0L21 0L21 1L20 1L20 0L19 0L19 1L20 1L20 3L19 3L19 2L18 2L18 3L16 3L16 2L17 2L17 1L15 1L15 0ZM8 1L8 2L9 2L9 1ZM25 2L25 3L27 3L27 2ZM18 3L18 4L19 4L19 3ZM20 3L20 5L21 5L21 4L22 4L22 5L23 5L23 7L24 7L24 8L23 8L23 9L24 9L24 10L21 10L21 9L22 9L22 8L21 8L21 9L20 9L20 8L19 8L19 9L18 9L18 10L17 10L17 9L13 9L13 10L12 10L12 9L11 9L11 8L10 8L10 9L11 9L11 10L10 10L10 11L11 11L11 12L9 12L9 10L8 10L8 11L6 11L6 12L5 12L5 14L9 14L9 13L11 13L11 14L13 14L13 15L12 15L12 17L11 17L11 16L10 16L10 15L5 15L5 16L7 16L7 17L6 17L6 18L5 18L5 19L6 19L6 20L7 20L7 21L6 21L6 22L7 22L7 21L8 21L8 24L9 24L9 25L8 25L8 27L9 27L9 30L13 30L13 31L12 31L12 33L15 33L15 34L17 34L17 33L15 33L15 32L16 32L16 31L17 31L17 32L21 32L21 31L20 31L20 30L21 30L21 29L22 29L22 31L24 31L24 32L26 32L26 34L27 34L27 32L28 32L28 29L24 29L24 30L23 30L23 29L22 29L22 28L26 28L26 27L27 27L27 28L29 28L29 27L27 27L27 26L26 26L26 25L25 25L25 26L21 26L21 25L23 25L23 24L20 24L20 22L21 22L21 23L24 23L24 24L26 24L26 22L28 22L28 21L30 21L30 20L28 20L28 19L30 19L30 18L31 18L31 17L32 17L32 18L34 18L34 17L32 17L32 15L33 15L33 16L35 16L35 17L36 17L36 16L35 16L35 14L33 14L33 13L32 13L32 14L31 14L31 13L30 13L30 14L29 14L29 16L27 16L27 18L28 18L28 19L26 19L26 17L25 17L25 16L26 16L26 15L27 15L27 14L28 14L28 13L29 13L29 12L30 12L30 11L28 11L28 13L26 13L26 14L25 14L25 13L24 13L24 14L23 14L23 11L24 11L24 12L26 12L26 11L27 11L27 10L28 10L28 9L25 9L25 8L26 8L26 6L27 6L27 7L28 7L28 6L27 6L27 5L28 5L28 4L24 4L24 5L23 5L23 4L22 4L22 3ZM24 5L24 7L25 7L25 5ZM9 6L9 7L10 7L10 6ZM11 6L11 7L12 7L12 6ZM15 6L15 8L16 8L16 6ZM21 6L21 7L22 7L22 6ZM19 9L19 10L18 10L18 12L17 12L17 13L16 13L16 11L17 11L17 10L15 10L15 11L14 11L14 12L13 12L13 11L12 11L12 13L14 13L14 15L18 15L18 16L17 16L17 17L16 17L16 16L15 16L15 17L16 17L16 18L14 18L14 17L12 17L12 18L13 18L13 19L12 19L12 21L13 21L13 20L14 20L14 21L17 21L17 22L18 22L18 24L16 24L16 22L15 22L15 23L14 23L14 24L16 24L16 25L17 25L17 26L18 26L18 28L14 28L14 27L16 27L16 26L15 26L15 25L12 25L12 23L13 23L13 22L11 22L11 25L12 25L12 26L13 26L13 27L12 27L12 29L13 29L13 28L14 28L14 29L19 29L19 30L18 30L18 31L19 31L19 30L20 30L20 29L21 29L21 28L22 28L22 27L21 27L21 28L20 28L20 29L19 29L19 26L20 26L20 24L19 24L19 22L20 22L20 21L21 21L21 22L24 22L24 21L21 21L21 20L22 20L22 19L23 19L23 18L24 18L24 20L25 20L25 22L26 22L26 20L25 20L25 18L24 18L24 17L21 17L21 16L25 16L25 14L24 14L24 15L23 15L23 14L22 14L22 15L21 15L21 13L18 13L18 12L22 12L22 11L19 11L19 10L20 10L20 9ZM6 12L6 13L7 13L7 12ZM14 12L14 13L15 13L15 14L16 14L16 13L15 13L15 12ZM1 13L1 15L3 15L3 14L2 14L2 13ZM17 13L17 14L18 14L18 15L19 15L19 16L21 16L21 15L20 15L20 14L18 14L18 13ZM30 14L30 16L29 16L29 18L30 18L30 17L31 17L31 14ZM8 16L8 17L7 17L7 18L6 18L6 19L8 19L8 21L11 21L11 17L10 17L10 16ZM8 17L8 18L9 18L9 20L10 20L10 18L9 18L9 17ZM20 17L20 18L17 18L17 20L19 20L19 21L18 21L18 22L19 22L19 21L20 21L20 18L21 18L21 17ZM2 19L2 20L3 20L3 19ZM14 19L14 20L16 20L16 19ZM33 19L33 20L35 20L35 21L36 21L36 20L35 20L35 19ZM4 20L4 21L5 21L5 20ZM5 23L5 24L7 24L7 23ZM3 24L3 25L4 25L4 26L5 26L5 25L4 25L4 24ZM31 24L31 25L32 25L32 24ZM0 25L0 29L1 29L1 25ZM6 25L6 26L7 26L7 25ZM9 25L9 26L10 26L10 27L11 27L11 26L10 26L10 25ZM18 25L18 26L19 26L19 25ZM25 26L25 27L26 27L26 26ZM35 26L35 27L37 27L37 26ZM10 28L10 29L11 29L11 28ZM29 29L29 32L32 32L32 29ZM15 30L15 31L14 31L14 32L15 32L15 31L16 31L16 30ZM30 30L30 31L31 31L31 30ZM26 31L26 32L27 32L27 31ZM10 32L10 33L11 33L11 32ZM18 33L18 34L19 34L19 33ZM24 33L24 34L22 34L22 35L25 35L25 33ZM31 33L31 34L32 34L32 36L36 36L36 35L34 35L34 33L33 33L33 34L32 34L32 33ZM14 35L14 36L15 36L15 35ZM28 35L28 36L29 36L29 37L30 37L30 35ZM0 0L0 7L7 7L7 0ZM1 1L1 6L6 6L6 1ZM2 2L2 5L5 5L5 2ZM30 0L30 7L37 7L37 0ZM31 1L31 6L36 6L36 1ZM32 2L32 5L35 5L35 2ZM0 30L0 37L7 37L7 30ZM1 31L1 36L6 36L6 31ZM2 32L2 35L5 35L5 32Z" fill="#000000"/></g></g></svg>
