<?xml version="1.0" encoding="UTF-8"?>
<svg xmlns="http://www.w3.org/2000/svg" version="1.1" width="100" height="100" viewBox="0 0 100 100"><rect x="0" y="0" width="100" height="100" fill="#ffffff"/><g transform="scale(2.703)"><g transform="translate(0,0)"><path fill-rule="evenodd" d="M10 0L10 2L11 2L11 0ZM12 0L12 1L13 1L13 0ZM16 0L16 1L15 1L15 2L14 2L14 3L13 3L13 2L12 2L12 4L14 4L14 5L11 5L11 6L10 6L10 4L11 4L11 3L8 3L8 4L9 4L9 5L8 5L8 7L9 7L9 8L6 8L6 9L7 9L7 10L4 10L4 11L3 11L3 9L5 9L5 8L0 8L0 9L2 9L2 10L1 10L1 13L0 13L0 16L2 16L2 17L1 17L1 18L0 18L0 20L3 20L3 18L2 18L2 17L3 17L3 15L2 15L2 14L4 14L4 15L5 15L5 13L7 13L7 12L5 12L5 13L2 13L2 12L4 12L4 11L7 11L7 10L8 10L8 9L10 9L10 11L11 11L11 9L12 9L12 10L13 10L13 11L12 11L12 13L19 13L19 14L20 14L20 13L21 13L21 12L23 12L23 11L21 11L21 10L24 10L24 9L23 9L23 8L22 8L22 7L23 7L23 5L24 5L24 7L25 7L25 5L24 5L24 4L27 4L27 3L29 3L29 0L28 0L28 1L27 1L27 0L26 0L26 1L25 1L25 2L24 2L24 4L23 4L23 2L22 2L22 1L20 1L20 0L19 0L19 1L20 1L20 3L19 3L19 2L18 2L18 3L17 3L17 0ZM23 0L23 1L24 1L24 0ZM8 1L8 2L9 2L9 1ZM26 1L26 2L25 2L25 3L26 3L26 2L27 2L27 1ZM15 2L15 3L14 3L14 4L15 4L15 5L14 5L14 6L13 6L13 7L12 7L12 6L11 6L11 7L12 7L12 9L13 9L13 10L14 10L14 11L13 11L13 12L19 12L19 13L20 13L20 12L19 12L19 11L20 11L20 10L21 10L21 9L22 9L22 8L21 8L21 7L22 7L22 6L21 6L21 7L20 7L20 5L23 5L23 4L22 4L22 3L20 3L20 5L18 5L18 4L19 4L19 3L18 3L18 4L15 4L15 3L16 3L16 2ZM15 5L15 6L14 6L14 8L13 8L13 9L16 9L16 10L15 10L15 11L16 11L16 10L18 10L18 11L19 11L19 10L20 10L20 9L21 9L21 8L19 8L19 6L18 6L18 8L17 8L17 6L16 6L16 5ZM27 5L27 6L26 6L26 8L25 8L25 11L27 11L27 12L24 12L24 13L23 13L23 14L22 14L22 15L21 15L21 16L22 16L22 17L19 17L19 16L20 16L20 15L18 15L18 14L15 14L15 15L14 15L14 14L11 14L11 13L10 13L10 12L9 12L9 11L8 11L8 12L9 12L9 13L8 13L8 14L9 14L9 16L10 16L10 17L9 17L9 19L8 19L8 18L6 18L6 19L5 19L5 21L7 21L7 20L6 20L6 19L8 19L8 23L9 23L9 24L10 24L10 25L8 25L8 24L5 24L5 25L4 25L4 26L5 26L5 27L4 27L4 28L3 28L3 24L4 24L4 23L5 23L5 22L4 22L4 21L3 21L3 22L2 22L2 21L0 21L0 23L2 23L2 25L0 25L0 29L1 29L1 26L2 26L2 29L4 29L4 28L5 28L5 29L8 29L8 31L9 31L9 32L8 32L8 37L9 37L9 36L10 36L10 37L11 37L11 35L10 35L10 34L11 34L11 33L12 33L12 34L13 34L13 35L12 35L12 37L13 37L13 36L14 36L14 37L15 37L15 36L17 36L17 37L19 37L19 35L18 35L18 36L17 36L17 33L18 33L18 34L20 34L20 33L21 33L21 34L24 34L24 33L26 33L26 34L25 34L25 35L26 35L26 34L27 34L27 35L28 35L28 36L29 36L29 37L32 37L32 36L31 36L31 35L32 35L32 34L33 34L33 35L34 35L34 34L33 34L33 31L34 31L34 30L36 30L36 31L37 31L37 30L36 30L36 29L37 29L37 26L36 26L36 25L37 25L37 22L36 22L36 21L37 21L37 20L34 20L34 19L33 19L33 18L32 18L32 20L30 20L30 19L29 19L29 17L31 17L31 16L32 16L32 17L33 17L33 16L34 16L34 17L35 17L35 18L36 18L36 19L37 19L37 18L36 18L36 17L35 17L35 16L34 16L34 15L35 15L35 14L36 14L36 16L37 16L37 14L36 14L36 13L37 13L37 12L36 12L36 11L37 11L37 10L36 10L36 8L35 8L35 10L36 10L36 11L35 11L35 12L34 12L34 11L33 11L33 10L32 10L32 8L31 8L31 10L30 10L30 8L29 8L29 6L28 6L28 5ZM9 6L9 7L10 7L10 6ZM15 6L15 7L16 7L16 6ZM27 6L27 7L28 7L28 6ZM10 8L10 9L11 9L11 8ZM16 8L16 9L17 9L17 8ZM26 8L26 10L28 10L28 9L27 9L27 8ZM33 8L33 9L34 9L34 8ZM18 9L18 10L19 10L19 9ZM28 11L28 12L27 12L27 13L24 13L24 14L23 14L23 17L22 17L22 18L21 18L21 19L23 19L23 20L26 20L26 19L25 19L25 17L24 17L24 16L26 16L26 15L27 15L27 14L28 14L28 13L29 13L29 12L30 12L30 11ZM31 12L31 13L30 13L30 14L29 14L29 15L28 15L28 17L26 17L26 18L28 18L28 17L29 17L29 15L30 15L30 16L31 16L31 15L30 15L30 14L33 14L33 15L34 15L34 14L35 14L35 13L36 13L36 12L35 12L35 13L34 13L34 12L33 12L33 13L32 13L32 12ZM1 13L1 14L2 14L2 13ZM9 13L9 14L10 14L10 13ZM6 14L6 15L7 15L7 16L5 16L5 17L4 17L4 18L5 18L5 17L7 17L7 16L8 16L8 15L7 15L7 14ZM24 14L24 15L26 15L26 14ZM12 15L12 17L10 17L10 20L9 20L9 22L10 22L10 23L11 23L11 22L13 22L13 23L12 23L12 25L10 25L10 26L9 26L9 27L8 27L8 28L9 28L9 29L10 29L10 31L11 31L11 30L13 30L13 31L12 31L12 33L15 33L15 34L16 34L16 33L17 33L17 32L18 32L18 33L20 33L20 32L21 32L21 33L23 33L23 32L21 32L21 31L20 31L20 30L21 30L21 29L22 29L22 30L23 30L23 31L25 31L25 32L28 32L28 29L24 29L24 28L26 28L26 27L25 27L25 24L26 24L26 26L28 26L28 28L29 28L29 26L30 26L30 27L31 27L31 28L35 28L35 27L36 27L36 26L35 26L35 27L33 27L33 25L32 25L32 26L31 26L31 25L30 25L30 24L33 24L33 23L34 23L34 25L35 25L35 23L36 23L36 22L35 22L35 21L34 21L34 20L33 20L33 21L29 21L29 19L28 19L28 21L26 21L26 22L25 22L25 24L23 24L23 23L24 23L24 22L23 22L23 21L22 21L22 20L21 20L21 21L20 21L20 18L17 18L17 17L15 17L15 16L16 16L16 15L15 15L15 16L14 16L14 15ZM17 15L17 16L18 16L18 15ZM12 17L12 18L13 18L13 19L12 19L12 21L13 21L13 20L14 20L14 21L17 21L17 22L15 22L15 23L14 23L14 24L15 24L15 25L12 25L12 26L13 26L13 27L12 27L12 29L13 29L13 28L14 28L14 29L15 29L15 28L16 28L16 29L19 29L19 30L20 30L20 29L21 29L21 28L22 28L22 29L23 29L23 30L24 30L24 29L23 29L23 27L22 27L22 26L24 26L24 25L22 25L22 26L21 26L21 28L20 28L20 27L19 27L19 26L20 26L20 24L22 24L22 23L21 23L21 22L22 22L22 21L21 21L21 22L20 22L20 21L19 21L19 20L17 20L17 18L14 18L14 17ZM23 17L23 18L24 18L24 17ZM1 18L1 19L2 19L2 18ZM14 19L14 20L15 20L15 19ZM10 20L10 21L11 21L11 20ZM18 21L18 22L17 22L17 24L16 24L16 25L15 25L15 26L16 26L16 28L19 28L19 29L20 29L20 28L19 28L19 27L18 27L18 25L19 25L19 24L20 24L20 22L19 22L19 21ZM28 21L28 22L26 22L26 24L27 24L27 23L28 23L28 24L29 24L29 23L30 23L30 22L29 22L29 21ZM3 22L3 23L4 23L4 22ZM6 22L6 23L7 23L7 22ZM18 22L18 24L17 24L17 25L16 25L16 26L17 26L17 25L18 25L18 24L19 24L19 22ZM28 22L28 23L29 23L29 22ZM31 22L31 23L33 23L33 22ZM5 25L5 26L8 26L8 25ZM10 26L10 27L9 27L9 28L11 28L11 26ZM6 27L6 28L7 28L7 27ZM14 27L14 28L15 28L15 27ZM29 29L29 32L32 32L32 29ZM15 30L15 31L14 31L14 32L15 32L15 33L16 33L16 32L17 32L17 31L16 31L16 30ZM25 30L25 31L26 31L26 30ZM30 30L30 31L31 31L31 30ZM18 31L18 32L20 32L20 31ZM34 32L34 33L35 33L35 35L36 35L36 36L34 36L34 37L37 37L37 33L35 33L35 32ZM9 33L9 34L10 34L10 33ZM28 33L28 35L29 35L29 36L30 36L30 35L31 35L31 34L29 34L29 33ZM14 35L14 36L15 36L15 35ZM20 35L20 36L22 36L22 37L27 37L27 36L24 36L24 35L23 35L23 36L22 36L22 35ZM0 0L0 7L7 7L7 0ZM1 1L1 6L6 6L6 1ZM2 2L2 5L5 5L5 2ZM30 0L30 7L37 7L37 0ZM31 1L31 6L36 6L36 1ZM32 2L32 5L35 5L35 2ZM0 30L0 37L7 37L7 30ZM1 31L1 36L6 36L6 31ZM2 32L2 35L5 35L5 32Z" fill="#000000"/></g></g></svg>
