<?xml version="1.0" encoding="UTF-8"?>
<svg xmlns="http://www.w3.org/2000/svg" version="1.1" width="100" height="100" viewBox="0 0 100 100"><rect x="0" y="0" width="100" height="100" fill="#ffffff"/><g transform="scale(2.703)"><g transform="translate(0,0)"><path fill-rule="evenodd" d="M9 0L9 1L8 1L8 2L9 2L9 3L8 3L8 4L10 4L10 7L11 7L11 4L12 4L12 5L13 5L13 4L18 4L18 5L14 5L14 8L13 8L13 6L12 6L12 9L14 9L14 10L10 10L10 9L11 9L11 8L6 8L6 9L7 9L7 10L5 10L5 8L0 8L0 12L1 12L1 11L2 11L2 16L1 16L1 17L2 17L2 19L4 19L4 20L5 20L5 19L7 19L7 18L6 18L6 17L7 17L7 16L6 16L6 15L8 15L8 18L9 18L9 19L8 19L8 20L6 20L6 21L5 21L5 22L6 22L6 23L4 23L4 25L2 25L2 29L3 29L3 28L4 28L4 27L5 27L5 26L4 26L4 25L5 25L5 24L6 24L6 25L7 25L7 26L6 26L6 27L7 27L7 26L8 26L8 25L9 25L9 24L8 24L8 25L7 25L7 24L6 24L6 23L7 23L7 22L8 22L8 23L9 23L9 22L10 22L10 23L11 23L11 21L12 21L12 22L13 22L13 23L12 23L12 25L13 25L13 24L14 24L14 25L19 25L19 26L15 26L15 27L14 27L14 28L15 28L15 29L12 29L12 27L13 27L13 26L10 26L10 27L8 27L8 28L10 28L10 29L12 29L12 30L13 30L13 31L12 31L12 33L13 33L13 32L14 32L14 33L16 33L16 34L15 34L15 35L14 35L14 36L15 36L15 37L16 37L16 36L17 36L17 37L18 37L18 36L17 36L17 34L20 34L20 33L21 33L21 32L23 32L23 33L22 33L22 34L21 34L21 36L20 36L20 35L19 35L19 36L20 36L20 37L21 37L21 36L23 36L23 37L27 37L27 35L28 35L28 36L30 36L30 37L32 37L32 36L31 36L31 35L32 35L32 34L33 34L33 33L35 33L35 35L36 35L36 36L34 36L34 37L37 37L37 33L35 33L35 32L37 32L37 30L35 30L35 29L36 29L36 28L32 28L32 25L33 25L33 27L37 27L37 26L34 26L34 25L36 25L36 23L37 23L37 22L36 22L36 21L37 21L37 20L36 20L36 19L37 19L37 18L35 18L35 17L36 17L36 16L37 16L37 14L35 14L35 12L36 12L36 13L37 13L37 10L35 10L35 9L36 9L36 8L35 8L35 9L34 9L34 8L33 8L33 9L34 9L34 10L33 10L33 12L32 12L32 11L31 11L31 10L32 10L32 8L31 8L31 10L30 10L30 8L28 8L28 7L29 7L29 6L28 6L28 5L27 5L27 6L26 6L26 8L25 8L25 6L24 6L24 8L23 8L23 10L22 10L22 11L19 11L19 10L20 10L20 8L22 8L22 7L23 7L23 6L22 6L22 7L21 7L21 5L24 5L24 4L27 4L27 2L28 2L28 3L29 3L29 2L28 2L28 1L29 1L29 0L28 0L28 1L27 1L27 2L26 2L26 3L24 3L24 4L23 4L23 1L24 1L24 2L25 2L25 1L24 1L24 0L23 0L23 1L22 1L22 0L18 0L18 1L21 1L21 2L20 2L20 4L18 4L18 3L19 3L19 2L18 2L18 3L16 3L16 1L15 1L15 0L14 0L14 1L11 1L11 2L10 2L10 0ZM12 2L12 4L13 4L13 3L14 3L14 2ZM10 3L10 4L11 4L11 3ZM21 3L21 4L20 4L20 5L19 5L19 7L18 7L18 6L17 6L17 8L16 8L16 9L15 9L15 8L14 8L14 9L15 9L15 10L16 10L16 12L15 12L15 11L12 11L12 13L11 13L11 15L10 15L10 13L9 13L9 9L8 9L8 12L7 12L7 11L5 11L5 10L4 10L4 11L3 11L3 13L4 13L4 11L5 11L5 14L4 14L4 15L3 15L3 17L4 17L4 19L5 19L5 17L4 17L4 15L5 15L5 14L7 14L7 13L9 13L9 14L8 14L8 15L9 15L9 18L13 18L13 19L12 19L12 21L15 21L15 22L16 22L16 21L17 21L17 24L19 24L19 25L21 25L21 26L22 26L22 28L20 28L20 26L19 26L19 28L20 28L20 30L19 30L19 29L15 29L15 30L18 30L18 31L16 31L16 33L17 33L17 32L18 32L18 31L20 31L20 32L19 32L19 33L20 33L20 32L21 32L21 29L22 29L22 31L23 31L23 32L28 32L28 30L27 30L27 29L28 29L28 28L29 28L29 27L27 27L27 26L28 26L28 25L29 25L29 26L30 26L30 28L31 28L31 25L30 25L30 24L33 24L33 25L34 25L34 24L35 24L35 23L36 23L36 22L35 22L35 21L36 21L36 20L35 20L35 18L34 18L34 17L32 17L32 15L33 15L33 16L35 16L35 14L34 14L34 13L32 13L32 14L31 14L31 13L30 13L30 14L29 14L29 15L28 15L28 17L27 17L27 15L26 15L26 13L25 13L25 12L26 12L26 11L27 11L27 10L28 10L28 12L30 12L30 11L29 11L29 10L28 10L28 9L26 9L26 10L25 10L25 9L24 9L24 10L23 10L23 11L24 11L24 12L19 12L19 13L24 13L24 14L23 14L23 15L24 15L24 16L26 16L26 18L25 18L25 17L24 17L24 18L23 18L23 17L22 17L22 16L21 16L21 15L22 15L22 14L17 14L17 13L16 13L16 12L18 12L18 11L17 11L17 10L19 10L19 9L17 9L17 8L20 8L20 5L21 5L21 4L22 4L22 3ZM8 5L8 7L9 7L9 5ZM15 6L15 7L16 7L16 6ZM27 6L27 7L28 7L28 6ZM1 9L1 10L2 10L2 9ZM16 9L16 10L17 10L17 9ZM24 10L24 11L25 11L25 10ZM34 11L34 12L35 12L35 11ZM6 12L6 13L7 13L7 12ZM12 13L12 14L13 14L13 15L12 15L12 17L13 17L13 16L14 16L14 17L18 17L18 18L17 18L17 19L16 19L16 18L15 18L15 19L14 19L14 20L15 20L15 21L16 21L16 20L17 20L17 21L19 21L19 22L18 22L18 23L19 23L19 24L20 24L20 23L19 23L19 22L21 22L21 24L23 24L23 22L24 22L24 24L25 24L25 25L27 25L27 23L28 23L28 24L30 24L30 22L29 22L29 23L28 23L28 22L27 22L27 20L29 20L29 18L30 18L30 17L31 17L31 18L32 18L32 20L33 20L33 22L32 22L32 23L33 23L33 22L34 22L34 21L35 21L35 20L33 20L33 18L32 18L32 17L31 17L31 14L30 14L30 17L28 17L28 18L26 18L26 20L25 20L25 18L24 18L24 19L23 19L23 18L22 18L22 17L21 17L21 16L20 16L20 17L18 17L18 16L14 16L14 15L16 15L16 14L14 14L14 13ZM27 13L27 14L28 14L28 13ZM0 14L0 15L1 15L1 14ZM20 17L20 18L19 18L19 19L20 19L20 20L19 20L19 21L24 21L24 22L26 22L26 23L25 23L25 24L26 24L26 23L27 23L27 22L26 22L26 21L25 21L25 20L23 20L23 19L22 19L22 18L21 18L21 17ZM0 18L0 21L1 21L1 18ZM20 18L20 19L21 19L21 20L22 20L22 19L21 19L21 18ZM9 19L9 20L8 20L8 22L9 22L9 21L10 21L10 19ZM15 19L15 20L16 20L16 19ZM17 19L17 20L18 20L18 19ZM30 20L30 21L31 21L31 20ZM3 21L3 22L1 22L1 24L3 24L3 22L4 22L4 21ZM6 21L6 22L7 22L7 21ZM14 23L14 24L15 24L15 23ZM0 25L0 29L1 29L1 25ZM22 25L22 26L24 26L24 25ZM3 26L3 27L4 27L4 26ZM10 27L10 28L11 28L11 27ZM15 27L15 28L18 28L18 27ZM23 27L23 28L22 28L22 29L23 29L23 30L25 30L25 31L27 31L27 30L26 30L26 28L27 28L27 27L26 27L26 28L24 28L24 27ZM5 28L5 29L7 29L7 28ZM8 29L8 31L9 31L9 29ZM29 29L29 32L32 32L32 29ZM10 30L10 34L9 34L9 32L8 32L8 37L9 37L9 36L10 36L10 37L12 37L12 35L13 35L13 34L11 34L11 30ZM30 30L30 31L31 31L31 30ZM33 30L33 32L35 32L35 31L34 31L34 30ZM14 31L14 32L15 32L15 31ZM24 33L24 34L22 34L22 35L24 35L24 36L26 36L26 35L27 35L27 34L28 34L28 35L29 35L29 34L28 34L28 33ZM31 33L31 34L30 34L30 35L31 35L31 34L32 34L32 33ZM10 34L10 36L11 36L11 34ZM25 34L25 35L26 35L26 34ZM0 0L0 7L7 7L7 0ZM1 1L1 6L6 6L6 1ZM2 2L2 5L5 5L5 2ZM30 0L30 7L37 7L37 0ZM31 1L31 6L36 6L36 1ZM32 2L32 5L35 5L35 2ZM0 30L0 37L7 37L7 30ZM1 31L1 36L6 36L6 31ZM2 32L2 35L5 35L5 32Z" fill="#000000"/></g></g></svg>
