<?xml version="1.0" encoding="UTF-8"?>
<svg xmlns="http://www.w3.org/2000/svg" version="1.1" width="100" height="100" viewBox="0 0 100 100"><rect x="0" y="0" width="100" height="100" fill="#ffffff"/><g transform="scale(2.703)"><g transform="translate(0,0)"><path fill-rule="evenodd" d="M8 0L8 1L9 1L9 2L10 2L10 3L11 3L11 1L13 1L13 2L12 2L12 4L11 4L11 5L10 5L10 4L9 4L9 5L10 5L10 8L9 8L9 6L8 6L8 8L9 8L9 10L10 10L10 11L8 11L8 12L6 12L6 13L5 13L5 10L4 10L4 9L5 9L5 8L3 8L3 10L4 10L4 12L1 12L1 13L0 13L0 15L1 15L1 16L3 16L3 17L2 17L2 21L0 21L0 23L1 23L1 25L0 25L0 29L1 29L1 27L2 27L2 29L4 29L4 28L5 28L5 29L7 29L7 28L5 28L5 27L8 27L8 28L10 28L10 27L11 27L11 26L9 26L9 27L8 27L8 24L9 24L9 23L10 23L10 24L11 24L11 22L10 22L10 21L7 21L7 20L8 20L8 19L9 19L9 20L11 20L11 19L12 19L12 21L14 21L14 24L13 24L13 25L12 25L12 26L13 26L13 25L15 25L15 26L14 26L14 27L12 27L12 28L11 28L11 29L10 29L10 30L12 30L12 31L9 31L9 32L8 32L8 34L10 34L10 35L11 35L11 37L14 37L14 31L16 31L16 32L15 32L15 35L17 35L17 36L16 36L16 37L17 37L17 36L18 36L18 37L21 37L21 36L20 36L20 35L22 35L22 36L23 36L23 35L24 35L24 33L25 33L25 32L26 32L26 33L28 33L28 34L25 34L25 35L27 35L27 36L28 36L28 37L29 37L29 36L30 36L30 37L31 37L31 35L33 35L33 36L32 36L32 37L33 37L33 36L36 36L36 37L37 37L37 33L33 33L33 32L34 32L34 31L37 31L37 30L33 30L33 29L35 29L35 28L36 28L36 29L37 29L37 26L36 26L36 25L37 25L37 22L36 22L36 21L37 21L37 20L35 20L35 21L33 21L33 20L32 20L32 18L31 18L31 20L30 20L30 17L31 17L31 16L32 16L32 15L34 15L34 17L33 17L33 18L34 18L34 19L37 19L37 18L35 18L35 17L37 17L37 16L36 16L36 15L37 15L37 14L36 14L36 12L37 12L37 10L36 10L36 9L37 9L37 8L36 8L36 9L31 9L31 8L30 8L30 9L29 9L29 10L28 10L28 8L29 8L29 5L28 5L28 8L27 8L27 9L25 9L25 11L26 11L26 10L27 10L27 11L28 11L28 13L25 13L25 12L24 12L24 9L23 9L23 12L22 12L22 13L21 13L21 12L20 12L20 11L21 11L21 8L20 8L20 7L21 7L21 6L20 6L20 7L19 7L19 5L21 5L21 4L22 4L22 2L20 2L20 1L21 1L21 0L20 0L20 1L19 1L19 2L18 2L18 3L17 3L17 6L16 6L16 8L15 8L15 4L14 4L14 3L16 3L16 2L15 2L15 1L13 1L13 0L11 0L11 1L9 1L9 0ZM16 0L16 1L18 1L18 0ZM22 0L22 1L23 1L23 0ZM25 0L25 1L26 1L26 2L24 2L24 4L26 4L26 5L27 5L27 4L29 4L29 3L28 3L28 2L29 2L29 1L28 1L28 2L27 2L27 1L26 1L26 0ZM26 3L26 4L27 4L27 3ZM12 4L12 5L11 5L11 7L12 7L12 9L10 9L10 10L12 10L12 11L13 11L13 13L10 13L10 12L11 12L11 11L10 11L10 12L8 12L8 13L9 13L9 15L8 15L8 14L7 14L7 13L6 13L6 14L7 14L7 15L6 15L6 16L9 16L9 17L10 17L10 18L9 18L9 19L11 19L11 17L14 17L14 18L12 18L12 19L13 19L13 20L14 20L14 19L15 19L15 20L20 20L20 22L19 22L19 21L18 21L18 22L19 22L19 23L18 23L18 24L17 24L17 21L16 21L16 24L17 24L17 25L18 25L18 26L16 26L16 27L15 27L15 28L13 28L13 29L12 29L12 30L15 30L15 29L16 29L16 27L17 27L17 30L16 30L16 31L17 31L17 32L16 32L16 33L17 33L17 32L20 32L20 34L19 34L19 33L18 33L18 34L19 34L19 35L20 35L20 34L21 34L21 33L22 33L22 35L23 35L23 33L22 33L22 31L23 31L23 30L24 30L24 31L26 31L26 30L27 30L27 31L28 31L28 30L27 30L27 28L28 28L28 27L26 27L26 23L27 23L27 22L25 22L25 24L24 24L24 23L23 23L23 24L22 24L22 22L23 22L23 21L22 21L22 20L25 20L25 21L26 21L26 20L29 20L29 17L30 17L30 16L31 16L31 15L32 15L32 14L31 14L31 13L30 13L30 12L29 12L29 13L30 13L30 14L28 14L28 15L27 15L27 14L25 14L25 13L24 13L24 14L23 14L23 13L22 13L22 14L21 14L21 13L19 13L19 11L20 11L20 10L19 10L19 9L16 9L16 10L18 10L18 12L17 12L17 11L16 11L16 15L15 15L15 13L14 13L14 12L15 12L15 11L13 11L13 10L15 10L15 8L13 8L13 7L14 7L14 6L13 6L13 7L12 7L12 5L14 5L14 4ZM18 4L18 5L19 5L19 4ZM23 5L23 6L22 6L22 7L23 7L23 6L24 6L24 7L25 7L25 8L26 8L26 7L27 7L27 6L26 6L26 7L25 7L25 5ZM17 6L17 8L18 8L18 6ZM0 8L0 10L2 10L2 8ZM6 8L6 9L7 9L7 8ZM12 9L12 10L13 10L13 9ZM30 9L30 10L29 10L29 11L30 11L30 10L31 10L31 9ZM6 10L6 11L7 11L7 10ZM32 10L32 11L33 11L33 12L32 12L32 13L33 13L33 14L34 14L34 13L35 13L35 12L36 12L36 11L35 11L35 12L34 12L34 11L33 11L33 10ZM1 13L1 14L2 14L2 13ZM4 13L4 14L5 14L5 13ZM13 13L13 14L11 14L11 15L10 15L10 16L12 16L12 15L13 15L13 14L14 14L14 13ZM18 13L18 14L17 14L17 15L16 15L16 16L14 16L14 17L15 17L15 19L16 19L16 18L17 18L17 19L18 19L18 18L19 18L19 19L20 19L20 20L21 20L21 18L20 18L20 17L19 17L19 15L21 15L21 14L19 14L19 13ZM24 14L24 15L25 15L25 14ZM30 14L30 15L28 15L28 16L27 16L27 19L28 19L28 16L30 16L30 15L31 15L31 14ZM35 14L35 15L36 15L36 14ZM3 15L3 16L4 16L4 17L3 17L3 18L4 18L4 19L5 19L5 20L4 20L4 21L5 21L5 23L4 23L4 24L3 24L3 26L2 26L2 25L1 25L1 26L2 26L2 27L4 27L4 26L7 26L7 25L4 25L4 24L5 24L5 23L6 23L6 24L7 24L7 23L8 23L8 22L7 22L7 21L5 21L5 20L7 20L7 19L8 19L8 18L7 18L7 17L5 17L5 15ZM17 15L17 18L18 18L18 15ZM23 16L23 17L25 17L25 18L26 18L26 16ZM5 18L5 19L7 19L7 18ZM22 18L22 19L24 19L24 18ZM25 19L25 20L26 20L26 19ZM31 20L31 21L28 21L28 24L27 24L27 25L28 25L28 26L30 26L30 27L31 27L31 28L32 28L32 27L33 27L33 26L34 26L34 27L36 27L36 26L34 26L34 25L33 25L33 24L34 24L34 23L35 23L35 25L36 25L36 23L35 23L35 22L32 22L32 20ZM2 21L2 23L3 23L3 21ZM6 22L6 23L7 23L7 22ZM12 22L12 23L13 23L13 22ZM31 22L31 23L32 23L32 22ZM20 23L20 26L18 26L18 27L20 27L20 26L21 26L21 27L22 27L22 28L23 28L23 29L26 29L26 28L23 28L23 27L22 27L22 26L21 26L21 23ZM29 23L29 24L28 24L28 25L31 25L31 24L30 24L30 23ZM18 24L18 25L19 25L19 24ZM23 24L23 26L24 26L24 24ZM32 25L32 26L31 26L31 27L32 27L32 26L33 26L33 25ZM18 28L18 29L19 29L19 30L17 30L17 31L20 31L20 32L21 32L21 30L20 30L20 29L19 29L19 28ZM8 29L8 30L9 30L9 29ZM29 29L29 32L32 32L32 29ZM30 30L30 31L31 31L31 30ZM12 31L12 33L11 33L11 32L10 32L10 34L12 34L12 35L13 35L13 34L12 34L12 33L13 33L13 31ZM32 33L32 34L33 34L33 33ZM28 34L28 36L29 36L29 34ZM30 34L30 35L31 35L31 34ZM34 34L34 35L36 35L36 34ZM8 35L8 37L10 37L10 36L9 36L9 35ZM24 36L24 37L25 37L25 36ZM0 0L0 7L7 7L7 0ZM1 1L1 6L6 6L6 1ZM2 2L2 5L5 5L5 2ZM30 0L30 7L37 7L37 0ZM31 1L31 6L36 6L36 1ZM32 2L32 5L35 5L35 2ZM0 30L0 37L7 37L7 30ZM1 31L1 36L6 36L6 31ZM2 32L2 35L5 35L5 32Z" fill="#000000"/></g></g></svg>
